<svg width="693" height="1259" viewBox="0 0 693 1259" fill="none" xmlns="http://www.w3.org/2000/svg">
<path fill-rule="evenodd" clip-rule="evenodd" d="M97.725 2.977C96.926 4.772 96.5 11.227 96.5 21.558C96.5 39.572 96.782 40.227 104.537 40.227H108.693L109.346 28.07C109.706 21.384 110 12.384 110 8.07V0.226999H104.475C99.412 0.226999 98.848 0.456999 97.725 2.977ZM150 20.113V40.227H154.965C158.85 40.227 160.155 39.806 160.965 38.293C162.802 34.859 161.792 3.622 159.78 1.684C159.626 1.536 157.363 1.096 154.75 0.706999L150 0V20.113ZM203 20.227V40.227H206.892C210.287 40.227 210.87 39.882 211.462 37.521C212.309 34.148 212.291 11.351 211.437 5.658C210.882 1.958 210.432 1.363 207.777 0.831999C206.112 0.498999 204.356 0.226999 203.875 0.226999C203.394 0.226999 203 9.227 203 20.227ZM257.487 1.977C257.087 2.939 256.53 11.651 256.249 21.336L255.738 38.944L258.487 39.634C259.999 40.014 261.399 40.162 261.597 39.963C262.271 39.29 263.983 16.773 263.991 8.477L264 0.226999H261.107C259.295 0.226999 257.942 0.880999 257.487 1.977ZM311.053 3.977C310.48 6.04 310.009 14.766 310.006 23.37C310.001 36.75 310.23 39.101 311.59 39.623C315.294 41.045 315.671 39.251 316.45 16.477L317.006 0.226999H314.55C312.564 0.226999 311.895 0.943999 311.053 3.977ZM364 18.536C364 33.086 364.301 37.243 365.468 38.786C366.777 40.516 366.938 38.771 366.955 22.727C366.973 4.771 366.554 0.226999 364.883 0.226999C364.398 0.226999 364 8.466 364 18.536ZM415.646 4.792C415.302 7.302 414.719 16.343 414.351 24.882L413.682 40.408L416.023 40.067C419.184 39.608 419.591 37.612 420.467 18.286C421.066 5.053 420.95 1.81 419.853 1.115C417.219 -0.554 416.265 0.279 415.646 4.792ZM468.578 2.477C468.217 3.715 467.647 12.714 467.311 22.477L466.7 40.227H469.733C473.768 40.227 473.981 39.301 474.692 18.63L475.281 1.534L472.89 0.893999C469.419 -0.0350009 469.297 0.00999928 468.578 2.477ZM519.607 1.809C518.739 4.07 518.884 36.496 519.768 37.885C520.173 38.522 522.191 39.36 524.252 39.747L528 40.45V20.338V0.226999H524.107C521.48 0.226999 520.017 0.741 519.607 1.809ZM570.219 1.977C569.823 2.939 569.524 11.319 569.554 20.597C569.615 39.628 569.848 40.227 577.191 40.227H581L580.986 22.477C580.979 12.714 580.701 3.715 580.37 2.477C579.86 0.573999 579.085 0.226999 575.352 0.226999C572.088 0.226999 570.75 0.682999 570.219 1.977ZM621.654 6.265C621.294 9.706 621 18.777 621 26.424V40.327L626.689 40.027L632.378 39.727L633.669 34.727C635.22 28.726 635.387 14.539 633.993 7.19C633.439 4.269 632.868 1.762 632.725 1.618C632.581 1.475 630.179 1.054 627.386 0.684L622.308 0.0100002L621.654 6.265ZM653.5 67.956C645.368 68.348 644 69.474 644 75.776V79.942L650.147 80.585C653.527 80.938 662.55 81.227 670.197 81.227H684.1L683.8 75.538L683.5 69.849L678.5 68.558C673.718 67.322 669.006 67.209 653.5 67.956ZM645.75 121.916C642.966 122.644 643.296 130.78 646.171 132.319C648.5 133.565 678.003 133.106 681.175 131.774C682.932 131.036 684.648 124.084 683.523 122.264C682.891 121.242 649.506 120.935 645.75 121.916ZM644 178.12C644 182.76 644.407 182.974 654.777 183.798C661.256 184.313 681.555 183.019 682.525 182.029C682.688 181.863 683.137 180.04 683.522 177.977L684.223 174.227H664.111H644V178.12ZM644.595 229.704C644.214 231.222 644.088 232.648 644.315 232.875C645.057 233.618 665.293 235.159 674.75 235.193L684 235.227V232.344C684 228.481 682.921 228.241 662.394 227.534L645.287 226.946L644.595 229.704ZM644.553 282.951C643.389 285.983 646.568 286.896 660.636 287.571C682.582 288.623 684 288.546 684 286.294C684 285.231 683.184 284.103 682.187 283.786C679.228 282.847 661.091 281.281 652.857 281.253C646.53 281.231 645.1 281.524 644.553 282.951ZM646 336.359C643.608 337.321 643.581 337.424 645.373 338.746C646.404 339.506 648.429 339.946 649.873 339.723C651.318 339.501 658.575 339.052 666 338.726C680.3 338.098 684 337.562 684 336.119C684 334.891 649.101 335.112 646 336.359ZM291.692 357.855C285.354 370.384 282.447 387.942 285.377 396.006C287.823 402.739 293.834 411.106 301.847 418.93L309.223 426.132L309.748 432.68C310.258 439.031 311.179 440.809 312.362 437.727C312.776 436.647 314.468 436.227 318.41 436.227C321.419 436.227 324.139 435.811 324.453 435.303C325.692 433.298 335.649 430.995 346.046 430.309C356.216 429.638 357.252 429.374 360.744 426.555C362.81 424.887 364.644 422.557 364.819 421.376C365.191 418.878 363.922 418.28 350.849 414.792C346.022 413.504 339.019 410.742 335.287 408.654C323.24 401.913 321.532 401.239 314.168 400.314C306.15 399.307 302.397 397.402 300.954 393.605C299.597 390.036 298.133 379.574 297.153 366.432C296.69 360.22 295.826 354.653 295.234 354.061C294.465 353.292 293.453 354.376 291.692 357.855ZM283.509 355.394C280.691 363.032 279.763 368.419 279.289 379.891C278.718 393.709 279.376 400.602 281.207 399.991C281.9 399.76 282.37 395.264 282.494 387.677C282.644 378.457 283.194 374.173 284.902 368.922C287.217 361.8 287.378 355.17 285.251 354.471C284.563 354.245 283.78 354.661 283.509 355.394ZM644.557 387.477C644.937 388.715 645.348 389.844 645.469 389.988C645.996 390.613 666.266 392.178 674.143 392.201C681.304 392.223 682.896 391.941 683.426 390.56C683.778 389.643 683.628 388.455 683.093 387.92C682.079 386.906 663.823 385.402 651.183 385.291C644.044 385.229 643.882 385.282 644.557 387.477ZM278.27 406.613C263.513 425.069 254.681 443.926 252.457 461.722L251.757 467.326L254.629 466.625C256.208 466.239 260.712 464.647 264.637 463.087C281.123 456.535 302.32 453.745 316.897 456.208C323.327 457.294 324.873 457.991 328.716 461.533C331.148 463.774 334.958 468.672 337.183 472.418C339.407 476.163 341.641 479.227 342.146 479.227C342.651 479.227 344.656 478.562 346.602 477.749L350.139 476.271L348.32 473.068C345.291 467.736 334.976 457.888 326.5 452.238C322.1 449.304 317.022 445.626 315.215 444.065C313.409 442.504 311.046 441.227 309.965 441.227C308.416 441.227 307.999 440.539 307.994 437.977C307.982 430.932 305.961 426.894 298.609 419.227C294.653 415.102 289.709 409.364 287.623 406.477C285.537 403.59 283.53 401.248 283.165 401.274C282.799 401.3 280.596 403.703 278.27 406.613ZM446.25 441.051C446.541 444.254 448.039 449.767 449.579 453.301C451.634 458.016 452.346 461.192 452.252 465.227C452.114 471.132 450.249 622.583 450.093 640.502L450 651.276L442.083 651.082C435.145 650.911 434.046 650.63 433.2 648.807C431.467 645.077 424.538 637.235 422.973 637.231C422.132 637.229 420.332 637.978 418.973 638.897L416.5 640.566L418.872 637.952L421.244 635.338L417.737 628.958C415.809 625.449 409.341 615.053 403.365 605.857C384.899 577.438 384.791 577.185 382.453 556.727C381.636 549.577 380.714 542.49 380.405 540.977L379.841 538.227H367.921H356L356.004 546.977C356.019 579.336 367.927 605.36 396.101 634.604L407.779 646.727L411.14 644.307C414.138 642.148 414.297 642.118 412.618 644.032C411.008 645.866 410.908 646.592 411.927 649.051C412.582 650.633 415.111 653.883 417.547 656.274L421.977 660.62L425.067 658.336C428.723 655.632 430.059 656.168 427.083 659.144C425.938 660.289 425.008 661.79 425.018 662.477C425.058 665.258 440.076 675.796 442.611 674.823C444.15 674.232 444.152 674.052 442.636 672.377C440.478 669.993 440.599 665.707 442.973 660.477C444.457 657.209 445.433 656.245 447.201 656.306C448.465 656.349 448.904 656.623 448.177 656.914C446.175 657.714 452.552 661.668 459.249 663.779C468.545 666.71 468.332 663.18 459.01 659.828C452.452 657.47 453.019 656.882 460.047 658.752C466.817 660.554 474.328 660.712 473.771 659.041C473.554 658.388 469.804 656.663 465.438 655.206L457.5 652.558L457.245 562.502C457.025 484.835 457.188 472.369 458.431 471.892C459.507 471.479 460.649 473.666 462.941 480.533C466.178 490.232 470.099 496.48 471.849 494.727C473.105 493.468 467.778 467.773 464.921 461.315C463.823 458.833 460.333 453.185 457.166 448.765C453.998 444.344 450.63 439.489 449.68 437.977C446.845 433.461 445.659 434.525 446.25 441.051ZM644 441.12C644 442.932 644.654 444.285 645.75 444.74C646.712 445.14 655.424 445.697 665.109 445.978L682.717 446.489L683.407 443.74C683.787 442.228 683.912 440.806 683.685 440.579C682.943 439.836 662.707 438.295 653.25 438.261L644 438.227V441.12ZM292 460.883C285.606 461.864 270.984 465.444 270.559 466.132C269.627 467.639 273.215 471.302 277.995 473.724C288.376 478.985 302.013 479.803 318.189 476.135C330.583 473.325 332.145 471.581 326.718 466.607C321.842 462.138 314.643 460.197 303.568 460.363C298.581 460.438 293.375 460.672 292 460.883ZM257.717 470.312L253.935 472.308L255.717 475.361C260.952 484.325 274.36 491.519 289.238 493.348C297.213 494.328 300.208 494.255 308.336 492.882C322.004 490.573 334.035 485.385 333.985 481.822C333.938 478.508 332.454 478.384 321.488 480.778C297.718 485.967 280.161 483.176 266.861 472.093C264.31 469.967 262.06 468.247 261.861 468.271C261.663 468.296 259.798 469.214 257.717 470.312ZM350.035 477.161C349.466 478.225 349 479.693 349 480.422C349 481.808 333.637 488.857 322.137 492.747C312.179 496.117 301.169 497.603 291.202 496.924C279.998 496.16 274.212 494.348 265.176 488.772C258.063 484.383 257.767 484.296 254.913 485.772C252.084 487.235 251.94 487.199 251.035 484.82C250.519 483.461 249.128 481.831 247.946 481.198C246.105 480.213 245.367 480.456 242.807 482.887C237.233 488.181 233.674 498.129 232.383 512.02L231.713 519.227H243.328H254.944L256.428 524.477C257.244 527.365 259.019 533.727 260.372 538.616C261.726 543.506 263.433 547.886 264.167 548.351C264.9 548.816 270.323 549.203 276.219 549.212C285.313 549.225 286.85 549.453 286.364 550.721C286.048 551.543 285.312 551.92 284.727 551.559C282.975 550.476 270.875 550.216 271.53 551.275C271.853 551.799 271.443 552.227 270.618 552.227C269.793 552.227 268.84 551.777 268.5 551.227C267.77 550.046 266.927 549.986 265.33 551.002C264.457 551.557 264.645 553.77 266.072 559.736C269.595 574.456 268.41 589.937 261.033 625.616C257.814 641.183 257.487 647.823 259.494 656.84C261.799 667.195 261.279 673.087 255.493 702.227C250.139 729.192 245.837 747.736 239.463 771.328C233.699 792.657 230.203 809.966 223.425 850.727C219.745 872.852 218.03 885.869 218.218 890.227C218.5 896.726 218.5 896.727 220.226 894.189C222.217 891.261 225.219 878.455 235.066 830.866C238.951 812.089 244.815 786.77 248.096 774.6C251.376 762.431 255.101 747.837 256.372 742.169L258.683 731.865L262.498 730.544C266.287 729.232 266.301 729.237 264.496 731.231C261.809 734.201 263.225 734.642 269.185 732.692C276.38 730.339 282.034 726.938 288.815 720.888C291.942 718.098 293.175 717.261 291.557 719.028C289.546 721.222 288.938 722.565 289.638 723.265C290.91 724.537 304.466 710.663 311.171 701.227C317.662 692.091 323.145 681.767 322.457 679.975C322.137 679.142 323.298 676.148 325.036 673.322C326.775 670.496 327.934 667.497 327.611 666.657C326.904 664.812 324.8 667.128 313.936 681.707C309.846 687.196 300.2 698.026 292.5 705.775C279.233 719.127 279.131 719.206 290.565 707.295C307.348 689.813 322.78 670.298 321.482 668.198C321.027 667.461 320.306 667.524 319.161 668.398C318.247 669.096 318.512 668.526 319.75 667.132C323.47 662.942 321.956 659.02 317.953 662.477C317.157 663.165 317.967 662.131 319.753 660.179C323.009 656.622 323.899 654.227 321.965 654.227C321.263 654.227 321.274 653.583 322 652.227C323.696 649.058 321.335 649.72 314.543 654.319C309.908 657.458 309.316 657.697 312 655.346C313.925 653.66 315.765 652.269 316.089 652.254C316.414 652.239 317.192 651.102 317.818 649.727C318.79 647.594 318.708 647.227 317.256 647.227C315.878 647.227 315.977 646.931 317.777 645.67C320.345 643.872 320.732 641.227 318.427 641.227C317.142 641.227 317.25 640.725 319.023 638.477C320.954 636.027 321.007 635.69 319.503 635.386C318.033 635.089 318.085 634.855 319.908 633.579C322.781 631.566 322.529 630.244 319.25 630.137C316.559 630.049 316.569 630.027 319.75 629.108C326.749 627.087 322.693 626.223 305.25 626.019C294.787 625.897 291.397 625.675 296.993 625.479C302.524 625.285 305.929 624.801 305.152 624.321C304.418 623.867 308.134 623.722 313.409 623.998L323 624.5V620.934C323 617.49 322.821 617.318 317.75 615.869C314.863 615.044 308.943 613.348 304.596 612.099C300.249 610.851 297.212 609.656 297.846 609.445C298.481 609.233 299 608.15 299 607.037C299 605.602 299.461 605.19 300.582 605.62C301.452 605.954 302.352 606.227 302.582 606.227C302.812 606.227 303 607.39 303 608.81C303 612.233 305.395 611.458 305.816 607.9C306.023 606.152 306.733 605.227 307.866 605.227C308.82 605.227 310.191 604.665 310.912 603.977C311.982 602.958 312.104 603.128 311.572 604.893C310.766 607.565 312.332 608.736 314.009 606.716C316.178 604.103 317.861 605.01 318.19 608.97C318.583 613.714 321.81 615.476 331.137 616.039L337.775 616.44L338.835 613.083C342.012 603.023 342.63 590.662 341.352 562.727L340.712 548.727L334.348 548.454C329.772 548.258 328.057 548.523 328.242 549.395C328.384 550.062 327.614 550.799 326.532 551.033C324.906 551.384 324.774 551.204 325.773 550C326.438 549.199 326.687 548.247 326.325 547.885C325.963 547.523 328.806 547.227 332.642 547.227C336.713 547.227 340.276 546.707 341.198 545.977C342.067 545.29 345.156 538.089 348.063 529.977L353.348 515.227L360.424 515.024C364.316 514.913 368.85 514.727 370.5 514.61C372.15 514.494 374.349 514.361 375.386 514.313C377.134 514.233 377.232 513.546 376.728 504.977C375.796 489.145 372.175 483.011 360.565 477.605C354.399 474.734 351.402 474.607 350.035 477.161ZM251.965 479.769C250.265 481.818 252.069 483.657 254.899 482.759C256.618 482.213 256.811 481.742 255.964 480.16C254.714 477.825 253.664 477.722 251.965 479.769ZM336.015 480.477C336.049 483.266 337.525 484.294 339.462 482.879C340.476 482.137 340.985 481.012 340.594 480.379C339.636 478.829 335.996 478.907 336.015 480.477ZM656.722 490.325C650.794 490.669 645.772 491.125 645.561 491.338C645.351 491.552 644.863 493.415 644.478 495.477L643.777 499.227H663.889H684V495.272C684 491.58 683.784 491.284 680.75 490.817C674.478 489.851 667.402 489.706 656.722 490.325ZM357.206 516.938C355.327 517.298 355.056 517.77 355.706 519.552C356.143 520.748 356.5 524.765 356.5 528.477V535.227H367.75C377.083 535.227 379 534.971 379 533.727C379 532.902 378.55 532.227 378 532.227C377.417 532.227 377 528.894 377 524.227V516.227L368.25 516.363C363.438 516.438 358.468 516.697 357.206 516.938ZM232.54 522.477C232.322 523.165 231.924 526.202 231.655 529.227C231.386 532.252 230.852 535.74 230.467 536.977C229.771 539.213 229.832 539.227 240.415 539.227C248.049 539.227 251.178 538.873 251.471 537.977C251.696 537.29 252.028 533.24 252.21 528.977L252.539 521.227H242.738C235.776 521.227 232.822 521.589 232.54 522.477ZM659.5 539.665C658.95 539.89 656.021 540.352 652.991 540.692C649.962 541.032 646.968 541.629 646.339 542.019C645.711 542.408 644.876 544.865 644.484 547.477L643.773 552.227L661.636 552.213C671.461 552.206 680.513 551.928 681.75 551.597C683.652 551.087 684 550.312 684 546.586C684 542.708 683.669 542.047 681.25 541.088C678.513 540.004 661.407 538.885 659.5 539.665ZM229.524 543.189C229.197 543.718 227.962 553.28 226.779 564.439C225.094 580.336 224.615 591.329 224.564 615.227C224.529 632.002 224.874 647.923 225.331 650.608L226.162 655.489L234.819 654.786C239.581 654.4 243.608 653.953 243.768 653.792C245.115 652.445 246.268 636.689 246.993 609.727C247.585 587.702 248.499 572.748 249.927 561.755C251.067 552.971 252 544.983 252 544.005C252 542.409 250.878 542.227 241.059 542.227C235.041 542.227 229.851 542.66 229.524 543.189ZM316 549.706C316 550.931 315.56 550.983 313.426 550.011C311.453 549.113 310.409 549.115 308.959 550.021C307.63 550.85 306.29 550.908 304.463 550.213C302.478 549.458 301.504 549.58 300.359 550.725C298.447 552.637 296.616 552.671 297.341 550.782C297.758 549.694 296.856 549.243 293.698 548.957C291.389 548.748 295.462 548.498 302.75 548.402C313.854 548.255 316 548.466 316 549.706ZM643.975 594.792C642.791 597.907 642.743 601.273 643.857 603.031C645.077 604.954 655.687 606.184 671.25 606.207L685 606.227V599.881V593.534L672.843 592.881C666.157 592.521 657.146 592.227 652.818 592.227C645.293 592.227 644.908 592.339 643.975 594.792ZM291 594.168C291 594.686 290.55 595.387 290 595.727C288.337 596.755 288.859 602.4 290.75 603.835C291.912 604.717 292.06 605.174 291.191 605.195C290.449 605.213 290.195 605.734 290.605 606.397C291.098 607.195 290.773 607.354 289.582 606.897C288.622 606.528 287.311 606.22 286.668 606.212C285.926 606.202 285.999 605.88 286.868 605.33C287.972 604.63 287.828 604.055 286.118 602.345C283.325 599.552 283.445 598.256 286.75 595.551C289.733 593.108 291 592.696 291 594.168ZM281.345 600.853L281.698 603.888L278.099 602.601C271.008 600.067 269.494 601.446 270.18 609.816C270.485 613.533 270.747 613.803 275.78 615.607C282.486 618.01 282.048 618.59 274.953 616.702C267.824 614.805 268 614.768 268 618.144C268 620.415 268.608 621.282 270.75 622.065L273.5 623.069L270.317 623.148C267.024 623.23 266.784 623.568 265.511 629.906C264.81 633.393 264.229 633.154 277 634.622C278.925 634.843 277.35 635.005 273.5 634.982C263.541 634.923 264 634.699 264 639.62C264 644.575 264.782 645.182 271.332 645.306C276.163 645.397 275.412 645.812 268.807 646.701C264.291 647.309 264.097 647.471 263.647 651.03C263.39 653.063 263.334 649.102 263.522 642.227C263.867 629.64 267.664 605.592 269.995 601.236C270.632 600.046 271.681 599.27 272.327 599.512C277.443 601.432 278.303 601.458 277.617 599.672C277.217 598.629 277.462 597.559 278.208 597.099C279.932 596.033 280.921 597.217 281.345 600.853ZM294.457 607.296C293.517 608.818 292.014 608.353 292.636 606.733C292.952 605.911 293.62 605.492 294.121 605.802C294.622 606.112 294.774 606.784 294.457 607.296ZM310.459 611.294C309.573 612.727 309.894 612.935 314.25 613.749C316.754 614.217 318 614.08 318 613.338C318 612.727 316.875 612.227 315.5 612.227C314.125 612.227 313 611.777 313 611.227C313 609.902 311.292 609.946 310.459 611.294ZM324.407 620.74C323.423 624.661 325.482 626.227 331.622 626.227H337V622.227V618.227H331.019C325.465 618.227 324.993 618.406 324.407 620.74ZM277.25 623.889C276.563 624.167 275.438 624.167 274.75 623.889C274.063 623.612 274.625 623.385 276 623.385C277.375 623.385 277.938 623.612 277.25 623.889ZM283.75 624.916C282.788 625.168 281.212 625.168 280.25 624.916C279.288 624.665 280.075 624.459 282 624.459C283.925 624.459 284.712 624.665 283.75 624.916ZM323.428 633.977C321.339 640.985 321.031 647.361 322.751 647.959C323.439 648.199 324.425 647.344 324.941 646.061C325.573 644.491 325.69 646.708 325.301 652.834L324.721 661.94L327.36 662.603C328.812 662.967 331.125 662.983 332.5 662.638C334.984 662.014 335 662.054 335.007 668.869C335.011 672.641 335.215 678.877 335.46 682.727C335.714 686.717 335.308 684.831 334.515 678.34C333.751 672.077 332.664 666.491 332.1 665.927C330.715 664.542 329 669.17 329 674.292C329 676.777 328.568 678.135 327.828 677.977C326.236 677.638 324.206 684.516 323.917 691.227C323.749 695.128 323.561 695.764 323.272 693.416C322.65 688.37 320.711 690.06 318.818 697.297C317.893 700.833 317.106 702.939 317.068 701.977C317.031 701.015 316.539 700.227 315.975 700.227C314.575 700.227 313.032 704.581 312.85 709.042C312.727 712.061 312.625 712.23 312.284 709.977C312.055 708.464 311.463 707.227 310.969 707.227C308.826 707.227 308 711.937 308 724.161V737.227H310.5C312.939 737.227 313.003 737.039 313.142 729.477L313.284 721.727L313.979 728.567C314.613 734.804 315.778 737.161 318.25 737.212C318.663 737.22 319.036 735.089 319.079 732.477C319.164 727.362 319.479 727.589 320.463 733.477C320.938 736.317 321.565 737.227 323.045 737.227C324.765 737.227 325.012 736.477 325.102 730.977L325.205 724.727L326.47 730.511C327.861 736.869 328.348 737.748 329.933 736.768C330.593 736.361 331.071 730.693 331.185 721.918C331.287 714.113 331.515 710.202 331.693 713.227C332.378 724.882 334.02 735.622 335.236 736.394C339.015 738.793 339.31 737.703 338.733 723.477L338.176 709.727L339.542 720.727C341.416 735.807 341.553 736.227 344.588 736.227H347.137L346.577 727.977L346.016 719.727L347.758 727.655C348.716 732.015 349.95 735.72 350.5 735.889C354.101 736.99 353.986 734.776 348.389 695.247C345.322 673.586 342.416 654.82 341.931 653.545C340.478 649.725 339.005 650.915 338.921 655.977C338.848 660.36 338.764 660.514 337.836 657.971C337.282 656.455 336.397 655.482 335.869 655.808C335.294 656.163 335.027 654.612 335.204 651.95C335.485 647.729 335.617 647.552 337.754 648.525C338.994 649.09 340.293 649.268 340.64 648.92C341.279 648.282 339.766 639.097 337.808 631.727C336.905 628.325 336.626 628.026 335.943 629.727C335.502 630.827 335.073 633.077 334.991 634.727C334.822 638.132 334.446 637.41 333.525 631.915C332.676 626.852 330.002 627.276 328.357 632.735L327.154 636.727L327.077 632.477C326.97 626.555 325.455 627.177 323.428 633.977ZM315.729 630.831C315.397 631.163 314.534 631.199 313.813 630.91C313.015 630.591 313.252 630.354 314.417 630.306C315.471 630.263 316.061 630.499 315.729 630.831ZM311.25 631.889C310.563 632.167 309.438 632.167 308.75 631.889C308.063 631.612 308.625 631.385 310 631.385C311.375 631.385 311.938 631.612 311.25 631.889ZM305.25 632.889C304.563 633.167 303.438 633.167 302.75 632.889C302.063 632.612 302.625 632.385 304 632.385C305.375 632.385 305.938 632.612 305.25 632.889ZM326.689 641.977C326.438 642.939 326.232 642.152 326.232 640.227C326.232 638.302 326.438 637.515 326.689 638.477C326.941 639.439 326.941 641.015 326.689 641.977ZM0.0149994 657.477C0.0239994 660.365 0.374 663.268 0.795 663.929C1.321 664.758 7.703 665.35 21.334 665.835L41.109 666.538L40.805 660.661L40.5 654.783L36.5 653.582C34.155 652.878 25.776 652.349 16.25 652.304L0 652.227L0.0149994 657.477ZM270.153 656.412L265.807 657.383L266.493 661.055C266.87 663.075 267.349 664.901 267.559 665.113C267.768 665.325 270.696 664.957 274.067 664.294C277.437 663.631 280.387 663.28 280.622 663.516C280.857 663.751 278.399 664.506 275.159 665.193C267.474 666.824 267.215 667.029 266.401 672.121C265.772 676.054 265.883 676.406 267.604 675.934C275.921 673.649 277.596 674.204 270 676.727C265.005 678.386 265 678.392 265 682.807C265 685.238 265.212 687.227 265.471 687.227C265.731 687.227 268.487 686.102 271.596 684.727C279.151 681.386 279.705 681.599 273.029 685.279C270.019 686.937 266.532 689.258 265.279 690.435L263 692.576V687.559C263 684.801 263.295 676.397 263.655 668.885L264.31 655.227L269.405 655.334L274.5 655.441L270.153 656.412ZM226 660.087C226 662.211 226.292 666.081 226.65 668.689L227.3 673.43L234.583 673.063C238.588 672.86 242.12 672.44 242.431 672.129C242.742 671.818 243.289 668.113 243.645 663.895L244.293 656.227H235.147H226V660.087ZM314 659.633C314 660.055 305.634 666.182 303 667.689C300.312 669.227 302.902 666.959 308.259 663.083C313.713 659.137 314 658.965 314 659.633ZM446.269 662.927C448.14 665.042 461.273 670.636 463.009 670.057C463.618 669.854 463.4 668.816 462.469 667.486C461.05 665.46 456.615 663.722 447.5 661.619C444.564 660.942 444.537 660.97 446.269 662.927ZM443.772 666.453C446.916 670.241 461.735 674.843 459.585 671.364C459.079 670.546 450.664 667.243 445.008 665.643C442.861 665.036 442.69 665.149 443.772 666.453ZM442 670.214C442 670.758 443.8 672.338 446 673.727L450 676.252V760.304C450 844.056 449.992 844.374 447.853 849.347C445.909 853.865 445.821 854.849 446.918 859.751C447.584 862.729 448.986 866.192 450.032 867.446L451.933 869.727L451.967 862.084C451.991 856.394 452.366 854.3 453.433 853.891C454.882 853.335 455.072 853.871 456.478 862.477C457.16 866.651 459.42 867.522 460.37 863.977C461.628 859.283 460.925 853.773 458.413 848.64C455.283 842.242 455.404 846.77 455.75 748.977C455.969 686.866 456.183 678.227 457.5 678.227C459.325 678.227 459.449 676.84 457.75 675.449C456.375 674.324 444.151 669.227 442.828 669.227C442.372 669.227 442 669.671 442 670.214ZM225.493 679.275C223.875 691.044 225.031 704.909 228.596 716.477C229.055 717.967 228.456 718.227 224.567 718.227H220V721.842V725.457L225.626 724.755L231.252 724.052L230.662 729.389C230.338 732.325 229.777 739.115 229.417 744.477C228.699 755.166 228.523 754.872 234.875 753.602L238 752.977V739.008V725.039L243 725.727L248 726.415V722.233V718.051L243.972 718.732L239.943 719.412L243.403 713.57C245.793 709.534 247.39 707.828 248.567 708.052C250.103 708.345 250.203 707.592 249.578 700.425C248.77 691.169 246.952 683.687 244.238 678.448L242.31 674.727L234.254 674.438L226.198 674.149L225.493 679.275ZM318 685.605C318 685.812 317.212 686.6 316.25 687.355C314.664 688.598 314.629 688.563 315.872 686.977C317.179 685.311 318 684.782 318 685.605ZM295.931 692.977C293.554 695.589 290.909 698.133 290.054 698.628C289.199 699.124 286.475 701.389 284 703.662C281.525 705.935 275.812 710.593 271.304 714.015C266.796 717.436 262.409 721.233 261.554 722.453L260 724.672L260.021 722.2C260.037 720.269 261.407 718.856 266.271 715.754C272.444 711.817 293.739 694.442 297.405 690.352C298.453 689.183 299.523 688.227 299.782 688.227C300.042 688.227 298.309 690.365 295.931 692.977ZM336.707 696.465C336.468 697.709 336.263 696.927 336.252 694.727C336.241 692.527 336.437 691.509 336.687 692.465C336.937 693.421 336.946 695.221 336.707 696.465ZM313 692.605C313 692.812 312.212 693.6 311.25 694.355C309.664 695.598 309.629 695.563 310.872 693.977C312.179 692.311 313 691.782 313 692.605ZM266.316 699.67C269.215 698.268 269.321 698.27 267.5 699.698C266.4 700.56 264.712 701.927 263.75 702.736C262.125 704.103 262.011 703.905 262.15 699.967C262.255 696.998 262.424 696.549 262.715 698.469C263.128 701.188 263.158 701.198 266.316 699.67ZM337.706 706.477C337.467 707.714 337.272 706.702 337.272 704.227C337.272 701.752 337.467 700.74 337.706 701.977C337.944 703.214 337.944 705.24 337.706 706.477ZM324.725 709.459C324.502 711.256 324.315 710.027 324.31 706.727C324.304 703.427 324.486 701.956 324.715 703.459C324.943 704.962 324.947 707.662 324.725 709.459ZM344.693 708.958C344.439 709.931 344.215 709.377 344.195 707.727C344.175 706.077 344.382 705.281 344.656 705.958C344.93 706.635 344.947 707.985 344.693 708.958ZM2.75 706.916C-0.0469999 707.647 0.297 715.781 3.191 717.329C5.882 718.769 34.09 717.985 38.25 716.354C40.686 715.4 41 714.76 41 710.752V706.227L22.75 706.343C12.712 706.407 3.712 706.665 2.75 706.916ZM345.689 717.977C345.438 718.939 345.232 718.152 345.232 716.227C345.232 714.302 345.438 713.515 345.689 714.477C345.941 715.439 345.941 717.015 345.689 717.977ZM303.085 715.625C302.331 716.533 302.026 720.466 302.213 726.863C302.459 735.305 302.749 736.751 304.25 737.039C305.835 737.342 306 736.283 306 725.8C306 714.541 305.483 712.735 303.085 715.625ZM296.667 720.894C296.3 721.26 296 724.549 296 728.203C296 735.422 297.857 739.721 300.045 737.565C301.659 735.975 300.313 720.227 298.563 720.227C297.886 720.227 297.033 720.527 296.667 720.894ZM290.96 727.302C290.371 728.403 290.026 731.199 290.194 733.515C290.448 737.009 290.883 737.781 292.75 738.047C294.867 738.347 295 738.015 295 732.404C295 725.944 293.023 723.448 290.96 727.302ZM285.2 729.427C284.54 730.087 284 732.337 284 734.427C284 737.864 284.251 738.227 286.631 738.227C289.114 738.227 289.227 738.017 288.642 734.477C288.301 732.415 288.017 730.165 288.011 729.477C287.997 727.896 286.753 727.874 285.2 729.427ZM279 735.227C279 738.47 279.057 738.526 281.418 737.62C283.822 736.697 283.476 732.227 281 732.227C279.444 732.227 279 732.894 279 735.227ZM265.665 736.723C258.937 738.588 258.799 739.208 265.083 739.345L270.5 739.462L265.8 740.255C260.075 741.22 258.152 742.212 260.122 743.185C261.592 743.912 333.58 741.842 345.743 740.724C349.727 740.357 353.286 739.573 353.652 738.981C354.126 738.214 342.635 738.106 313.763 738.606C275.489 739.268 273.217 739.209 273.354 737.556C273.543 735.283 271.616 735.074 265.665 736.723ZM275 736.727C275 737.552 275.45 738.227 276 738.227C276.55 738.227 277 737.552 277 736.727C277 735.902 276.55 735.227 276 735.227C275.45 735.227 275 735.902 275 736.727ZM284.232 744.355C253.305 745.613 252.671 747.033 283 747.116C314.445 747.201 353.991 745.636 355.377 744.25C356.594 743.033 315.263 743.094 284.232 744.355ZM320.75 748.916C318.429 749.523 318.51 750.185 321.872 758.086C325.846 767.424 327.491 773.514 330.421 789.727C334.511 812.357 339.9 826.201 353.222 848.301C363.419 865.218 364.147 867.562 364.887 885.872C365.679 905.448 365.909 905.791 377.5 904.69C381.9 904.272 401.25 904.041 420.5 904.176C449.548 904.38 455.819 904.18 457.377 902.995C458.937 901.809 459.058 901.203 458.091 899.398C457.077 897.502 456.078 897.226 450.215 897.219C435.359 897.203 419.857 893.077 403.068 884.673C395.736 881.002 391.214 878.063 389.557 875.89C385.251 870.246 381.937 861.3 377.444 843.202C375.051 833.563 371.027 818.488 368.502 809.702C362.525 788.91 362.405 788.321 360.557 770.727C359.69 762.477 358.721 754.04 358.403 751.977L357.824 748.227L340.162 748.343C330.448 748.407 321.712 748.665 320.75 748.916ZM259.297 750.927C258.086 751.161 256.865 752.113 256.584 753.04C246.105 787.634 242.813 812.889 245.154 840.727C246.71 859.224 246.848 874.893 245.601 891.367C244.507 905.818 244.155 905.484 259.05 904.142C264.897 903.615 283.156 903.486 300.5 903.848C327.521 904.413 331.981 904.293 335.25 902.913C339.364 901.175 339.666 900.52 337.634 897.741C336.469 896.148 334.303 895.771 322.884 895.174C307.46 894.368 306.404 894.04 287.779 884.277C270.527 875.234 269 873.574 269 863.862C269 855.547 270.636 841.786 274.899 814.227C278.347 791.945 279.024 789.403 286.426 770.955C289.405 763.533 292.291 755.832 292.84 753.843L293.839 750.227L277.669 750.363C268.776 750.438 260.509 750.692 259.297 750.927ZM1 763.119C1 766.514 1.345 767.097 3.706 767.689C7.079 768.536 29.876 768.518 35.569 767.664C39.269 767.109 39.864 766.659 40.395 764.004C40.728 762.339 41 760.583 41 760.102C41 759.621 32 759.227 21 759.227H1V763.119ZM1.56 814.845C1.198 816.285 1.065 817.626 1.264 817.824C1.935 818.495 24.438 820.21 32.683 820.218C40.122 820.226 40.926 820.036 41.532 818.126C41.899 816.971 41.816 815.682 41.349 815.262C39.241 813.367 29.97 812.227 16.666 812.227H2.217L1.56 814.845ZM1.61 867.801C0.291001 871.238 3.328 871.97 22.085 872.73C31.993 873.132 40.284 873.276 40.51 873.05C40.736 872.825 40.675 871.699 40.374 870.55C39.68 867.895 36.875 867.409 17.414 866.574C3.263 865.968 2.284 866.043 1.61 867.801ZM22 919.33C5.637 920.243 1 920.893 1 922.272C1 923.615 35.139 923.506 38.685 922.152C41.4 921.116 41.431 921.027 39.559 919.652C38.491 918.868 37.366 918.293 37.059 918.374C36.751 918.455 29.975 918.885 22 919.33ZM1.015 971.349C1.058 975.218 2.496 975.596 21.006 976.606C36.444 977.448 39.289 977.382 40.062 976.162C42.56 972.213 39.982 971.537 19.25 970.705C4.057 970.094 1.003 970.202 1.015 971.349ZM1 1026.11C1 1029.97 2.079 1030.21 22.606 1030.92L39.713 1031.51L40.405 1028.75C40.786 1027.23 40.912 1025.81 40.685 1025.58C39.943 1024.84 19.707 1023.3 10.25 1023.26L1 1023.23V1026.11ZM10.18 1075.2C6.154 1075.66 2.706 1076.19 2.519 1076.38C2.332 1076.57 1.863 1078.42 1.478 1080.48L0.777 1084.23H20.889H41V1080.33C41 1077.55 40.501 1076.25 39.25 1075.77C36.376 1074.66 18.041 1074.3 10.18 1075.2ZM8.601 1126.27C5.356 1126.78 2.564 1127.33 2.396 1127.5C2.229 1127.67 1.79 1129.69 1.422 1131.99C0.814001 1135.79 0.971999 1136.26 3.126 1136.99C4.432 1137.44 13.28 1137.56 22.788 1137.27C36.647 1136.83 40.264 1136.43 41.023 1135.23C42.374 1133.09 42.218 1129.91 40.656 1127.77C39.498 1126.19 37.586 1125.89 26.906 1125.64C20.083 1125.48 11.845 1125.76 8.601 1126.27ZM475.083 1137.49C475.313 1137.63 476.481 1138.57 477.68 1139.58C479.814 1141.37 479.849 1141.37 479.314 1139.32C478.983 1138.06 477.956 1137.23 476.717 1137.23C475.589 1137.23 474.854 1137.34 475.083 1137.49ZM609.5 1138.23C612.263 1139.41 614 1139.41 614 1138.23C614 1137.68 612.538 1137.26 610.75 1137.3C608.026 1137.36 607.824 1137.51 609.5 1138.23ZM613.583 1142.09C613.152 1142.79 613.07 1143.63 613.4 1143.96C614.295 1144.86 615.271 1143.54 614.787 1142.09C614.449 1141.07 614.213 1141.07 613.583 1142.09ZM480.252 1145.73C480.263 1147.93 480.468 1148.71 480.707 1147.47C480.946 1146.22 480.937 1144.42 480.687 1143.47C480.437 1142.51 480.241 1143.53 480.252 1145.73ZM571.015 1142.98C571.006 1143.75 569.388 1144.29 566.75 1144.39C562.7 1144.54 562.664 1144.57 565.991 1144.97C567.911 1145.2 569.711 1145.74 569.991 1146.16C570.271 1146.58 574.1 1146.43 578.5 1145.83L586.5 1144.73L579.528 1144.43C575.51 1144.25 572.232 1143.62 571.793 1142.93C571.21 1142.01 571.027 1142.02 571.015 1142.98ZM602.705 1143.56C601.584 1146.47 601.879 1148.88 603.524 1150.25C605.808 1152.14 606.116 1151.07 604.693 1146.16C603.698 1142.73 603.25 1142.14 602.705 1143.56ZM678.015 1142.98C678.006 1143.76 676.42 1144.27 673.75 1144.33L669.5 1144.43L672.75 1145.47C674.922 1146.17 676 1147.15 676 1148.43C676 1149.48 676.45 1150.07 677 1149.73C677.55 1149.39 678 1148.24 678 1147.17C678 1145.44 678.806 1145.21 685.25 1145.03L692.5 1144.84L686.026 1144.48C682.465 1144.28 679.21 1143.58 678.791 1142.92C678.211 1142.01 678.027 1142.02 678.015 1142.98ZM478.605 1153.48C477.804 1157.11 477.631 1157.23 473.139 1157.44C470.587 1157.55 466.925 1157.74 465 1157.86C463.075 1157.97 458.575 1158.15 455 1158.25C448.558 1158.43 448.536 1158.44 452.5 1159.42C454.7 1159.96 461.304 1160.15 467.176 1159.84C475.091 1159.43 477.98 1159.6 478.347 1160.51C478.73 1161.45 478.86 1161.44 478.921 1160.48C478.964 1159.79 479.788 1159.22 480.75 1159.21C481.907 1159.2 482.102 1158.94 481.324 1158.45C480.678 1158.04 479.988 1155.91 479.791 1153.71L479.433 1149.73L478.605 1153.48ZM674.073 1154.93C673.239 1157.94 673.351 1158.96 674.681 1160.43C675.577 1161.42 676.803 1162.21 677.405 1162.2C678.007 1162.18 677.699 1161.56 676.719 1160.81C675.297 1159.73 675.071 1158.63 675.597 1155.34C676.416 1150.22 675.445 1149.96 674.073 1154.93ZM567.606 1156.29C566.892 1160.75 567.376 1162.23 569.559 1162.23C571.364 1162.23 571.419 1160.82 569.67 1159.37C568.884 1158.72 568.522 1157.03 568.784 1155.25C569.028 1153.59 569.008 1152.23 568.741 1152.23C568.474 1152.23 567.963 1154.05 567.606 1156.29ZM598.5 1153.23C598.16 1153.78 598.359 1154.23 598.941 1154.23C599.523 1154.23 600 1153.78 600 1153.23C600 1152.68 599.802 1152.23 599.559 1152.23C599.316 1152.23 598.84 1152.68 598.5 1153.23ZM656.646 1157.68C655.191 1159.03 654 1160.88 654 1161.79C654 1162.84 653.46 1163.23 652.51 1162.87C651.524 1162.49 650.869 1163.05 650.573 1164.51C650.327 1165.73 649.864 1167.96 649.544 1169.48C648.668 1173.62 649.831 1172.79 652 1167.73C653.061 1165.25 654.507 1163.21 655.214 1163.19C660.678 1163.02 667.345 1162.21 667.867 1161.65C668.215 1161.28 666.25 1161.29 663.5 1161.68L658.5 1162.4L661.946 1158.81L665.392 1155.23H662.342C660.491 1155.23 658.252 1156.19 656.646 1157.68ZM495.566 1157.12C495.262 1157.61 496.135 1157.95 497.506 1157.87C498.877 1157.79 499.999 1157.39 499.999 1156.98C500 1155.92 496.233 1156.04 495.566 1157.12ZM512.5 1157.23C512.84 1157.78 513.316 1158.23 513.559 1158.23C513.802 1158.23 514 1157.78 514 1157.23C514 1156.68 513.523 1156.23 512.941 1156.23C512.359 1156.23 512.16 1156.68 512.5 1157.23ZM533.036 1157.68C530.974 1160.17 532.796 1161.38 536.057 1159.7C537.676 1158.86 539 1157.74 539 1157.2C539 1155.68 534.386 1156.06 533.036 1157.68ZM553.395 1157.4C552.895 1158.21 553.239 1158.35 554.506 1157.86C555.603 1157.44 556.667 1157.67 557.155 1158.44C557.754 1159.39 557.973 1159.26 557.985 1157.98C558.002 1155.98 554.539 1155.55 553.395 1157.4ZM618.089 1158.48C617.494 1160.06 617.656 1160.97 618.634 1161.53C619.72 1162.16 619.173 1163.37 616.132 1167.03C610.982 1173.24 609.703 1175.91 610.448 1178.88C610.947 1180.86 611.497 1181.21 613.283 1180.68C616.387 1179.76 617.615 1177.9 620.116 1170.33C621.315 1166.7 622.568 1163.5 622.898 1163.23C623.229 1162.95 623.594 1161.26 623.71 1159.48C623.894 1156.62 623.615 1156.23 621.428 1156.23C619.761 1156.23 618.655 1156.97 618.089 1158.48ZM641.226 1157.48C639.418 1159.7 638.052 1166.14 639.234 1166.87C640.939 1167.93 643 1164.18 643 1160.04C643 1155.9 642.774 1155.58 641.226 1157.48ZM650.727 1157.64C649.044 1158.91 649.054 1159.01 650.919 1159.5C653.125 1160.07 654 1159.52 654 1157.56C654 1155.89 653 1155.91 650.727 1157.64ZM508.513 1158.21C507.674 1159.56 509.734 1162.23 511.622 1162.23C513.55 1162.23 513.338 1160.84 511.099 1158.82C509.798 1157.64 508.983 1157.45 508.513 1158.21ZM522 1158.67C522 1159.46 522.45 1160.39 523 1160.73C523.55 1161.07 524 1160.42 524 1159.29C524 1158.15 523.55 1157.23 523 1157.23C522.45 1157.23 522 1157.88 522 1158.67ZM546.476 1158.27C545.518 1159.82 547.214 1161.33 548.806 1160.35C549.837 1159.71 549.803 1159.31 548.636 1158.34C547.559 1157.45 546.995 1157.43 546.476 1158.27ZM630.5 1158.23C630.16 1158.78 630.421 1159.23 631.081 1159.23C631.74 1159.23 632.861 1160.01 633.572 1160.98C634.608 1162.38 635.117 1162.48 636.133 1161.48C637.08 1160.54 637.097 1160.23 636.2 1160.23C635.54 1160.23 635 1159.55 635 1158.73C635 1157.06 631.467 1156.66 630.5 1158.23ZM490 1159.85C490 1160.55 490.825 1160.82 492 1160.52C493.1 1160.23 494 1159.62 494 1159.17C494 1158.72 493.1 1158.42 492 1158.5C490.9 1158.59 490 1159.19 490 1159.85ZM500.229 1160.41C500.727 1161.91 503 1162.73 503 1161.42C503 1160.88 502.287 1160.17 501.416 1159.83C500.443 1159.46 499.985 1159.68 500.229 1160.41ZM516.5 1160.23C516.16 1160.78 516.332 1161.23 516.882 1161.23C517.432 1161.23 518.16 1160.78 518.5 1160.23C518.84 1159.68 518.668 1159.23 518.118 1159.23C517.568 1159.23 516.84 1159.68 516.5 1160.23ZM669 1160.29C669 1160.87 669.45 1161.07 670 1160.73C670.55 1160.39 671 1159.91 671 1159.67C671 1159.43 670.55 1159.23 670 1159.23C669.45 1159.23 669 1159.7 669 1160.29ZM593.195 1164.73C593.215 1166.38 593.439 1166.93 593.693 1165.96C593.947 1164.99 593.93 1163.64 593.656 1162.96C593.382 1162.28 593.175 1163.08 593.195 1164.73ZM594.638 1169.73C594.955 1170.55 595.896 1171.23 596.729 1171.23C597.963 1171.23 598.013 1170.95 597 1169.73C596.315 1168.9 595.374 1168.23 594.909 1168.23C594.444 1168.23 594.322 1168.9 594.638 1169.73ZM599.25 1172.92C600.212 1173.17 601.788 1173.17 602.75 1172.92C603.712 1172.67 602.925 1172.46 601 1172.46C599.075 1172.46 598.288 1172.67 599.25 1172.92ZM1 1182.63C1 1187.81 1.134 1188.08 4.25 1189.24C8.224 1190.73 27.149 1191.73 33.41 1190.79C39.312 1189.91 41 1188.13 41 1182.8V1178.52L34.25 1177.88C30.537 1177.53 21.538 1177.24 14.25 1177.23L1 1177.23V1182.63ZM629.047 1178.73C629.023 1180.21 630.808 1182.75 631.435 1182.12C631.735 1181.83 631.323 1180.71 630.521 1179.65C629.72 1178.59 629.056 1178.18 629.047 1178.73ZM52.098 1221.38C50.868 1224.9 50.603 1254.06 51.784 1255.91C52.198 1256.56 54.822 1257.4 57.614 1257.77L62.691 1258.44L63.338 1251.59C63.694 1247.81 63.989 1238.76 63.993 1231.48L64 1218.23H58.598C53.438 1218.23 53.146 1218.37 52.098 1221.38ZM104 1224.57C104 1228.06 104.295 1237.06 104.655 1244.57L105.31 1258.23H109.62C115.954 1258.23 116.382 1256.87 115.74 1238.79C115.446 1230.5 114.72 1222.49 114.127 1220.98C113.173 1218.54 112.533 1218.23 108.525 1218.23H104V1224.57ZM157 1238.12V1258.23H160.893C163.52 1258.23 164.983 1257.71 165.393 1256.65C166.261 1254.38 166.116 1221.96 165.232 1220.57C164.827 1219.93 162.809 1219.09 160.748 1218.71L157 1218V1238.12ZM211.565 1220.48C210.479 1224.13 209.615 1257.23 210.605 1257.24C211.097 1257.25 212.45 1257.51 213.612 1257.82C215.073 1258.21 215.937 1257.83 216.414 1256.59C218.021 1252.4 218.962 1239.02 218.354 1229L217.699 1218.23H214.966C212.997 1218.23 212.046 1218.86 211.565 1220.48ZM265.84 1220.98C265.229 1222.49 264.51 1231.2 264.241 1240.32C263.785 1255.79 263.878 1256.97 265.6 1257.63C268.772 1258.84 269.66 1255.84 270.344 1241.59C271.406 1219.45 271.335 1218.23 268.975 1218.23C267.702 1218.23 266.538 1219.25 265.84 1220.98ZM318.18 1237.4C318.356 1248.21 318.862 1257.43 319.304 1257.87C321.12 1259.68 321.966 1255.07 321.9 1243.73C321.817 1229.33 320.846 1220.67 319.127 1218.97C318.105 1217.97 317.922 1221.53 318.18 1237.4ZM370.12 1220.48C369.663 1221.71 369.01 1230.71 368.669 1240.48C368.033 1258.68 368.213 1259.65 371.814 1257.36C373.362 1256.38 374.933 1242.07 374.973 1228.58C374.995 1221.15 374.704 1219.33 373.418 1218.83C371.13 1217.96 371.033 1218 370.12 1220.48ZM422.646 1222.79C422.302 1225.3 421.721 1234.3 421.355 1242.79L420.689 1258.23H423.738C425.697 1258.23 427.046 1257.6 427.513 1256.48C427.913 1255.51 428.47 1246.81 428.751 1237.13L429.261 1219.53L426.881 1218.89C425.571 1218.54 424.224 1218.25 423.886 1218.24C423.548 1218.23 422.99 1220.28 422.646 1222.79ZM473.438 1221.71C472.717 1225.55 473.204 1255.77 474 1256.56C474.275 1256.83 476.188 1257.36 478.25 1257.75L482 1258.45V1238.34V1218.23H478.045C474.322 1218.23 474.052 1218.43 473.438 1221.71ZM523.917 1220.94C522.048 1225.86 521.823 1235.56 523.336 1246.06C524.155 1251.74 524.977 1256.53 525.162 1256.71C525.348 1256.89 527.638 1257.36 530.25 1257.75L535 1258.45L534.986 1240.59C534.979 1230.77 534.701 1221.71 534.37 1220.48C533.86 1218.58 533.085 1218.23 529.359 1218.23C525.483 1218.23 524.826 1218.56 523.917 1220.94ZM575.654 1230.38C575.294 1237.07 575 1246.09 575 1250.43V1258.33L580.654 1258.03C586.261 1257.73 586.319 1257.69 587.725 1253.73C588.769 1250.78 589.054 1245.94 588.805 1235.39C588.421 1219.08 588.009 1218.23 580.463 1218.23H576.307L575.654 1230.38Z" fill="black"/>
</svg>
