<svg width="736" height="848" viewBox="0 0 736 848" fill="none" xmlns="http://www.w3.org/2000/svg">
<path d="M287 93C288.268 96.8025 287.661 99.2255 287.062 103.188C281.768 143.982 293.024 200.536 316 235C320.779 233.805 323.447 231.697 327.438 228.812C336.635 222.398 346.568 216.039 358 215C360.369 216.269 362.703 217.605 365 219C371.57 219.63 373.92 219.04 380 216C387.38 214.155 394.984 218.384 401.492 221.871C408.035 225.82 413.967 230.308 420 235C421.32 235.33 422.64 235.66 424 236C424.66 234.35 425.32 232.7 426 231C427.225 228.29 428.455 225.582 429.688 222.875C447.054 183.573 456.11 141.239 452.418 98.2188C452.211 95.6355 452.211 95.6355 452 93C454.686 90.3139 460.779 90.9661 464.312 90.8125C477.25 91.33 477.25 91.33 483.125 96.9375C487.178 102.232 491.174 107.54 495 113C495.869 114.219 496.738 115.439 497.633 116.695C504.051 125.831 509.693 135.183 515 145C515.965 146.696 515.965 146.696 516.949 148.426C542.462 194.12 542.462 194.12 536.582 215.047C535.998 216.929 535.414 218.811 534.812 220.75C531.103 233.235 528.259 245.783 525.695 258.548C525.031 261.845 524.344 265.137 523.656 268.43C520.688 283.072 518.63 297.719 516.895 312.547C514.57 332.289 514.57 332.289 513 337C514.684 341.119 516.461 345.144 518.312 349.188C543.373 405.52 570.536 472.53 577.27 534.453C578.093 538.454 579.706 540.665 582 544C582.961 549.764 583.17 551.811 581 557C576.49 561.95 572.4 562.653 566 564C541.513 574.674 525.682 595.529 512.473 617.848C485.109 663.8 451.333 696.961 403.59 721.273C402.498 721.84 401.406 722.406 400.281 722.989C397.134 724.618 393.973 726.222 390.812 727.824C385.808 730.466 385.808 730.466 384.562 734.645C384.377 735.752 384.191 736.859 384 738C382.68 739.32 381.36 740.64 380 742C379.34 743.98 378.68 745.96 378 748C373 752 373 752 367 752C363.688 750.438 363.688 750.438 361 748C360.125 744.25 360.125 744.25 360 741C358.68 740.34 357.36 739.68 356 739C355 737 355 737 355 731C353.35 730.34 351.7 729.68 350 729C314.651 711.391 280.93 691.24 256 660C254.742 658.474 253.484 656.947 252.187 655.375C244.931 646.061 237.861 636.59 232.125 626.25C223.668 611.02 213.809 596.808 202 584C200.36 582.144 200.36 582.144 198.687 580.25C188.738 571.481 177.959 565.143 165.125 561.688C161 560 161 560 158.437 556.812C156.794 552.454 156.413 549.621 157 545C157.637 544.114 158.274 543.229 158.93 542.316C161.52 538.167 161.928 534.843 162.625 530C170.817 481.856 187.727 434.522 205 389C205.795 386.879 206.591 384.759 207.41 382.574C208.224 380.425 209.037 378.276 209.875 376.062C210.691 373.903 211.507 371.744 212.348 369.52C214.089 365.08 216.029 360.828 218.184 356.574C225.7 341.576 226.582 332.262 223 316C222.564 312.622 222.131 309.243 221.741 305.859C218.091 274.593 212.051 242.746 202.301 212.777C195.809 188.935 217.753 156.07 229 136C231.833 131.206 234.835 126.581 238 122C239.011 120.537 240.021 119.074 241.062 117.566C258.557 92.7891 258.557 92.7891 265.477 91.2031C272.992 90.7699 279.827 90.4495 287 93ZM459 100C459.24 102.61 459.24 102.61 459.484 105.273C462.087 139.229 457.917 173.412 445 205C444.319 206.698 443.639 208.395 442.938 210.145C436.911 224.727 429.969 238.975 421 252C421.289 250.989 421.577 249.979 421.875 248.938C422.371 244.891 422.371 244.891 419.875 241.625C410.006 232.393 396.816 222.935 383.062 221.625C378.905 221.722 378.905 221.722 375.438 224.062C371.26 226.417 369.555 226.265 365 225C363.35 224.01 361.7 223.02 360 222C349.855 220.34 339.891 226.581 331.625 231.875C326.551 235.596 322.273 239.398 318 244C318.33 246.64 318.66 249.28 319 252C300.402 224.257 287.341 193.06 282 160C281.457 156.73 281.457 156.73 280.902 153.395C279.501 142.654 279.787 131.873 279.875 121.062C279.884 118.936 279.893 116.81 279.902 114.619C279.926 109.413 279.959 104.206 280 99C270.741 98.3543 270.741 98.3543 263 103C253.588 114.773 245.186 127.355 237 140C236.295 141.082 235.59 142.163 234.863 143.277C214.112 175.473 214.112 175.473 209 212C209.571 214.412 210.191 216.812 210.855 219.199C211.228 220.557 211.6 221.915 211.983 223.314C212.381 224.758 212.778 226.201 213.187 227.688C221.486 258.603 226.655 289.684 230.545 321.45C231.403 328.964 231.403 328.964 234 336C232.771 338.771 231.542 341.542 230.312 344.312C229.628 345.856 228.944 347.399 228.238 348.988C226.731 352.363 225.201 355.728 223.648 359.082C198.313 415.695 175.632 479.219 168 541C166.35 541.99 164.7 542.98 163 544C161.553 546.522 161.553 546.522 162 552C163.937 555.02 163.937 555.02 167 557C169.31 557 171.62 557 174 557C204.104 566.633 220.272 595.647 235.82 620.891C242.09 630.965 248.566 640.742 256 650C257.732 652.258 257.732 652.258 259.5 654.562C262.876 658.843 266.293 663.002 270 667C270.66 667 271.32 667 272 667C272.66 668.32 273.32 669.64 274 671C288.541 686.778 307.453 699.437 326 710C329.167 711.832 332.334 713.666 335.5 715.5C337.087 716.414 338.674 717.328 340.309 718.27C345.985 721.573 351.596 724.979 357.191 728.418C359.753 730.164 359.753 730.164 362 730C362 731.98 362 733.96 362 736C362.99 737.32 363.98 738.64 365 740C365.66 740 366.32 740 367 740C366.01 742.475 366.01 742.475 365 745C365.99 745.99 366.98 746.98 368 748C369.65 747.67 371.3 747.34 373 747C374.453 742.395 374.453 742.395 373 740C373.99 739.67 374.98 739.34 376 739C378.464 735.749 378.464 735.749 379 730C380.774 728.989 382.548 727.979 384.375 726.938C385.642 726.212 386.909 725.486 388.215 724.738C390.799 723.259 393.384 721.782 395.973 720.31C419.532 706.917 442.442 692.986 462 674C463.252 672.788 464.503 671.577 465.793 670.328C472.694 663.543 479.197 656.77 485 649C486.092 647.54 486.092 647.54 487.207 646.051C496.181 633.801 504.182 620.872 512.105 607.926C525.179 586.701 541.1 564.739 566 557C567.629 556.835 569.259 556.67 570.938 556.5C572.278 556.335 573.619 556.17 575 556C578.6 552.033 578.6 552.033 578 546C574.58 542.158 574.58 542.158 572 541C571.732 539.278 571.464 537.556 571.188 535.781C560.939 472.044 539.548 407.315 511.66 349.117C510.906 347.511 510.152 345.905 509.375 344.25C508.681 342.811 507.988 341.373 507.273 339.891C506 336 506 336 508 330C508.64 325.48 509.217 320.97 509.75 316.438C513.892 283.182 519.122 250.035 529 217.938C535.465 196.59 521.896 173.836 512.02 155.34C503.677 140.587 493.905 126.734 484 113C483.135 111.721 482.27 110.442 481.379 109.125C476.349 101.892 476.349 101.892 468.5 98.1875C463.27 97.6737 463.27 97.6737 459 100Z" fill="black"/>
<path d="M265 120C265.33 120 265.66 120 266 120C266.11 122.017 266.219 124.035 266.332 126.113C268.98 172.438 279.9 229.9 314.188 264.188C317.302 266.457 317.302 266.457 323 267C325.027 269.605 325.027 269.605 326.938 273.188C336.169 289.561 346.955 307.134 359.773 321C362 324 362 324 362 330C369.611 330.343 369.611 330.343 377 329C377.206 327.989 377.413 326.979 377.625 325.938C379.279 321.202 381.715 318.801 385 315C394.616 301.779 403.57 288.171 412.207 274.297C416.01 268.447 417.212 267.263 424 265C455.925 237.702 469.111 180.304 472.695 140.777C473.138 133.831 473.129 126.958 473 120C483.089 130.089 485.017 149.585 485.375 163.25C484.749 188.861 477.474 213.831 463.375 235.312C459.738 241.442 459.742 241.643 461 248C461.862 264.96 460.305 282.187 456.25 298.688C454.173 307.515 457.884 312.856 462.063 320.375C463.258 322.557 464.453 324.74 465.648 326.922C467.527 330.329 469.407 333.736 471.289 337.141C477.112 347.827 482.143 358.845 487 370C487.975 372.231 487.975 372.231 488.969 374.508C498.648 398.203 488.134 423.881 478.725 446.306C476.506 451.547 474.258 456.775 472 462C470.625 462.28 469.249 462.559 467.832 462.848C451.068 466.845 438.231 480.92 429.465 495.102C414.107 521.655 407.905 554.725 408 585.25C406.638 594.443 402.259 599.382 396 606C395.242 606.915 394.484 607.83 393.703 608.773C387.149 614.172 378.133 613.27 370.063 613.25C368.032 613.255 366.002 613.26 363.91 613.266C349.695 612.627 349.695 612.627 343.313 606.5C341.889 604.685 340.466 602.87 339 601C337.68 599.556 336.36 598.112 335 596.625C331.266 589.624 331.297 584.358 331.152 576.527C330.191 541.65 321.292 501.214 295.125 476.312C285.54 468.56 285.54 468.56 274.188 464.25C268 462 268 462 265.426 457.109C264.625 455.093 263.825 453.077 263 451C262.175 449.061 261.35 447.122 260.5 445.125C241.911 399.581 241.911 399.581 248.652 378.941C254.053 366.228 259.917 353.806 266.063 341.438C266.806 339.941 267.549 338.444 268.314 336.903C272.61 328.38 277.187 320.153 282.248 312.059C285.46 306.451 284.777 303.292 283.188 297.25C280.519 286.215 278.779 275.937 279.27 264.547C279.862 249.238 280.088 238.614 271.035 225.578C256.027 202.94 251.247 171.025 256.199 144.602C258.407 135.914 260.745 127.919 265 120ZM363 335C363.33 336.65 363.66 338.3 364 340C367.96 340 371.92 340 376 340C376.33 338.35 376.66 336.7 377 335C372.662 333.554 367.194 332.903 363 335ZM361.25 346.562C357.437 352.388 357.609 357.118 359 363.812C361.404 370.048 364.495 375.313 368 381C357.375 380.25 357.375 380.25 354 378C353.01 378 352.02 378 351 378C350.914 380.665 350.919 383.335 351 386C351.66 386.66 352.32 387.32 353 388C354.32 387.01 355.64 386.02 357 385C360.656 384.563 364.325 384.219 368 384C367.89 389.896 367.76 395.792 367.625 401.688C367.579 404.2 367.579 404.2 367.531 406.764C367.493 408.372 367.454 409.98 367.414 411.637C367.383 413.119 367.351 414.601 367.319 416.128C367 420 367 420 365 425C368.3 425 371.6 425 375 425C374.34 423.68 373.68 422.36 373 421C371.436 417.873 371.89 414.842 371.902 411.367C371.906 409.84 371.909 408.312 371.912 406.738C371.921 405.133 371.929 403.529 371.938 401.875C371.942 400.262 371.947 398.65 371.951 396.988C371.963 392.992 371.98 388.996 372 385C375.664 384.871 379.335 384.879 383 385C383.99 385.99 384.98 386.98 386 388C386.66 388 387.32 388 388 388C388 384.7 388 381.4 388 378C384.257 378.571 384.257 378.571 383 380C379.337 380.37 375.67 380.705 372 381C372.928 379.35 373.856 377.7 374.813 376C379.507 367.164 381.826 361.15 381 351C378.414 345.43 376.801 344.9 371 342C366.816 342 364.176 343.836 361.25 346.562ZM466 412C464.35 413.32 462.7 414.64 461 416C457.445 417.686 453.856 419.301 450.25 420.875C441.068 424.969 432.201 429.449 423.438 434.375C422.398 434.957 421.359 435.54 420.288 436.14C409.894 441.468 409.894 441.468 403.125 450.312C401.696 457.536 401.264 464.652 401 472C403.235 469.011 403.235 469.011 404 465C405.98 464.34 407.96 463.68 410 463C412.88 461.887 415.754 460.76 418.625 459.625C423.962 457.525 429.266 455.552 434.75 453.875C444.086 450.541 447.367 445.662 452 437C452.959 434.123 452.959 434.123 453.938 431.188C456.234 425.411 457.928 424.26 463 421C465.424 417.366 465.424 417.366 467 414C466.505 413.01 466.505 413.01 466 412ZM273 413C275.773 420.384 275.773 420.384 282 425C282.66 425 283.32 425 284 425C284.186 426.237 284.371 427.475 284.563 428.75C287.204 438.396 291.901 446.129 300 452C304.05 453.661 308.163 455.171 312.313 456.562C333.932 463.865 333.932 463.865 338 472C339.262 468.216 338.734 465.695 338.188 461.75C337.93 459.824 337.93 459.824 337.668 457.859C337.448 456.586 337.227 455.312 337 454C336.747 452.244 336.747 452.244 336.488 450.453C332.852 442.016 322.716 437.948 315 433.812C313.975 433.263 312.95 432.713 311.894 432.147C300.437 426.067 288.73 420.527 277 415C275.68 414.34 274.36 413.68 273 413ZM346 466C344.355 482.034 342.771 498.073 341.313 514.125C341.181 515.527 341.05 516.93 340.915 518.375C340.208 526.279 339.87 534.054 340 542C343.263 537.105 342.854 531.274 343.289 525.531C343.451 523.513 343.451 523.513 343.617 521.453C343.844 518.599 344.068 515.744 344.287 512.889C344.622 508.545 344.97 504.202 345.32 499.859C345.54 497.083 345.759 494.307 345.977 491.531C346.08 490.241 346.183 488.951 346.289 487.622C346.839 480.396 347.101 473.246 347 466C346.67 466 346.34 466 346 466ZM392 466C392.528 473.949 393.061 481.898 393.599 489.846C393.781 492.543 393.961 495.24 394.14 497.937C395.096 512.338 396.125 526.683 398 541C398.99 540.505 398.99 540.505 400 540C398.176 515.65 396.208 491.319 394 467C393.34 466.67 392.68 466.34 392 466ZM349 565C343.052 572.092 338.251 581.64 337.813 591C339.942 596.379 343.993 598.497 349 601C354.694 600.133 354.694 600.133 359 599C359.66 600.32 360.32 601.64 361 603C364.579 606.579 366.046 606.748 371 607C377.124 604.959 378.359 603.926 382 599C383.65 599.66 385.3 600.32 387 601C392.672 600.055 394.695 599.444 399 596C402.431 591.402 402.431 591.402 401.625 587.062C398.702 577.957 395.554 570.043 388 564C381.618 561.872 376.89 561.7 370.188 561.688C368.119 561.671 366.05 561.654 363.918 561.637C358.287 561.982 354.149 562.75 349 565Z" fill="black"/>
<path d="M253 135C254 137 254 137 253.082 141.613C251.794 149.218 251.67 156.493 251.687 164.188C251.671 165.578 251.655 166.968 251.639 168.4C251.628 191.69 258.829 213.833 269.434 234.441C273.665 244.054 272.184 255.538 272.187 265.812C272.2 267.681 272.212 269.549 272.225 271.475C272.258 303.162 272.258 303.162 265.562 316.75C264.78 318.374 263.998 319.998 263.191 321.672C262.468 323.1 261.745 324.528 261 326C260.01 327.98 259.02 329.96 258 332C251.919 329.567 246.689 326.534 243 321C242.502 318.096 242.105 315.175 241.75 312.25C238.123 284.299 233.901 256.516 227.355 229.086C227.078 227.915 226.801 226.745 226.516 225.538C225.735 222.263 224.937 218.993 224.137 215.723C218.582 187.758 238.183 157.226 253 135Z" fill="black"/>
<path d="M486 135C502.37 155.462 518.097 186.17 516 213C514.902 219.082 513.375 225.023 511.812 231C507.6 247.917 504.466 264.753 502 282C501.617 284.598 501.232 287.195 500.848 289.793C498.921 302.641 498.921 302.641 497.547 315.555C496.847 321.242 495.205 323.171 491 327C486.125 329.938 486.125 329.938 482 332C479.31 326.678 476.65 321.342 474 316C473.216 314.453 472.432 312.906 471.625 311.312C466.78 298.455 467.466 284.113 467.355 270.564C467.327 268.115 467.279 265.666 467.211 263.218C466.754 246.605 468.776 234.582 477 220C487.959 192.043 490.577 164.711 486 135Z" fill="black"/>
<path d="M363 232C365.332 232.095 367.666 232.13 370 232.125C371.237 232.128 372.475 232.13 373.75 232.133C377.012 232.15 377.012 232.15 380 231C391.524 230.127 399.052 235.171 408 242C412.388 246.575 415.566 251.203 416.562 257.625C415.055 269.346 406.511 279.49 400 289C398.393 291.415 396.789 293.831 395.187 296.25C378.062 321.938 378.062 321.938 376 324C371.667 324.041 367.333 324.042 363 324C361.884 322.324 360.767 320.648 359.617 318.922C356.483 314.22 353.341 309.522 350.195 304.828C323.189 264.491 323.189 264.491 324 253C328.905 242.558 337.711 236.588 348 232C352.906 230.365 358.094 230.365 363 232Z" fill="black"/>
<path d="M246 342C248.475 342.99 248.475 342.99 251 344C250.186 348.887 249.19 352.508 247.418 357.051C246.898 358.389 246.378 359.728 245.842 361.107C245.023 363.189 245.023 363.189 244.188 365.312C243.386 367.377 243.386 367.377 242.568 369.482C240.381 375.086 238.187 380.604 235.613 386.043C232.58 393.484 234.511 399.633 236.688 407C237.23 408.839 237.773 410.679 238.332 412.574C240.439 419.427 242.671 426.22 245 433C238.805 431.761 233.495 429.159 227.812 426.5C226.707 425.988 225.602 425.476 224.463 424.949C216.708 421.354 216.708 421.354 214 420C214.471 412.57 217.013 406.15 219.75 399.312C220.181 398.217 220.611 397.122 221.055 395.994C221.929 393.771 222.807 391.55 223.69 389.331C224.977 386.059 226.213 382.768 227.449 379.477C230.059 372.849 232.956 366.466 236.062 360.062C236.579 358.979 237.095 357.896 237.627 356.779C240.117 351.613 242.628 346.65 246 342Z" fill="black"/>
<path d="M492 342C495 343 495 343 498.336 349.086C499.698 351.841 501.043 354.605 502.375 357.375C503.434 359.567 503.434 359.567 504.514 361.802C513.159 380.068 521.301 399.293 526 419C500.257 433 500.257 433 495 433C496.015 427.927 497.592 423.478 499.375 418.625C505.82 400.443 505.82 400.443 502 382C500.847 379.018 499.696 376.035 498.547 373.051C497.282 369.804 496.017 366.558 494.75 363.312C494.1 361.645 493.451 359.978 492.781 358.26C491.189 354.173 489.595 350.086 488 346C489.32 344.68 490.64 343.36 492 342Z" fill="black"/>
<path d="M373 346C377.906 350.906 377.906 350.906 378.375 356.375C377.862 364.067 375.279 370.582 371 377C368 376 368 376 364.875 370.562C362.212 364.977 360.915 360.27 361 354C365 346 365 346 373 346Z" fill="black"/>
<path d="M211 425C218.298 427.919 225.189 431.614 232.191 435.176C237.959 438.158 237.959 438.158 244.281 439.969C252.172 444.151 253.813 449.111 256.938 457.188C258.835 461.881 260.83 466.417 263 471C267.883 473.069 267.883 473.069 272.688 474.25C288.396 479.425 298.573 490.567 306.625 504.562C308 508 308 508 308 512C289.56 509.474 271.625 503.842 254 498C252.237 497.439 250.473 496.879 248.656 496.301C237.572 492.649 227.008 488.357 216.5 483.312C215.36 482.766 214.221 482.219 213.047 481.656C207.333 478.847 202.038 475.902 197 472C201.322 456.21 205.915 440.565 211 425Z" fill="black"/>
<path d="M527 425C530.095 429.127 531.169 432.091 532.664 436.984C533.146 438.56 533.628 440.135 534.125 441.758C534.62 443.405 535.115 445.053 535.625 446.75C536.128 448.382 536.63 450.014 537.148 451.695C539.313 458.83 541.249 465.56 542 473C511.242 490.794 467.513 512 431 512C433.755 498.224 444.414 487.256 455.25 479C462.132 475.409 468.444 473.733 476 472C476.88 470.014 477.761 468.027 478.668 465.98C479.84 463.382 481.014 460.785 482.188 458.188C482.766 456.877 483.344 455.567 483.939 454.217C484.51 452.963 485.08 451.71 485.668 450.418C486.186 449.261 486.705 448.103 487.239 446.911C490.535 441.463 496.741 439.736 502.375 437.312C510.82 433.606 518.937 429.471 527 425Z" fill="black"/>
<path d="M287 427C326.597 444.493 326.597 444.493 332 458C330.73 457.553 329.461 457.105 328.152 456.645C326.431 456.04 324.711 455.435 322.938 454.812C321.12 454.172 319.302 453.531 317.43 452.871C312.828 451.285 308.211 449.816 303.562 448.375C292.92 444.523 290.638 438.814 286 429C286.33 428.34 286.66 427.68 287 427Z" fill="black"/>
<path d="M452 427C453.572 431.717 450.979 434.752 448.934 438.992C443.801 446.976 436.263 448.958 427.562 451.688C426.36 452.077 425.158 452.467 423.92 452.869C418.308 454.68 412.685 456.434 407 458C412.531 448.381 421.345 442.88 430.938 437.812C432.782 436.829 434.627 435.845 436.527 434.832C441.663 432.175 446.82 429.569 452 427Z" fill="black"/>
<path d="M195 479C196.65 479.825 198.3 480.65 200 481.5C201.673 482.33 201.673 482.33 203.379 483.176C205.714 484.352 208.036 485.556 210.34 486.793C240.244 502.54 273.24 510.638 306 518C305.195 527.202 303.598 536.167 301.938 545.246C301.028 550.828 300.502 556.369 300 562C299.67 562.66 299.34 563.32 299 564C276.837 562.158 229.138 556.749 213.312 540.188C212.549 539.136 211.786 538.084 211 537C203.084 529.62 194.725 523.729 185 519C187.955 505.547 191.162 492.23 195 479Z" fill="black"/>
<path d="M543 479C543.99 479.495 543.99 479.495 545 480C545.811 482.499 546.511 485.033 547.164 487.578C547.763 489.908 547.763 489.908 548.375 492.285C548.787 493.924 549.2 495.562 549.625 497.25C550.045 498.873 550.465 500.496 550.898 502.168C554 514.343 554 514.343 554 520C552.144 520.887 550.288 521.774 548.375 522.688C543.697 525.01 539.908 527.503 536 531C535.34 531 534.68 531 534 531C534 531.66 534 532.32 534 533C525.303 540.96 517.839 545.38 506.625 548.875C505.235 549.314 503.845 549.753 502.412 550.206C458.247 564 458.247 564 440 564C439.619 561.156 439.619 561.156 439.23 558.254C437.409 544.781 435.499 531.368 433 518C435.831 517.364 435.831 517.364 438.719 516.715C493.415 504.424 493.415 504.424 543 479Z" fill="black"/>
<path d="M313 524C316.851 527.851 316.951 534.39 318 539.625C318.269 540.954 318.538 542.284 318.815 543.653C321.013 554.701 322.811 565.56 323.203 576.836C323.845 590.569 325.32 598.213 335 608C336.848 610.238 338.682 612.488 340.5 614.75C344.212 619.768 344.212 619.768 347 621C354.391 621.363 361.789 621.372 369.187 621.438C371.266 621.483 373.345 621.529 375.486 621.576C377.485 621.591 379.484 621.606 381.543 621.621C383.379 621.646 385.215 621.671 387.106 621.697C396.967 620.293 402.275 611.547 408 604C409.223 602.502 410.447 601.004 411.707 599.461C415.687 592.861 415.956 588.538 416.187 580.875C416.299 578.385 416.421 575.895 416.551 573.406C416.615 572.165 416.679 570.924 416.745 569.645C417.822 554.265 421.446 538.971 425 524C425.66 524 426.32 524 427 524C435.225 573.191 442.101 626.854 418.5 672.875C407.418 685.935 391.634 693.78 375 697C357.544 698.309 341.076 690.234 327.687 679.562C311.033 663.473 306.632 637.754 305.793 615.52C305.696 609.366 305.672 603.217 305.687 597.062C305.691 594.883 305.694 592.704 305.698 590.458C305.798 575.717 306.565 561.554 309 547C309.542 543.208 310.084 539.417 310.625 535.625C311.856 527.432 311.856 527.432 313 524Z" fill="black"/>
<path d="M183 533C217.897 544.632 240.368 582.556 258.578 612.133C284.125 652.925 317.763 679.933 359.195 703.711C362.946 705.968 366.474 708.409 370 711C371.237 710.092 372.475 709.185 373.75 708.25C378.971 704.584 384.394 701.324 389.875 698.062C429.817 674.262 458.267 646.864 483.527 607.879C502.465 578.661 521.933 548.825 554 533C554.99 533 555.98 533 557 533C558 536 558 536 558 543C557.105 543.412 556.211 543.825 555.289 544.25C526.842 557.837 510.156 584.033 494 610C480.542 631.262 465.973 650.264 448 668C447.154 668.848 446.309 669.696 445.438 670.57C432.122 683.843 416.504 693.48 400.336 702.883C383.822 710.985 383.822 710.985 371 723C367 721 367 721 362.188 717.188C356.376 712.76 350.26 709.231 343.875 705.688C321.47 693.237 300.682 678.664 283 660C283 659.34 283 658.68 283 658C281.515 657.505 281.515 657.505 280 657C277.844 654.468 275.703 651.922 273.637 649.316C271.882 647.109 270.092 644.929 268.27 642.777C261.337 634.479 255.511 625.689 249.865 616.491C245.231 608.943 240.465 601.501 235.562 594.125C233.677 591.283 233.677 591.283 231.754 588.383C219.175 570.345 205.364 555.547 186 545C184.35 544.01 182.7 543.02 181 542C181.875 534.125 181.875 534.125 183 533Z" fill="black"/>
<path d="M224 551C230.946 551.7 237.506 553.765 244.188 555.688C262.273 560.789 280.509 564.638 299 568C299 583.51 299 599.02 299 615C289.728 613.675 282.544 612.561 273.938 609.688C272.173 609.114 270.408 608.54 268.59 607.949C260.559 604.539 257.577 599.072 253 591.812C244.087 577.918 234.548 564.693 224 552C224 551.67 224 551.34 224 551Z" fill="black"/>
<path d="M516 552C515.34 552 514.68 552 514 552C513.34 553.32 512.68 554.64 512 556C509.654 559.189 507.274 562.352 504.875 565.5C499.314 572.867 494.019 580.258 489 588C487.234 590.691 485.463 593.378 483.688 596.062C482.866 597.312 482.045 598.561 481.199 599.848C474.206 609.872 459.835 611.941 448.438 614.437C444 615 444 615 440 615C440.072 612.948 440.144 610.896 440.219 608.781C440.685 595.183 441.14 581.609 441 568C442.341 567.755 443.681 567.51 445.062 567.258C459.228 564.555 473.2 561.317 487.188 557.812C488.945 557.372 490.703 556.932 492.514 556.479C513.095 551.274 513.095 551.274 516 552Z" fill="black"/>
<path d="M389 569C393.956 575.772 397.196 582.612 398 591C396 593 394 595 392 597C390.35 597 388.7 597 387 597C386.505 595.02 386.505 595.02 386 593C383.248 595.201 380.507 597.416 377.812 599.688C373.04 603.611 373.143 603 366 603C361.223 600.516 358.27 597.232 355 593C354.34 593 353.68 593 353 593C353.33 593.66 353.66 594.32 354 595C353.34 595.99 352.68 596.98 352 598C346 596 346 596 342 592C340.653 586.612 342.281 584.412 344.625 579.438C345.318 577.931 346.012 576.424 346.727 574.871C349.459 570.218 352.251 568.62 357.297 566.832C367.195 564.608 379.914 564.515 389 569Z" fill="black"/>
<path d="M268 613C269.64 613.41 271.279 613.82 272.969 614.242C276.202 615.05 276.202 615.05 279.5 615.875C281.635 616.409 283.769 616.942 285.969 617.492C287.959 617.99 289.949 618.487 292 619C296 620 296 620 300 621C300.291 622.607 300.583 624.215 300.883 625.871C303.303 638.665 306.146 650.873 311 663C292.303 655.521 277.817 631.784 268 615C268 614.34 268 613.68 268 613Z" fill="black"/>
<path d="M472 614C466.784 623.272 460.459 631.563 454 640C452.763 641.671 451.525 643.341 450.25 645.063C446.809 649.232 443.16 652.555 439 656C437.763 657.114 436.525 658.228 435.25 659.375C432 662 432 662 428 663C428.908 660.938 429.815 658.875 430.75 656.75C433.93 648.853 435.632 640.988 437.141 632.629C437.933 628.363 438.902 624.196 440 620C441.489 619.745 441.489 619.745 443.008 619.484C450.086 618.222 456.982 616.809 463.875 614.75C470 613 470 613 472 614Z" fill="black"/>
</svg>
