<svg width="736" height="1104" viewBox="0 0 736 1104" fill="none" xmlns="http://www.w3.org/2000/svg">
<path d="M370 347C370.495 350.465 370.495 350.465 371 354C343.056 373.488 306.523 383.171 272.688 383.125C270.794 383.128 268.9 383.13 266.949 383.133C262 383 262 383 257 382C257.99 379.03 257.99 379.03 259 376C262.481 374.26 266.42 375.039 270.25 375.125C305.437 375.268 340.134 347 370 347Z" fill="black"/>
<path d="M372 359C375.281 360.641 375.656 363.792 376.938 367.125C378.873 372.125 380.861 377.083 383 382C347.018 407.974 298.063 422.781 253.562 417.062C247 416 247 416 243 415C244.204 408.979 246.448 403.892 248.875 398.25C250.201 395.133 250.201 395.133 251.555 391.953C252.765 389.501 252.765 389.501 254 387C257.773 385.742 260.054 386.426 264 387C302.52 388.572 338.764 378.217 372 359ZM358 370C358.952 374.76 360.237 377.626 362.562 381.812C363.203 382.974 363.844 384.135 364.504 385.332C364.998 386.212 365.491 387.093 366 388C366.99 387.67 367.98 387.34 369 387C367.507 382.522 365.998 378.778 363.875 374.625C362.926 372.769 361.978 370.913 361 369C359.776 368.925 359.776 368.925 358 370ZM347 375C346.34 375.66 345.68 376.32 345 377C346.98 383.27 348.96 389.54 351 396C351.99 395.67 352.98 395.34 354 395C352.632 388.045 350.515 381.623 348 375C347.67 375 347.34 375 347 375ZM330 382C331.075 388.754 332.221 395.393 334 402C335.32 402 336.64 402 338 402C337.357 399.041 336.711 396.083 336.062 393.125C335.703 391.478 335.343 389.83 334.973 388.133C334.231 384.27 334.231 384.27 333 382C332.01 382 331.02 382 330 382ZM315 386C313.551 387.221 313.551 387.221 313.875 390.875C314.007 396.287 314.455 401.615 315 407C316.32 407.33 317.64 407.66 319 408C318.859 405.271 318.712 402.541 318.562 399.812C318.481 398.293 318.4 396.773 318.316 395.207C318.074 390.842 318.074 390.842 317 386C316.34 386 315.68 386 315 386ZM260 391C256.946 397.69 254 404.572 254 412C254.99 412.33 255.98 412.66 257 413C257.842 410.44 258.673 407.877 259.5 405.312C259.964 403.886 260.428 402.459 260.906 400.988C262.22 396.886 262.22 396.886 262 392C261.34 391.67 260.68 391.34 260 391ZM295 391C295 397.93 295 404.86 295 412C295.99 412 296.98 412 298 412C298 404.74 298 397.48 298 390C296.776 389.925 296.776 389.925 295 391ZM276 392C274.251 398.994 273.496 405.813 273 413C274.32 413 275.64 413 277 413C277.99 402.605 277.99 402.605 279 392C278.01 392 277.02 392 276 392Z" fill="black"/>
<path d="M387 388C390 392 390 392 390 394C355.119 419.126 314.14 433.074 271.125 433.375C269.854 433.389 268.583 433.403 267.274 433.417C245.411 433.308 245.411 433.308 237 427C237.99 424.69 238.98 422.38 240 420C241.567 420.309 243.135 420.619 244.75 420.938C291.49 428.883 341.777 415.29 381.426 390.199C385 388 385 388 387 388Z" fill="black"/>
<path fill-rule="evenodd" clip-rule="evenodd" d="M276.046 159.25C274.49 162.688 270.458 174.11 267.087 184.634C263.715 195.158 259.954 205.245 258.728 207.05C256.999 209.598 254.934 210.855 249.5 212.668C226.814 220.239 215.519 228.763 205.715 245.709C201.338 253.276 192.773 262.459 182.009 271.127L177.518 274.744L178.712 278.622C181.086 286.338 185.973 300.081 187.118 302.266C187.762 303.495 189.492 306.075 190.962 308C192.432 309.925 194.471 313.75 195.493 316.5C198.996 325.919 202.7 327.997 219.5 329.966C231.751 331.403 237.597 332.797 243.5 335.692C253.56 340.625 256.368 345.441 256.191 357.461C256.046 367.273 254.242 373.122 245.693 391.5C232.473 419.922 226.824 437.63 225.086 456.099C222.436 484.262 230.449 510.16 252.232 543.841C269.241 570.138 272.442 581.852 275.098 627.5C276.427 650.33 275.805 712.571 274.029 734.5C273.405 742.2 273.031 751.65 273.198 755.5L273.5 762.5L276.733 756C283.139 743.12 283.833 732.194 282.777 660.882C282.118 616.367 281.414 606.59 277.852 592.5C273.78 576.39 260.609 542.314 255.028 533.447C237.685 505.895 230.039 476.763 232.915 449.195C233.506 443.527 234.252 437.846 234.572 436.57L235.154 434.251L240.072 436.119C274.289 449.121 338.55 435.553 384.5 405.624C390 402.042 394.765 399.423 395.089 399.805C395.412 400.187 397.826 406.35 400.452 413.5C405.652 427.658 408.497 433.274 412.24 436.769C413.576 438.017 420.706 442.222 428.085 446.114C458.766 462.296 484.606 482.774 501.181 504.039C527.782 538.168 544.661 583.761 551.515 640C553.708 658 554.587 703.66 553.055 720C549.775 754.981 550.307 759.802 559.503 778.5C574.685 809.365 574.458 835.857 558.803 860.22C553.082 869.123 538.142 883.518 527 890.863C501.616 907.595 465.709 920.987 430.398 926.892C372.055 936.647 306.227 928.554 272.394 907.466C262.749 901.455 253.743 891.734 251.42 884.826C249.369 878.729 249.119 868.509 250.869 862.295C253.408 853.277 262.415 847 272.818 847C283.912 847 290 850.631 290 857.249C290 860.61 289.241 861.944 284.5 866.915C277.466 874.289 277.087 877.876 282.687 884.075C287.204 889.075 293.19 892.194 304.627 895.509C353.305 909.615 418.101 904.977 475.5 883.278C512.316 869.36 532.633 852.959 539.912 831.282C542.24 824.35 542.691 813.096 540.907 806.5C539.521 801.379 534.933 791 534.055 791C533.685 791 532.284 793.333 530.941 796.184C526.487 805.645 532.936 805 442.785 805H364.038L363.396 802.44C363.042 801.033 362.989 797.788 363.277 795.231C363.719 791.311 364.533 789.89 368.458 786.181C371.019 783.761 372.976 781.673 372.807 781.541C371.667 780.651 365.573 783.607 361.985 786.791C358.096 790.243 357.655 791.111 357.237 796.154C356.969 799.383 357.264 802.625 357.94 803.889C359.032 805.928 358.929 806.025 356.302 805.439C350.557 804.158 349.864 803.772 348.943 801.349C347.577 797.757 347.786 790.447 349.363 786.673C350.113 784.879 352.876 781.518 355.504 779.205L360.282 775H356.718C349.354 775 343.041 783.752 342.227 795.09C341.676 802.764 343.54 807.881 347.697 810.105C349.867 811.267 364.452 811.5 434.902 811.5H519.5L526.725 808.358L533.95 805.215L534.61 808.733C534.973 810.668 535.016 815.608 534.706 819.71C533.258 838.856 517.863 856.579 491 870.025C464.159 883.46 412.105 894.321 368 895.687C340.483 896.54 320.934 893.959 301.5 886.905C288.334 882.126 283.663 876.264 289.151 871.405C296.715 864.707 299.139 854.507 294.737 847.898C291.07 842.393 286.128 840.551 273.987 840.168L263.474 839.836L257.383 843.903C250.496 848.502 246.523 853.612 244.431 860.562C242.352 867.471 242.621 878.561 245.058 886.453C246.801 892.094 248.204 894.261 254.205 900.579C258.104 904.684 264.448 910.138 268.302 912.701C304.426 936.716 381.319 944.865 445.082 931.436C479.304 924.229 506.626 913.29 531.597 896.797C555.435 881.054 570.294 861.808 576.081 839.183C578.259 830.667 578.648 814.593 576.932 804C575.208 793.363 570.015 779.325 564.288 769.826C556.593 757.061 556.234 754.415 559.075 731.333C562.137 706.451 562.419 661.533 559.655 639C551.379 571.527 527.819 516.603 491.895 481.034C474.807 464.114 460.333 454.191 432.114 440.052C423.526 435.749 415.68 431.318 414.678 430.206C413.676 429.094 411.508 423.53 409.861 417.842C406.07 404.75 404.155 400.449 398.181 391.618C383.099 369.32 377.288 352.478 370.016 310C363.81 273.744 359.978 260.858 350.963 245.939C346.274 238.178 346.222 237.438 349.069 219C350.663 208.679 349.64 189.646 346.923 179.047C342.792 162.94 339.129 157 333.326 157C328.983 157 325.428 160.574 312.437 178.001C306.903 185.425 299.563 194.65 296.128 198.5C290.788 204.484 282.348 218.682 283.467 219.8C284.068 220.401 288.202 217.976 293.673 213.812C299.358 209.486 306.931 200.093 317.71 184C321.578 178.225 326.488 171.558 328.621 169.185C332.104 165.311 332.688 165.01 334.344 166.24C335.358 166.994 337.328 171.406 338.726 176.055C342.172 187.515 343.09 211.514 340.56 223.999C338.58 233.774 334.873 244.049 331.458 249.229C330.106 251.279 329 253.433 329 254.014C329 255.697 332.988 253.258 337.801 248.633L342.102 244.5L344.035 247C347.384 251.329 353.713 265.164 356.388 274C359.942 285.74 362.53 299.204 365.516 321.491C367.948 339.643 367.982 340.544 366.28 341.865C362.176 345.05 337.461 356.248 326.419 359.924C308.886 365.761 296.07 368.081 277.75 368.736L262 369.299L261.994 359.899C261.988 348.921 261.104 345.132 257.061 338.757C252.341 331.315 240.507 326.532 220.572 324.008C208.226 322.445 203.611 320.197 201.709 314.817C201.261 313.548 201.838 312.994 204.057 312.567C205.676 312.255 208.382 311.732 210.072 311.405C214.104 310.623 213.462 310.164 205.857 308.389C197.282 306.389 195.339 304.895 191.923 297.676C188.951 291.393 188.196 286.615 190 285.5C191.688 284.456 191.113 280.413 188.87 277.561L186.739 274.853L191.557 270.676C200.773 262.687 206.131 256.615 212.457 246.991C215.957 241.666 220.625 235.765 222.831 233.876C225.037 231.988 232.84 227.389 240.171 223.657C251.839 217.715 255.08 216.546 266.181 214.277C275.631 212.346 279.58 211.072 281.681 209.276L284.5 206.868L274.718 207.456L264.936 208.045L266.84 204.272C269.229 199.539 273.342 187.515 275.485 179C279.257 164.013 278.886 164.868 281.108 166.058C283.318 167.241 290.69 178.132 293.59 184.5L295.412 188.5L295.768 184.72C296.634 175.525 285.684 153 280.348 153C279.509 153 277.657 155.69 276.046 159.25ZM317.354 215.715C314.684 219.957 311.972 224.795 311.326 226.465C309.591 230.95 309.718 241.554 311.549 245.094C313.472 248.814 318.533 251.996 322.5 251.981C327.696 251.961 328.353 250.706 324.879 247.439C318.356 241.305 317.367 232.86 321.5 218.597C322.875 213.852 324 209.527 324 208.985C324 206.423 321.793 208.658 317.354 215.715ZM228.5 243.167C225.267 244.955 221.916 248.297 220.364 251.279C218.128 255.578 219.782 256.603 223.363 253.138C231.045 245.703 239.949 245.113 255.622 251C261.479 253.2 267.898 254.975 269.886 254.943C273.266 254.89 272.953 254.63 265.065 250.923C251.12 244.371 243.546 241.997 236.69 242.03C233.286 242.047 229.6 242.559 228.5 243.167ZM233.5 251.737C232.4 252.014 230.375 252.671 229 253.195C226.651 254.092 226.609 254.23 228.304 255.475C229.769 256.55 229.946 257.427 229.246 260.129C228.581 262.696 227.652 263.668 225.192 264.374C221.007 265.574 221.148 266.749 225.576 267.58C230.589 268.521 236.428 267.524 243.995 264.435C247.568 262.977 253.643 261.225 257.495 260.541C264.435 259.309 264.472 259.286 261.5 258.016C257.949 256.499 249.506 256.348 247.742 257.769C247.059 258.319 245.037 259.082 243.25 259.464L240 260.159V255.579C240 250.722 239.259 250.284 233.5 251.737ZM231 299.415C232.375 300.149 236.65 301.277 240.5 301.921C250.474 303.59 261.008 306.648 270.353 310.59C279.556 314.471 279 314.315 279 313.011C279 311.657 264.953 304.75 257 302.192C248.724 299.531 240.022 297.989 233.566 298.04C228.751 298.078 228.624 298.146 231 299.415ZM229.619 307.361C230.785 308.224 234.279 309.881 237.385 311.043C240.491 312.205 247.823 315.612 253.679 318.615C259.535 321.617 264.694 323.706 265.144 323.256C266.283 322.117 251.791 312.556 244.405 309.572C241.053 308.218 235.878 306.813 232.905 306.451C227.832 305.832 227.63 305.888 229.619 307.361ZM312 316.059C312 316.641 312.45 316.84 313 316.5C313.55 316.16 314 315.684 314 315.441C314 315.198 313.55 315 313 315C312.45 315 312 315.477 312 316.059ZM308.036 319.456C305.893 322.039 291.882 328.548 284.481 330.399C270.876 333.801 270.903 333.786 278.04 333.898C289.418 334.076 299.411 330.492 308 323.154C310.554 320.973 311.205 319.86 310.408 319.04C309.601 318.21 308.98 318.319 308.036 319.456ZM359.665 504.733C358.209 508.856 357.427 524.934 358.204 534.761C358.627 540.117 360.386 550.072 362.112 556.883C364.897 567.872 365.197 570.404 364.776 579.383C364.334 588.799 363.739 591.164 356.187 613.5C342.89 652.83 335.186 682.295 327.035 725C324.778 736.825 322.063 751 321.002 756.5C318.954 767.11 316.314 774.407 309.803 787.449C301.391 804.298 300.227 805 280.675 805H266.25L265.623 801.865C264.883 798.166 266.536 791.228 268.748 788.75C271.139 786.071 268.331 786.51 264.53 789.409C260.902 792.176 258.538 798.621 259.517 803.076C260.257 806.444 260.119 806.494 255.468 804.551C251.869 803.047 251.484 801.944 251.989 794.566C252.293 790.119 253.559 787.493 257.511 783.12C260.567 779.736 262.178 778.892 268.185 777.526C272.076 776.641 276.534 775.258 278.091 774.453C285.969 770.379 290.223 753.1 295.685 703C298.317 678.851 298.327 603.715 295.699 587.14C293.46 573.011 288.24 552.306 283.984 540.673C278.867 526.685 278.327 531.344 282.891 550.1C299.142 616.882 298.905 693.346 282.264 752.5C277.99 767.693 276.279 770.026 267.982 771.98C251.981 775.749 245 784.007 245 799.166C245 804.163 245.405 805.422 247.916 808.234L250.832 811.5L271.462 811.808C301.931 812.262 306.074 810.432 314.834 792.653C322.852 776.379 325.592 766.558 332.974 727.63C340.696 686.911 349.326 654.96 363.492 614.636C367.076 604.433 370.73 593.029 371.611 589.293C373.973 579.277 372.965 568.515 368.103 551.838C363.123 534.756 361.959 528.451 361.12 514C360.682 506.454 360.182 503.268 359.665 504.733ZM431.784 581.868C428.64 582.91 424.365 584.766 422.284 585.992C417.815 588.624 407.009 597.218 407.004 598.144C407.002 598.499 405.69 600.191 404.09 601.904C402.489 603.618 399.132 609.178 396.629 614.26C386.993 633.83 383.371 651.242 384.323 673.428C385.524 701.416 393.766 724.909 409.867 746.241C419.688 759.252 432.218 767.922 448.5 772.971C456.354 775.407 472.188 776.706 476 775.227C478.258 774.351 477.92 774.144 472.5 773.085C464.419 771.506 450.896 767.371 444.356 764.479C433.307 759.592 420.61 749.101 413.839 739.265C405.988 727.858 397.72 707.744 394.284 691.692C391.938 680.736 391.945 652.709 394.296 642.385C398.227 625.118 405.567 611.261 416.482 600.5C432.442 584.765 451.251 581.799 471.124 591.882C475.588 594.147 479.481 596 479.775 596C480.069 596 479.453 595.048 478.405 593.884C469.119 583.567 445.232 577.411 431.784 581.868ZM357 653.124C357 656.893 362.493 680.225 365.563 689.5C373.816 714.427 398.887 758.446 402.674 754.659C403.038 754.295 398.347 743.985 392.25 731.749C382.152 711.485 377.913 701.509 363.565 664.25C360.971 657.513 358.432 652 357.924 652C357.416 652 357 652.506 357 653.124ZM250.837 762.543C245.463 764.233 238.324 770.664 235.727 776.151C232.493 782.988 234.362 798 238.449 798C239.729 798 240 796.508 240 789.45C240 783.718 240.506 779.922 241.536 777.931C244.304 772.577 252.403 767.967 263.25 765.57C266.362 764.882 266.868 763.39 264.25 762.621C259.537 761.236 255.073 761.21 250.837 762.543ZM354.384 762.339C344.045 764.995 337.277 770.875 334.17 779.899C332.606 784.442 332.738 794.071 334.394 796.252C335.557 797.784 335.808 797.175 336.401 791.391C337.631 779.381 343.175 771.763 353.079 768.474C357.313 767.068 360.454 766.873 370.86 767.369C410.809 769.277 418.49 769.32 419.879 767.645C421.042 766.244 420.843 765.889 418.359 764.931C415.442 763.807 397.204 762.44 373 761.531C363.593 761.178 357.949 761.423 354.384 762.339Z" fill="black"/>
</svg>
