<svg width="465" height="806" viewBox="0 0 465 806" fill="none" xmlns="http://www.w3.org/2000/svg">
<path fill-rule="evenodd" clip-rule="evenodd" d="M207.894 1.88447C189.746 5.71347 179.027 9.93546 165.826 18.4545C117.472 49.6595 96.8477 105.053 110.602 166.779C118.865 203.865 137.184 238.785 173.896 287.431C180.537 296.231 185.974 303.939 185.978 304.559C185.987 305.848 177.194 308.192 165.486 310.023C154.195 311.788 127.021 311.513 111.486 309.476C88.3897 306.448 66.1327 301.455 25.6457 290.22C5.87069 284.732 1.65269 283.845 0.910688 285.018C0.407688 285.812 0.00968419 315.877 0.000684195 353.681C-0.0123158 413.929 0.147691 420.931 1.54469 420.931C2.40169 420.931 14.4397 418.036 28.2947 414.497C69.4647 403.983 106.067 397.707 134.736 396.246C141.474 395.903 146.986 395.278 146.986 394.857C146.986 393.762 138.713 391.165 129.775 389.455C125.558 388.648 116.005 387.682 108.547 387.307L94.9857 386.627V375.911V365.195L110.736 364.67C133.914 363.897 143.588 361.105 176.486 345.698C200.399 334.498 211.817 331.144 229.069 330.251C250.266 329.155 261.392 331.831 287.986 344.424C308.913 354.333 319.381 358.024 335.789 361.277C350.986 364.29 352.022 365.067 351.886 373.336C351.708 384.24 351.747 384.196 341.16 385.614C335.607 386.358 329.519 387.926 325.927 389.538C322.637 391.015 320.066 392.335 320.215 392.472C320.364 392.61 325.661 393.46 331.986 394.361C349.063 396.795 399.398 405.639 415.941 409.112C428.045 411.653 456.391 419.209 462.093 421.414C463.383 421.913 463.827 421.109 464.343 417.344C464.697 414.763 464.986 383.915 464.986 348.791V284.931L462.236 284.94C459.148 284.95 452.026 286.554 406.986 297.384C333.508 315.052 314.243 317.431 295.986 311.093C288.996 308.667 278.986 303.751 278.986 302.745C278.986 302.321 284.093 295.328 290.335 287.203C328.236 237.869 333.756 227.057 347.918 174.431C350.73 163.981 353.554 154.531 354.193 153.431C356.166 150.034 356.472 118.979 354.636 108.431C350.916 87.0575 342.299 66.1045 331.144 51.3025C324.072 41.9195 310.062 28.2055 300.836 21.6345C286.675 11.5495 266.421 3.23546 250.486 0.967458C239.174 -0.642542 217.681 -0.179534 207.894 1.88447ZM251.486 36.3615C268.919 41.0635 279.32 47.1085 291.986 59.9015C302.56 70.5805 308.552 79.8555 314.296 94.4315C319.768 108.319 321.288 117.081 321.323 134.931C321.367 157.681 317.239 176.405 306.943 200.149C301.892 211.798 284.494 242.24 276.491 253.431C267.656 265.785 246.016 292.762 243.102 295.054C241.195 296.554 239.016 296.931 232.252 296.931C218.73 296.931 220.221 298.174 197.392 267.865C187.731 255.039 171.505 230.552 165.199 219.281C150.62 193.225 142.467 166.141 141.314 139.931C140.365 118.35 143.541 101.748 151.74 85.4315C165.336 58.3755 186.609 41.2725 213.986 35.3905C222.349 33.5935 243.228 34.1345 251.486 36.3615ZM248 305.358C260.032 306.171 277.351 311.107 295.699 318.954C315.397 327.379 327.469 330.709 341.382 331.554C352.909 332.255 353.986 332.938 353.986 339.55C353.986 347.941 347.548 349.587 326.902 346.474C314.156 344.553 300.398 340.044 283.986 332.409C268.522 325.215 264.521 323.944 257.307 323.937C253.842 323.933 251.585 323.387 250.485 322.287C249.055 320.857 246.995 320.719 234.663 321.23C213.764 322.095 202.021 325.236 174.986 337.191C167.561 340.475 156.26 344.885 149.873 346.992C129.529 353.701 104.255 355.907 97.7357 351.542C95.2057 349.848 94.9857 349.18 94.9857 343.187V336.673L104.736 337.363C122.424 338.614 142.191 334.126 165.986 323.455C187.511 313.803 195.504 310.684 204.871 308.28C213.999 305.938 230.992 304.013 237.486 304.586C239.136 304.732 243.867 305.079 248 305.358ZM220.908 346.414C210.447 348.403 198.618 352.263 185.281 358.039C179.069 360.73 168.855 365.153 162.584 367.868C156.313 370.584 147.313 374.012 142.584 375.486C137.855 376.96 133.986 378.302 133.986 378.467C133.986 378.633 136.93 379.748 140.528 380.945C144.126 382.142 154.813 387.082 164.278 391.922C183.878 401.946 195.25 406.266 209.271 409.013C221.421 411.394 240.111 411.542 254.717 409.374C260.485 408.517 265.436 408.048 265.719 408.33C266.855 409.466 243.06 437.88 228.086 453.269C199.747 482.392 171.402 494.371 145.027 488.372C138.318 486.846 128.814 481.95 124.137 477.611C117.929 471.85 114.325 457.616 116.98 449.339C118.582 444.343 122.34 439.313 125.788 437.547C131 434.878 138.366 434.563 143.409 436.794C148.712 439.14 150.43 442.339 149.637 448.396C148.794 454.84 142.961 457.059 137.713 452.931C136.315 451.831 134.229 450.931 133.078 450.931C131.238 450.931 130.986 451.525 130.986 455.866C130.986 463.093 132.217 465.38 137.479 467.927C143.132 470.664 147.543 470.203 153.2 466.283C158.249 462.784 160.916 457.484 161.665 449.462C162.194 443.799 161.971 442.581 159.689 438.686C155.991 432.378 149.374 426.133 145.138 424.957C131.398 421.14 116.009 427.907 109.146 440.781C105.318 447.964 104.368 454.221 105.875 462.325C107.564 471.408 111.293 478.461 117.742 484.771C140.552 507.09 180.828 504.037 216.354 477.296C229.395 467.48 240.526 455.907 259.003 432.956C268.068 421.695 278.284 409.545 281.703 405.956L287.919 399.431L287.951 403.431C287.968 405.631 287.108 420.481 286.039 436.431C284.971 452.381 283.807 471.956 283.453 479.931L282.809 494.431L285.271 490.92C286.626 488.988 290.341 482.688 293.527 476.92C296.713 471.151 302.561 461.241 306.522 454.898C313.296 444.05 317.986 435.693 317.986 434.471C317.986 434.174 316.506 433.931 314.698 433.931C308.819 433.931 302.789 430.037 299.987 424.431C297.786 420.027 297.492 418.175 297.525 408.887C297.565 397.068 298.984 393.197 304.68 389.359C308.485 386.794 319.459 383.273 330.801 380.977C339.24 379.268 339.297 379.236 335.156 378.574C325.737 377.068 305.419 369.326 285.067 359.487C273.197 353.75 260.786 348.334 257.486 347.453C248.934 345.169 230.247 344.638 220.908 346.414ZM258.511 355.855C261.731 356.987 269.568 360.775 275.926 364.273C282.284 367.771 291.086 372.146 295.486 373.995C299.886 375.844 303.711 377.531 303.986 377.742C305.209 378.685 294.496 386.915 287.831 390.152C262.709 402.356 227.483 405.68 199.721 398.467C182.429 393.974 159.986 382.915 159.986 378.886C159.986 377.811 160.439 376.931 160.992 376.931C161.546 376.931 167.733 374.421 174.742 371.352C189.158 365.041 197.501 361.931 200.014 361.931C201.449 361.931 201.803 363.204 202.18 369.717C203.011 384.069 209.428 391.822 222.199 393.9C226.8 394.649 228.219 394.436 233.137 392.254C236.246 390.875 239.934 388.55 241.334 387.089C244.732 383.54 247.7 376.6 248.543 370.229C249.159 365.57 248.905 364.449 246.108 359.494C244.391 356.451 242.986 353.667 242.986 353.307C242.986 352.167 252.428 353.717 258.511 355.855ZM199.477 439.394C199.071 452.937 198.917 464.195 199.135 464.413C199.858 465.136 211.986 455.622 211.986 454.332C211.986 453.636 212.83 452.798 213.862 452.47C217.333 451.369 240.145 426.529 244.205 419.431C244.571 418.79 240.058 418.356 231.646 418.222C220.026 418.036 208.806 416.919 202.351 415.306C200.228 414.775 200.211 414.92 199.477 439.394ZM257.503 444.751C251.478 452.891 236.943 468.769 230.219 474.556C222.308 481.364 206.281 492.41 199.954 495.416L196.421 497.094L194.133 520.762C191.039 552.778 186.329 591.979 178.484 651.034C167.797 731.474 164.258 753.312 156.258 788.177C154.271 796.838 152.834 804.101 153.066 804.317C153.603 804.82 223.17 805.263 272.267 805.075C306.718 804.944 310.106 804.782 310.697 803.243C311.341 801.564 309.379 790.86 302.481 758.431C298.339 738.957 294.244 715.195 292.961 703.2C292.477 698.673 291.615 692.373 291.046 689.2C284.927 655.108 269.434 529.889 264.41 473.931C262.878 456.867 261.282 443.934 260.624 443.251C259.757 442.353 259.013 442.711 257.503 444.751Z" fill="black"/>
</svg>
