<?xml version="1.0" encoding="UTF-8"?>
<svg version="1.1" xmlns="http://www.w3.org/2000/svg" width="736" height="1308">
<path d="M0 0 C242.88 0 485.76 0 736 0 C736 431.64 736 863.28 736 1308 C493.12 1308 250.24 1308 0 1308 C0 876.36 0 444.72 0 0 Z M120 25 C117.74990811 37.83875961 118.16686068 50.01878875 119 63 C124.18569534 65.43328912 124.18569534 65.43328912 131 65 C131.1962403 58.8960811 131.38051505 52.79185924 131.5625 46.6875 C131.61857422 44.94791016 131.67464844 43.20832031 131.73242188 41.41601562 C131.78076172 39.75634766 131.82910156 38.09667969 131.87890625 36.38671875 C131.94960327 34.08513794 131.94960327 34.08513794 132.02172852 31.73706055 C132.19389934 28.06385377 132.19389934 28.06385377 131 25 C127.37 25 123.74 25 120 25 Z M173 25 C171.06237442 26.93762558 171.86933922 30.55092171 171.8671875 33.10546875 C171.86589844 34.56404297 171.86460937 36.02261719 171.86328125 37.52539062 C171.86714844 39.06388672 171.87101563 40.60238281 171.875 42.1875 C171.87113281 43.70666016 171.86726562 45.22582031 171.86328125 46.79101562 C171.86457031 48.25603516 171.86585938 49.72105469 171.8671875 51.23046875 C171.86831543 52.57520264 171.86944336 53.91993652 171.87060547 55.30541992 C171.9341912 59.40541495 171.9341912 59.40541495 173 65 C175.99970248 65.04224933 179.00028144 65.04109204 182 65 C185.62398216 61.37601784 183.95250676 48.87484142 184 44 C183.56638197 37.96032034 182.87545389 31.99070929 182 26 C179.03 25.67 176.06 25.34 173 25 Z M225 25 C225 38.2 225 51.4 225 65 C227.64 65 230.28 65 233 65 C234.3013739 58.49313052 234.14437091 52.10548084 234.125 45.5 C234.12886719 44.18128906 234.13273438 42.86257812 234.13671875 41.50390625 C234.13131427 36.18049811 234.0466618 31.23330901 233 26 C230.36 25.67 227.72 25.34 225 25 Z M280 25 C277.34771923 37.92986875 277.82337593 50.86113159 278 64 C279.98 64.33 281.96 64.66 284 65 C284.33878529 60.58369176 284.67116519 56.16705131 285 51.75 C285.09539062 50.51507813 285.19078125 49.28015625 285.2890625 48.0078125 C285.85552015 40.32017302 286.09495251 32.71489174 286 25 C284.02 25 282.04 25 280 25 Z M335 25 C330.21708735 29.78291265 332.0636616 48.75255244 331.87109375 55.55078125 C331.87422693 58.36751352 331.92871312 61.18416821 332 64 C333.32 64.33 334.64 64.66 336 65 C338.17718743 62.82281257 337.38830968 57.21180788 337.5 54.4375 C337.79487376 47.55711237 338.11971523 40.68501849 338.5625 33.8125 C338.87549542 29.40927312 338.87549542 29.40927312 339 25 C337.68 25 336.36 25 335 25 Z M386 25 C385.94600704 30.35430193 385.90632561 35.70805805 385.875 41.0625 C385.85824219 42.57779297 385.84148437 44.09308594 385.82421875 45.65429688 C385.81777344 47.12060547 385.81132812 48.58691406 385.8046875 50.09765625 C385.79421387 51.44351807 385.78374023 52.78937988 385.77294922 54.17602539 C386.00348813 58.05874689 386.78914924 61.31507527 388 65 C388.33 65 388.66 65 389 65 C389.02699597 59.64579951 389.0468378 54.29173549 389.0625 48.9375 C389.07087891 47.42220703 389.07925781 45.90691406 389.08789062 44.34570312 C389.09111328 42.87939453 389.09433594 41.41308594 389.09765625 39.90234375 C389.10551147 37.88355103 389.10551147 37.88355103 389.11352539 35.82397461 C389.00415393 32.13992039 388.59704363 28.63390915 388 25 C387.34 25 386.68 25 386 25 Z M439 25 C436.27757859 27.72242141 437.19037074 36.48403802 436.9375 40.5 C436.84662109 41.8509375 436.75574219 43.201875 436.66210938 44.59375 C436.21955536 51.4084164 435.88661522 58.16667713 436 65 C438.475 64.505 438.475 64.505 441 64 C441.33720359 59.35441841 441.6698892 54.70858651 442 50.0625 C442.09539062 48.75474609 442.19078125 47.44699219 442.2890625 46.09960938 C442.76274129 39.38352088 443.11834479 32.73825627 443 26 C441.68 25.67 440.36 25.34 439 25 Z M491 25 C490.66048744 29.22875013 490.32825631 33.45787305 490 37.6875 C489.90460938 38.86634766 489.80921875 40.04519531 489.7109375 41.25976562 C489.10191378 49.19882489 488.91122005 57.03754791 489 65 C490.98 65 492.96 65 495 65 C497.39069831 52.00057792 497.18630885 39.18652646 497 26 C494.03 25.505 494.03 25.505 491 25 Z M542 25 C538.95711604 37.17153585 540.63760446 51.5681407 542 64 C544.64 64.33 547.28 64.66 550 65 C550 51.8 550 38.6 550 25 C547.36 25 544.72 25 542 25 Z M593 25 C589.43304622 28.56695378 591.11438534 41.12075039 591 46 C591.17748901 52.10673129 591.51287836 58.05151346 593 64 C596.5797509 65.36893239 596.5797509 65.36893239 603 65 C602.67 51.8 602.34 38.6 602 25 C599.03 25 596.06 25 593 25 Z M644 25 C643.83243016 30.91664145 643.66609808 36.83331706 643.5 42.75 C643.45230469 44.43351562 643.40460937 46.11703125 643.35546875 47.8515625 C643.31035156 49.46289062 643.26523437 51.07421875 643.21875 52.734375 C643.17685547 54.22163086 643.13496094 55.70888672 643.09179688 57.24121094 C643.02864975 59.82688399 643 62.41355597 643 65 C646.63 65 650.26 65 654 65 C659.50886062 53.98227876 656.89610852 38.91135014 656 27 C651.69214025 25.64851459 648.58042408 25 644 25 Z M668 93 C666.64851459 97.30785975 666 100.41957592 666 105 C679.34092558 105.59058643 692.64481658 106.14058088 706 106 C706 102.37 706 98.74 706 95 C694.16142526 90.2645701 680.47377341 91.99654051 668 93 Z M666 147 C665.95775067 149.99970248 665.95890796 153.00028144 666 156 C669.56695378 159.56695378 682.12075039 157.88561466 687 158 C693.10673129 157.82251099 699.05151346 157.48712164 705 156 C705.33 152.7 705.66 149.4 706 146 C700.45834437 145.97093694 694.91670839 145.95317985 689.375 145.9375 C687.01794922 145.92493164 687.01794922 145.92493164 684.61328125 145.91210938 C683.09863281 145.90888672 681.58398438 145.90566406 680.0234375 145.90234375 C678.63044434 145.89710693 677.23745117 145.89187012 675.80224609 145.88647461 C671.61202179 145.92602849 671.61202179 145.92602849 666 147 Z M666 199 C666 201.64 666 204.28 666 207 C678.60124152 209.5202483 692.26038979 208.22791424 705 207 C705.33 204.36 705.66 201.72 706 199 C692.8 199 679.6 199 666 199 Z M667 252 C666.67 253.98 666.34 255.96 666 258 C670.22875013 258.33951256 674.45787305 258.67174369 678.6875 259 C679.86634766 259.09539062 681.04519531 259.19078125 682.25976562 259.2890625 C690.19882489 259.89808622 698.03754791 260.08877995 706 260 C706 258.02 706 256.04 706 254 C697.43602744 251.14534248 687.72627009 251.8903372 678.8125 251.9375 C676.59144531 251.94652344 674.37039063 251.95554688 672.08203125 251.96484375 C669.56642578 251.98224609 669.56642578 251.98224609 667 252 Z M667 306 C666.67 307.32 666.34 308.64 666 310 C669.55645997 311.77822998 673.64350221 311.33851076 677.5625 311.5 C684.08969868 311.77176441 690.51033265 312.26336797 697 313 C699.9997714 313.03703421 703.00037786 313.04761305 706 313 C705.505 310.525 705.505 310.525 705 308 C700.1568411 307.2332802 695.43525523 306.82592028 690.53515625 306.68359375 C689.15908203 306.64169922 687.78300781 306.59980469 686.36523438 306.55664062 C684.94533203 306.51732422 683.52542969 306.47800781 682.0625 306.4375 C680.61552734 306.39431641 679.16855469 306.35113281 677.67773438 306.30664062 C674.11859192 306.20092352 670.55930788 306.09999251 667 306 Z M667 361 C667 361.66 667 362.32 667 363 C680.04351516 363.11577084 692.98491927 362.88992005 706 362 C706 361.34 706 360.68 706 360 C700.43751095 359.97097987 694.87504136 359.95319439 689.3125 359.9375 C687.73275391 359.92912109 686.15300781 359.92074219 684.52539062 359.91210938 C683.00751953 359.90888672 681.48964844 359.90566406 679.92578125 359.90234375 C678.52755127 359.89710693 677.12932129 359.89187012 675.6887207 359.88647461 C671.75369908 359.9055158 671.75369908 359.9055158 667 361 Z M287.375 410 C270.62373397 431.78563578 263.29414502 457.93681418 266.5 485.26171875 C271.40472269 515.05233552 282.86350073 538.79657525 299 564 C299.66773438 565.06089844 300.33546875 566.12179687 301.0234375 567.21484375 C307.31703229 576.98918178 314.69615107 585.86590607 323 594 C323.66 594.66 324.32 595.32 325 596 C324.67 597.65 324.34 599.3 324 601 C317.95954984 603.41618006 314.86694896 602.78877102 308.4375 601.9375 C306.21644531 601.64746094 303.99539063 601.35742188 301.70703125 601.05859375 C299.13787053 600.7068252 296.56887033 600.353883 294 600 C291.00390886 599.59503274 288.007815 599.1900857 285.01171875 598.78515625 C272.32272681 597.05517045 259.64088172 595.30641138 247 593.25 C222.01987323 589.11223853 222.01987323 589.11223853 199.0625 597.25 C193.85528522 602.05665979 194.14532035 604.78027344 193.83886719 611.57006836 C193.79294528 615.6926274 193.76473084 619.81470673 193.75 623.9375 C193.729375 625.34580078 193.70875 626.75410156 193.6875 628.20507812 C193.6419883 640.61270482 194.64271463 653.6157686 200 665 C203.63418034 668.70266131 203.63418034 668.70266131 208.59082031 669.18383789 C213.18078767 668.99246218 217.10130843 668.20197143 221.546875 667.05859375 C223.18060059 666.64351562 224.81432617 666.2284375 226.49755859 665.80078125 C229.09751709 665.12595703 229.09751709 665.12595703 231.75 664.4375 C233.55678223 663.97859375 235.36356445 663.5196875 237.22509766 663.046875 C244.85912293 661.10626297 252.48592407 659.14043549 260.1015625 657.12890625 C281.84939054 651.48205426 303.89702094 647.31434401 325.94628906 643.03393555 C330.33570379 642.13590794 334.66494821 641.12827067 339 640 C339.30577845 706.83388001 333.38856584 773.4178427 326.86645508 839.88769531 C320.57220278 880.01133043 320.57220278 880.01133043 329 917 C342.99930153 926.64816727 355.39026417 928.36761991 372 928 C373.40507812 927.97164062 374.81015625 927.94328125 376.2578125 927.9140625 C388.91414669 927.43860093 399.08135099 925.3795483 409 917 C410.155 916.05125 411.31 915.1025 412.5 914.125 C413.325 913.42375 414.15 912.7225 415 912 C415.28408007 900.55932087 414.15405438 889.43107085 412.9375 878.0625 C412.4745103 873.57322596 412.01408894 869.08378235 411.55859375 864.59375 C411.43531708 863.37969986 411.31204041 862.16564972 411.18502808 860.91481018 C409.51119853 844.30789048 407.9976853 827.68609606 406.5 811.0625 C406.35048889 809.403255 406.20097778 807.74401001 406.04693604 806.03448486 C403.69035792 779.75817813 401.61360017 753.46846757 399.71411133 727.15551758 C398.3870466 708.81797768 396.88355841 690.50702091 395.16723633 672.20092773 C394.93556763 669.71154663 394.93556763 669.71154663 394.69921875 667.171875 C394.56346436 665.7497168 394.42770996 664.32755859 394.2878418 662.86230469 C393.66090885 654.45002374 394.92844933 648.77486265 398 641 C438.45318445 647.74219741 479.30624735 656.2435324 518.61091614 668.08816528 C524.59454158 669.69806272 529.44647353 669.77676324 535 667 C544.05890913 649.70571893 545.56147375 619.96845008 541 601 C528.78638198 590.72268728 519.40332252 590.29496375 504 591 C497.19015489 591.68970569 490.44863482 592.69054403 483.6875 593.75 C480.00279191 594.303335 476.31789437 594.85540982 472.6328125 595.40625 C470.83618164 595.67824219 469.03955078 595.95023438 467.18847656 596.23046875 C457.52941117 597.66305741 447.84424945 598.89106459 438.16015625 600.140625 C434.09233765 600.70810762 430.03638697 601.36945584 426 602.12890625 C420.55970232 603.07670811 415.08937937 603.54468969 410 601 C411.1474168 595.26291598 413.23516701 593.63465734 417.3359375 589.703125 C430.0633776 576.78906554 439.00779481 560.75581905 448.25 545.3125 C448.93602295 544.17208252 449.6220459 543.03166504 450.32885742 541.85668945 C456.95827791 530.68730192 461.6502296 519.7881362 464.75 507.1875 C465.20439453 505.40569336 465.20439453 505.40569336 465.66796875 503.58789062 C468.23780381 493.40563304 469.20903325 483.96700476 469.25 473.5 C469.270625 472.21351563 469.29125 470.92703125 469.3125 469.6015625 C469.36356691 456.91143487 467.14379242 445.70656205 462 434 C460.55160266 437.4876991 460.55160266 437.4876991 462.375 443.1875 C470.11662484 478.04264963 458.45633185 513.37555006 442 544 C441.31292969 545.29035156 440.62585938 546.58070313 439.91796875 547.91015625 C432.14669278 562.12248979 423.25364292 575.46776977 413 588 C412.34 589.32 411.68 590.64 411 592 C410.01 592.33 409.02 592.66 408 593 C408 593.66 408 594.32 408 595 C406.02 595.99 406.02 595.99 404 597 C401.63911659 598.96740284 399.30180237 600.96379021 397 603 C397.66 603.99 398.32 604.98 399 606 C404.8957907 606.05865561 410.79150504 606.09381604 416.6875 606.125 C418.34330078 606.14175781 419.99910156 606.15851563 421.70507812 606.17578125 C431.07805469 606.21290195 439.77768836 605.64182782 449 604 C468.72780326 601.85912103 488.59675529 600.73349219 508.38818359 599.33666992 C511.32989257 599.12192049 514.27055396 598.89189754 517.20947266 598.6418457 C528.61129293 597.69329339 528.61129293 597.69329339 534 601 C536 603 536 603 536.1875 608.0625 C536.13746254 610.70859836 536.07238572 613.35441867 536 616 C535.97035156 617.94519531 535.94070313 619.89039063 535.91015625 621.89453125 C535.61525283 633.82733064 535.24012439 644.76940028 531 656 C518.81406054 662.09296973 505.86991511 658.5464415 493.1875 655.5 C491.63667725 655.14123779 490.08585449 654.78247559 488.48803711 654.4128418 C483.65488546 653.29083832 478.82743211 652.14633134 474 651 C470.94562708 650.28641256 467.89094677 649.57413939 464.8359375 648.86328125 C454.43523218 646.43606819 444.04099561 643.98408956 433.6640625 641.45703125 C419.55219234 638.02468622 406.57318392 635.70559224 392 636 C383.74786509 647.00284655 388.31118812 667.97427835 389.0390625 680.93359375 C389.22316177 684.33418846 389.22316177 684.33418846 389.41098022 687.80348206 C389.67164705 692.58350464 389.94005486 697.36301923 390.21337891 702.14233398 C390.55801397 708.188423 390.87768413 714.23553809 391.19062233 720.2833395 C391.49884051 726.14685207 391.83310777 732.00882108 392.1640625 737.87109375 C392.2726358 740.00219101 392.38120911 742.13328827 392.49307251 744.32896423 C393.28535103 757.63533103 395.14205489 770.31259087 397.8445282 783.33572388 C399.34073283 790.67031756 400.35054214 798.00340114 401.1875 805.4375 C401.42992432 807.52674805 401.42992432 807.52674805 401.67724609 809.65820312 C403.55065981 826.24426025 404.72910051 842.84108869 405.4921875 859.51171875 C405.57710449 861.35572266 405.66202148 863.19972656 405.74951172 865.09960938 C405.91374308 868.76328129 406.06932376 872.42735348 406.21533203 876.09179688 C406.28864746 877.77724609 406.36196289 879.46269531 406.4375 881.19921875 C406.49808594 882.70315186 406.55867187 884.20708496 406.62109375 885.7565918 C406.88967947 890.02376218 406.88967947 890.02376218 408.05078125 894.15942383 C409.7362488 900.97889145 409.13307441 907.73385119 406 914 C389.89092588 924.22306627 369.19313484 921.79894382 351.3046875 919.046875 C345.93149809 917.74014654 340.96767021 915.96767021 337 912 C335.95727751 909.34974701 334.9604211 906.68117557 334 904 C333.34 902.35 332.68 900.7 332 899 C331.67676872 887.98202948 332.29683823 877.00233214 332.875 866 C332.95363281 864.38738281 333.03226563 862.77476562 333.11328125 861.11328125 C333.56155643 852.41674267 334.18310544 843.76582472 335.01953125 835.09765625 C336.04550708 824.21334948 336.46595645 813.36115529 336.8125 802.4375 C337.50082967 783.39371254 338.84982655 764.4793725 340.5 745.5 C342.76130194 719.34940113 344.28126117 693.24416203 345 667 C345.07589355 664.69491455 345.07589355 664.69491455 345.15332031 662.34326172 C345.27879685 658.35373968 345.36806404 654.36583818 345.4375 650.375 C345.47746094 648.27898437 345.51742187 646.18296875 345.55859375 644.0234375 C344.95190113 638.5674465 344.01564417 636.63521472 340 633 C332.54041774 629.27020887 322.68552681 633.33722016 315.15625 635.359375 C313.17159729 635.87785004 313.17159729 635.87785004 311.14685059 636.40679932 C306.92845255 637.51091418 302.71417504 638.62988617 298.5 639.75 C292.9697019 641.20675521 287.43799321 642.6581183 281.90625 644.109375 C280.58089737 644.4578801 279.25554474 644.80638519 277.89002991 645.16545105 C262.29852693 649.25430105 246.64460915 652.74216923 230.84765625 655.94921875 C226.37520815 656.70923457 226.37520815 656.70923457 224 658 C211.80434783 657.40217391 211.80434783 657.40217391 207 655 C201.08424449 640.21061124 200.59402642 620.21927824 205 605 C208.92498932 600.7098954 212.42549906 599.30965639 218 598 C222.90014175 598.02354422 227.67994275 598.18649082 232.5625 598.5 C234.02381348 598.58822021 235.48512695 598.67644043 236.99072266 598.76733398 C251.94750593 599.79180307 266.7703109 601.76587378 281.60766602 603.87890625 C292.42678735 605.39584917 303.09042475 606.41581099 314.01220703 606.78686523 C318 607 318 607 322 608 C327.16253067 608.36279136 327.16253067 608.36279136 332 607 C331.46963983 598.24905718 329.5660055 594.52176403 323.375 588.4375 C312.37815651 577.28355875 303.83122801 563.87543522 295 551 C294.1028125 549.700625 293.205625 548.40125 292.28125 547.0625 C291.12109375 545.33 291.12109375 545.33 289.9375 543.5625 C289.28652344 542.59441406 288.63554687 541.62632812 287.96484375 540.62890625 C282.63614457 530.78723321 279.65406045 520.01503615 276.8125 509.25 C276.46445312 507.93177246 276.11640625 506.61354492 275.7578125 505.25537109 C273.34531367 495.86996498 271.4669425 486.70428329 271 477 C270.92007813 475.66453125 270.84015625 474.3290625 270.7578125 472.953125 C270.14788518 454.22476842 276.91499571 434.04393439 288 419 C288.33 418.01 288.66 417.02 289 416 C290.32 415.34 291.64 414.68 293 414 C294.918125 412.205625 294.918125 412.205625 296.875 410.375 C323.04850757 388.03176183 357.90871117 386.1824637 390.76953125 388.30859375 C409.28930702 390.53727816 427.3604281 396.82186591 443 407 C443.99 406.505 443.99 406.505 445 406 C424.50336404 386.47939432 393.62875899 381.20159772 366.375 379.6875 C337.88469382 381.08408364 307.38687809 388.3655372 287.375 410 Z M337 400 C337 401.32 337 402.64 337 404 C342.50103704 404.00627972 347.99946802 403.94655164 353.5 403.875 C355.83191406 403.87886719 355.83191406 403.87886719 358.2109375 403.8828125 C366.93706526 403.73364792 372.53463078 403.55226934 379 397 C379 396.67 379 396.34 379 396 C364.96027166 395.67642111 350.42825266 395.52391578 337 400 Z M384 396 C382.68 397.65 381.36 399.3 380 401 C379.34 401.66 378.68 402.32 378 403 C379.32 403.33 380.64 403.66 382 404 C384.64 402.02 387.28 400.04 390 398 C390 397.34 390 396.68 390 396 C388.02 396 386.04 396 384 396 Z M392 401 C390.68 402.32 389.36 403.64 388 405 C389.32 405.33 390.64 405.66 392 406 C395.40407687 403.77114015 398.7449185 401.44131112 402 399 C401.67 398.34 401.34 397.68 401 397 C396.92989447 397 395.24606135 398.6151386 392 401 Z M398 407 C398.66 407.66 399.32 408.32 400 409 C405.73008841 407.85398232 407.85168306 405.98563784 412 402 C412 401.34 412 400.68 412 400 C405.96724031 400 402.73645617 403.50997966 398 407 Z M330 402 C329.01 402.33 328.02 402.66 327 403 C327 404.32 327 405.64 327 407 C328.32 406.67 329.64 406.34 331 406 C330.67 404.68 330.34 403.36 330 402 Z M408 409 C408 409.66 408 410.32 408 411 C411.03237771 412.06009466 411.03237771 412.06009466 415 412 C420.38803526 409.20126105 420.38803526 409.20126105 425 406 C424.67 405.34 424.34 404.68 424 404 C416.91152148 401.88853831 413.64582506 404.74391649 408 409 Z M429 407 C423.555 410.96 423.555 410.96 418 415 C418 415.66 418 416.32 418 417 C424.073629 415.7852742 425.87420847 413.44938303 430 409 C429.67 408.34 429.34 407.68 429 407 Z M666 410 C666 411.32 666 412.64 666 414 C670.764079 416.3820395 677.36885166 415.72775989 682.6875 416.0625 C684.05068359 416.15337891 685.41386719 416.24425781 686.81835938 416.33789062 C692.90831914 416.73280269 698.88991382 417 705 417 C705.33 415.35 705.66 413.7 706 412 C701.20859459 411.6624922 696.41693275 411.32986328 691.625 411 C689.60439453 410.85691406 689.60439453 410.85691406 687.54296875 410.7109375 C680.3451461 410.21937888 673.22014638 409.88784239 666 410 Z M315.4375 424.0625 C303.37307774 437.48629378 299.43564348 451.09783472 299.5625 468.875 C299.56934814 470.33848877 299.57619629 471.80197754 299.58325195 473.30981445 C300.2227677 516.67952105 324.98696649 549.06023165 353 580 C354.98 582.475 354.98 582.475 357 585 C360.27064842 587.95544787 360.27064842 587.95544787 364 590 C371.56442659 588.73926224 375.43195479 584.89957593 381 580 C383.5059375 577.8653125 383.5059375 577.8653125 386.0625 575.6875 C412.12634575 550.94334264 435.51442092 510.00869734 437.3125 473.6875 C436.5414989 457.18807647 431.53650585 442.5244992 422 429 C418.56666667 425.8 418.56666667 425.8 416 426 C415.505 423.525 415.505 423.525 415 421 C412.80304035 418.54042748 412.80304035 418.54042748 408 417 C406.659375 416.34 405.31875 415.68 403.9375 415 C377.24949979 406.01035782 338.47213414 407.23945259 315.4375 424.0625 Z M430.3125 417 C429.31863281 417.928125 428.32476562 418.85625 427.30078125 419.8125 C426.54152344 420.534375 425.78226562 421.25625 425 422 C425.825 422.886875 426.65 423.77375 427.5 424.6875 C431.92285484 430.137089 435.42307223 435.97489779 439 442 C439.99 443.65 440.98 445.3 442 447 C446.79670265 444.40978057 450.90315623 441.59722867 455 438 C454.67 436.68 454.34 435.36 454 434 C449.62519486 434 447.48962664 436.48991768 444 439 C442.68 439.33 441.36 439.66 440 440 C442.47097194 435.05805611 445.80077396 432.52193152 450 429 C448.49756027 421.48780136 444.66739666 417.06448212 439 412 C434.69053492 412 433.40131451 414.09288046 430.3125 417 Z M295 426 C292.08828211 429.66980204 292.08828211 429.66980204 291 434 C292.32 433.34 293.64 432.68 295 432 C295.66 430.02 296.32 428.04 297 426 C296.34 426 295.68 426 295 426 Z M460 432 C461 434 461 434 461 434 Z M292 440 C287.55130851 442.72987887 285.38233166 444.77208543 282 449 C282 450.65 282 452.3 282 454 C287.56864617 450.16585018 289.89448334 448.21103331 293 442 C292.67 441.34 292.34 440.68 292 440 Z M446 450 C445.34 450.66 444.68 451.32 444 452 C444.33 454.97 444.66 457.94 445 461 C449.85594622 458.57202689 453.75728324 455.36921625 458 452 C457.67 449.03 457.34 446.06 457 443 C452.7985921 443 449.11691667 447.48915046 446 450 Z M288 456 C284.41768443 458.7370157 284.41768443 458.7370157 281 462 C281 463.32 281 464.64 281 466 C285.31622777 464.10540926 285.31622777 464.10540926 289 460 C288.67 458.68 288.34 457.36 288 456 Z M446 466.9375 C445.34 467.618125 444.68 468.29875 444 469 C444.33 470.32 444.66 471.64 445 473 C451.98933891 468.03778315 451.98933891 468.03778315 458 462 C458 460.35 458 458.7 458 457 C454.27519426 457 448.63716997 464.35527107 446 466.9375 Z M666 463 C666 464.98 666 466.96 666 469 C679.04331535 471.17388589 691.79590001 471.1965871 705 471 C705.33 469.02 705.66 467.04 706 465 C692.8145026 462.8024171 679.33974474 462.86792332 666 463 Z M284.375 471.1875 C281.46234932 474.0231685 281.46234932 474.0231685 282 479 C287.19515634 475.19444234 287.19515634 475.19444234 289 469 C286.68657639 468.7866052 286.68657639 468.7866052 284.375 471.1875 Z M450.5 473.4375 C448.99953125 474.67306641 448.99953125 474.67306641 447.46875 475.93359375 C443.4761504 479.27550069 443.70040473 480.77269041 442.9375 486.0625 C439.25444441 507.12607029 430.58497969 526.08564008 421 545 C423.25308553 546.39770584 423.25308553 546.39770584 427 545 C423.55558669 549.07706066 420.22052227 552.81504584 416.125 556.25 C412.65238891 558.78090336 412.65238891 558.78090336 412 563 C413.753125 561.865625 415.50625 560.73125 417.3125 559.5625 C423 556 423 556 426 555 C417.00378225 565.464988 407.49893094 574.33404604 396 582 C396.33 582.66 396.66 583.32 397 584 C413.13049455 575.20285306 422.45114929 567.60919567 431 551 C431.95003906 549.31390625 432.90007812 547.6278125 433.87890625 545.890625 C446.20428646 523.5540176 458.00096793 495.02516613 457 469 C454.75150351 469 452.08905382 472.1248924 450.5 473.4375 Z M287 482 C285.68 483.32 284.36 484.64 283 486 C283 486.99 283 487.98 283 489 C287.52595471 487.29065918 287.52595471 487.29065918 289 482 C288.34 482 287.68 482 287 482 Z M289 493 C284.4340344 497.60844445 284.4340344 497.60844445 285.125 503.1875 C285.50787054 507.88734386 285.50787054 507.88734386 288 510 C290.73032683 507.49322063 290.73032683 507.49322063 293 504 C292.87979063 499.97298619 292.26857268 496.80571804 291 493 C290.34 493 289.68 493 289 493 Z M294 511 C289.58269336 515.63777796 289.58269336 515.63777796 289 522 C289.66 522 290.32 522 291 522 C294.47188325 516.80728896 294.47188325 516.80728896 296 511 C295.34 511 294.68 511 294 511 Z M667 516 C666.67 518.64 666.34 521.28 666 524 C679.2 524 692.4 524 706 524 C706 521.36 706 518.72 706 516 C702.44656204 514.81552068 699.59722116 514.87044213 695.84765625 514.8671875 C694.43162109 514.86589844 693.01558594 514.86460937 691.55664062 514.86328125 C690.07357422 514.86714844 688.59050781 514.87101563 687.0625 514.875 C685.58330078 514.87113281 684.10410156 514.86726562 682.58007812 514.86328125 C681.16275391 514.86457031 679.74542969 514.86585938 678.28515625 514.8671875 C676.33428101 514.86887939 676.33428101 514.86887939 674.34399414 514.87060547 C670.85442604 514.89129633 670.85442604 514.89129633 667 516 Z M298 518 C294.55510649 523.67912008 294.55510649 523.67912008 295 530 C297.6678683 526.79900026 297.6678683 526.79900026 300 523 C299.67 521.35 299.34 519.7 299 518 C298.67 518 298.34 518 298 518 Z M303 526 C300.3346162 529.71395082 300.3346162 529.71395082 298 534 C298.33 535.65 298.66 537.3 299 539 C299.66 539.33 300.32 539.66 301 540 C303.5242434 533.09791602 303.5242434 533.09791602 303 526 Z M308 534 C307.071875 535.7015625 307.071875 535.7015625 306.125 537.4375 C304 541 304 541 302 542 C303.96517933 547.895538 306.47385593 551.94074981 310 557 C313.21081851 554.10540926 313.21081851 554.10540926 315 550 C315 548.35 315 546.7 315 545 C314.01 545 313.02 545 312 545 C311.67 546.32 311.34 547.64 311 549 C309.68 548.67 308.36 548.34 307 548 C308 542 308 542 310 536 C309.34 535.34 308.68 534.68 308 534 Z M319 555 C317.35 556.98 315.7 558.96 314 561 C315.98126682 565.95316704 317.99977513 568.68366905 321.4375 572.6875 C322.40558594 573.82574219 323.37367188 574.96398437 324.37109375 576.13671875 C326.86737188 579.0832862 326.86737188 579.0832862 330 581 C331.65 579.02 333.3 577.04 335 575 C332.73375911 570.46751821 329.93618799 566.78816287 326.875 562.75 C325.23144531 560.57664062 325.23144531 560.57664062 323.5546875 558.359375 C322.71164062 557.25078125 321.86859375 556.1421875 321 555 C320.34 555 319.68 555 319 555 Z M668 566 C665.78918149 571.57836298 665.78918149 571.57836298 666 576 C670.34279503 577.08569876 673.7945732 577.02059451 678.265625 576.87890625 C680.68261719 576.80639648 680.68261719 576.80639648 683.1484375 576.73242188 C684.83195313 576.67634766 686.51546875 576.62027344 688.25 576.5625 C689.94898438 576.51029297 691.64796875 576.45808594 693.3984375 576.40429688 C697.59913972 576.2744999 701.79961155 576.13952782 706 576 C706 573.03 706 570.06 706 567 C693.86883835 563.04486611 680.52995779 565.03615709 668 566 Z M337 578 C337 581 337 581 337 581 Z M337.375 585.5 C336.59125 586.325 335.8075 587.15 335 588 C335.66 589.32 336.32 590.64 337 592 C339.31 590.02 341.62 588.04 344 586 C343.34 585.01 342.68 584.02 342 583 C339.63721264 582.77011494 339.63721264 582.77011494 337.375 585.5 Z M339 596 C339 596.66 339 597.32 339 598 C340.32 598.33 341.64 598.66 343 599 C346.88266153 595.08553417 346.88266153 595.08553417 348 590 C344.15536107 590 341.6699146 593.52785685 339 596 Z M504.5 608.875 C501.79176832 611.5932975 501.79176832 611.5932975 502 614 C500.02 614.99 500.02 614.99 498 616 C495.77884149 617.81371033 493.59573312 619.67434745 491.4375 621.5625 C486.96812313 625.44465947 482.47777041 629.27689769 477.875 633 C473.01430856 636.85487031 473.01430856 636.85487031 469 641 C475.13444178 641 475.71460433 639.87844438 479.9375 635.6875 C491.0314203 625.06778552 503.11395193 616.31998342 516 608 C516 607.34 516 606.68 516 606 C510.70675584 605.45242302 508.70265089 605.42282248 504.5 608.875 Z M357.8828125 609.88671875 C356.64273437 611.14097656 355.40265625 612.39523437 354.125 613.6875 C352.89007813 614.92886719 351.65515625 616.17023437 350.3828125 617.44921875 C345.25977543 622.02131479 345.25977543 622.02131479 343 628 C351.42255064 623.78872468 357.88665734 614.75817507 363 607 C360.53648166 606.77351232 360.53648166 606.77351232 357.8828125 609.88671875 Z M504 606 C497.81158415 606.44647141 491.62449167 606.90924022 485.4375 607.375 C483.68373047 607.50132812 481.92996094 607.62765625 480.12304688 607.7578125 C477.58520508 607.95117188 477.58520508 607.95117188 474.99609375 608.1484375 C473.44075928 608.26364746 471.8854248 608.37885742 470.28295898 608.49755859 C461.5560439 609.52132826 456.6468358 612.36741345 449.625 617.6875 C448.02914063 618.88761719 446.43328125 620.08773437 444.7890625 621.32421875 C440.17756929 624.86370905 435.58250502 628.42307474 431 632 C434.57209739 635.57209739 439.86828799 635.63272396 444.6875 636.625 C447.87986328 637.29402344 447.87986328 637.29402344 451.13671875 637.9765625 C459.90551385 639.68098444 459.90551385 639.68098444 467.83203125 636.4375 C469.14558594 635.303125 470.45914063 634.16875 471.8125 633 C473.21757812 631.80890625 474.62265625 630.6178125 476.0703125 629.390625 C478.01550781 627.71226562 478.01550781 627.71226562 480 626 C497.22641509 611.88679245 497.22641509 611.88679245 505 608 C504.505 607.01 504.505 607.01 504 606 Z M211 608 C209.46289739 612.61130783 209.94325393 617.17658442 210 622 C211.32 621.01 212.64 620.02 214 619 C213.34 615.37 212.68 611.74 212 608 C211.67 608 211.34 608 211 608 Z M233 621 C233.33 621.66 233.66 622.32 234 623 C234.99 621.96875 235.98 620.9375 237 619.875 C246.24590164 610.91803279 246.24590164 610.91803279 252 609 C247.80313456 613.86454857 243.50760909 618.61604678 239.125 623.3125 C231.55827467 631.48456336 224.60384435 640.02554485 218 649 C229.5514736 649.43318026 241.71606957 649.42714434 251 642 C253.02155636 639.34963757 255.01939005 636.68109965 257 634 C259.35761974 631.3200596 261.75381538 628.67355928 264.1875 626.0625 C265.39792969 624.75410156 266.60835938 623.44570313 267.85546875 622.09765625 C271 619 271 619 274 618 C271.76434333 623.58914168 269.29245326 625.84828291 265 630 C260.9044699 634.58981822 256.91451404 639.25513449 253 644 C261.46416017 643.77123891 265.35402944 641.2272765 271.0625 635.375 C272.23683594 634.12074219 273.41117187 632.86648438 274.62109375 631.57421875 C279.61030337 626.29661551 284.8086858 620.79782855 292 619 C289.48770979 624.02458042 286.2905243 626.37420482 282 630 C278.99793051 632.66433667 275.99741461 635.33042761 273 638 C278.37901465 639.34475366 280.91341045 638.14172192 286 636 C291.82721487 631.20040601 297.16949703 625.96537428 302.5 620.625 C304.61921875 618.50964844 304.61921875 618.50964844 306.78125 616.3515625 C310.1154453 613.65426811 310.1154453 613.65426811 310 612 C304.43758305 611.51986608 298.87505163 611.04107087 293.3125 610.5625 C291.75208984 610.42779297 290.19167969 610.29308594 288.58398438 610.15429688 C281.6880133 609.56156142 274.79259218 608.97581802 267.890625 608.45703125 C264.3991648 608.1861421 260.9099931 607.8675954 257.43359375 607.4453125 C244.94579838 606.44433574 240.07656785 611.073716 233 621 Z M521 608 C519.515 609.98 519.515 609.98 518 612 C521.89459074 610.31622777 521.89459074 610.31622777 524 608 C523.01 608 522.02 608 521 608 Z M237 609 C236.01 609.99 235.02 610.98 234 612 C234.33 612.66 234.66 613.32 235 614 C235.99 613.01 236.98 612.02 238 611 C237.67 610.34 237.34 609.68 237 609 Z M441 614 C438.06907654 616.14025574 435.1755969 618.33232443 432.3125 620.5625 C424.16535433 626.88976378 424.16535433 626.88976378 421 629 C421 629.66 421 630.32 421 631 C428.26305502 631 429.49652161 629.48954864 434.875 624.875 C440.13863585 620.40243081 445.4357295 616.09540267 451 612 C446.52998401 610.42151878 446.52998401 610.42151878 441 614 Z M407 622 C403.95033835 625.30044237 403.95033835 625.30044237 402 628 C408.16718108 626.97213649 409.9184979 625.95159946 414.625 622.1875 C416.28402344 620.87845703 416.28402344 620.87845703 417.9765625 619.54296875 C421.25593569 616.85872568 421.25593569 616.85872568 425 613 C416.35790874 613 412.96659399 616.34598567 407 622 Z M426.51953125 615.16796875 C425.68808594 616.10253906 424.85664063 617.03710938 424 618 C421.91432779 619.792579 419.80975662 621.5633874 417.6875 623.3125 C416.61886719 624.19550781 415.55023438 625.07851563 414.44921875 625.98828125 C413.64097656 626.65214844 412.83273437 627.31601562 412 628 C412.33 628.66 412.66 629.32 413 630 C418.25611888 628.68597028 420.97529397 625.96436438 425.125 622.5 C432.84741144 616.07629428 432.84741144 616.07629428 435 615 C435 614.34 435 613.68 435 613 C429.20388369 612.34191522 429.20388369 612.34191522 426.51953125 615.16796875 Z M526 613 C524.51113281 614.21623047 524.51113281 614.21623047 522.9921875 615.45703125 C512.77632638 623.78286114 502.54452939 632.09160296 492 640 C491.01 639.67 490.02 639.34 489 639 C490.98 636.36 492.96 633.72 495 631 C490.95574399 633.02212801 487.80942275 635.34865025 484.25 638.125 C483.07953125 639.03507813 481.9090625 639.94515625 480.703125 640.8828125 C479.81109375 641.58148437 478.9190625 642.28015625 478 643 C482.74810165 645.37405082 486.74628671 645.58523316 492 646 C493.19625 644.741875 494.3925 643.48375 495.625 642.1875 C505.10823443 632.70426557 516.26339722 624.986985 527 617 C526.505 615.02 526.505 615.02 526 613 Z M301.875 628.0625 C300.59625 629.361875 299.3175 630.66125 298 632 C302.55540442 632 304.14428024 629.34025368 307.375 626.25 C311.16907105 622.63909101 314.9017959 619.27856328 319 616 C319 615.34 319 614.68 319 614 C313.50288443 614 305.8022566 624.14146726 301.875 628.0625 Z M398 614 C397.67 614.66 397.34 615.32 397 616 C397.66 616 398.32 616 399 616 C398.67 615.34 398.34 614.68 398 614 Z M325 616 C324.01 617.485 324.01 617.485 323 619 C324.32 618.34 325.64 617.68 327 617 C326.34 616.67 325.68 616.34 325 616 Z M666 617 C666 620.63 666 624.26 666 628 C678.5347441 632.00981411 692.94002291 631.57817607 706 631 C707.71208065 629.52117929 707.71208065 629.52117929 707.0625 623.9375 C707.041875 621.978125 707.02125 620.01875 707 618 C703.03649997 616.67883332 699.5772965 616.88844752 695.39453125 616.90234375 C693.68974609 616.90556641 691.98496094 616.90878906 690.22851562 616.91210938 C688.44123047 616.92048828 686.65394531 616.92886719 684.8125 616.9375 C683.01361328 616.94201172 681.21472656 616.94652344 679.36132812 616.95117188 C674.90751916 616.96298569 670.45377589 616.97945821 666 617 Z M321 619 C319.515 620.98 319.515 620.98 318 623 C322 621.5 322 621.5 323 619 C322.34 619 321.68 619 321 619 Z M232 623 C230.35 624.65 228.7 626.3 227 628 C227.33 628.66 227.66 629.32 228 630 C229.65 628.35 231.3 626.7 233 625 C232.67 624.34 232.34 623.68 232 623 Z M316 623 C314.515 624.98 314.515 624.98 313 627 C317 625.5 317 625.5 318 623 C317.34 623 316.68 623 316 623 Z M325 623 C323.515 624.98 323.515 624.98 322 627 C323.32 626.67 324.64 626.34 326 626 C326.33 625.01 326.66 624.02 327 623 C326.34 623 325.68 623 325 623 Z M226 630 C224.35 631.65 222.7 633.3 221 635 C221.33 635.66 221.66 636.32 222 637 C223.65 635.35 225.3 633.7 227 632 C226.67 631.34 226.34 630.68 226 630 Z M371 634 C369.24051832 635.82542477 367.51806913 637.68660413 365.8125 639.5625 C364.87019531 640.59503906 363.92789062 641.62757813 362.95703125 642.69140625 C361.98121094 643.78324219 361.00539063 644.87507812 360 646 C358.39318359 647.39025391 358.39318359 647.39025391 356.75390625 648.80859375 C352.34836573 655.51376393 352.58403964 662.63257054 352.125 670.5 C352.00898438 672.05976562 351.89296875 673.61953125 351.7734375 675.2265625 C351.09964115 684.83618187 350.89324943 694.36872628 351 704 C359.36225573 695.67908932 367.3104381 686.94500058 375 678 C375.88171875 677.19175781 376.7634375 676.38351562 377.671875 675.55078125 C381.13124506 670.27466148 380.47980162 665.84862038 380.3125 659.625 C380.26738281 657.45164062 380.22226562 655.27828125 380.17578125 653.0390625 C380.11777344 651.37617187 380.05976563 649.71328125 380 648 C375.24665633 651.94819762 370.95797671 656.04513311 366.8125 660.625 C363.5990823 664.16429703 360.38188568 667.61811432 357 671 C358.21202671 666.15189316 360.19861421 664.16823267 363.5 660.4375 C364.57894531 659.19742188 365.65789062 657.95734375 366.76953125 656.6796875 C368.76221028 654.40991283 370.7587882 652.143546 372.76171875 649.8828125 C377.09133328 644.84902556 379.45640664 641.61236704 380 635 C375.37334279 638.70132577 371.97784245 642.56515781 368.28515625 647.1640625 C359.92733564 657.53633218 359.92733564 657.53633218 357 659 C361.93412781 651.33911735 367.39180425 644.17095386 373 637 C372.67 636.01 372.34 635.02 372 634 C371.67 634 371.34 634 371 634 Z M219 638 C218.01 638.99 217.02 639.98 216 641 C216.33 641.66 216.66 642.32 217 643 C217.99 642.01 218.98 641.02 220 640 C219.67 639.34 219.34 638.68 219 638 Z M499 646 C499 646.99 499 647.98 499 649 C501.97 649.495 501.97 649.495 505 650 C504.67 649.01 504.34 648.02 504 647 C502.35 646.67 500.7 646.34 499 646 Z M22 678 C22 681.96 22 685.92 22 690 C25.37770989 691.68885494 28.99497568 691.10969363 32.7265625 691.09765625 C34.4796875 691.09443359 36.2328125 691.09121094 38.0390625 691.08789062 C39.88242187 691.07951172 41.72578125 691.07113281 43.625 691.0625 C46.40164062 691.05573242 46.40164062 691.05573242 49.234375 691.04882812 C53.82294843 691.0370019 58.41145853 691.02052121 63 691 C63 687.37 63 683.74 63 680 C52.84424194 676.78466347 31.7794773 673.11026135 22 678 Z M378 678 C376.783125 679.505625 375.56625 681.01125 374.3125 682.5625 C370.40164238 687.35206297 366.38093123 692.03119912 362.3125 696.6875 C353.94839401 704.87172303 353.94839401 704.87172303 350 715 C359.23985328 710.38007336 366.39372509 700.77208812 373 693 C374.299375 691.659375 375.59875 690.31875 376.9375 688.9375 C380.71626405 684.91046699 380.71626405 684.91046699 380 678 C379.34 678 378.68 678 378 678 Z M379 692 C376.83091178 694.37244024 374.66688953 696.74974928 372.53125 699.15234375 C370.20811686 701.76586853 367.8554425 704.35305615 365.5 706.9375 C356.84574891 716.33317683 356.84574891 716.33317683 350 727 C356.93217097 721.33093622 363.13779797 714.97330508 369.4375 708.625 C370.55060547 707.50738281 371.66371094 706.38976562 372.81054688 705.23828125 C375.54265371 702.49444864 378.27238927 699.74830097 381 697 C380.67 695.35 380.34 693.7 380 692 C379.67 692 379.34 692 379 692 Z M376.3125 707.5 C372.4114212 711.57069092 368.69693121 715.74504143 365 720 C363.35096855 721.68411723 361.69210745 723.35916853 360 725 C360.33 725.66 360.66 726.32 361 727 C361.99 725.989375 362.98 724.97875 364 723.9375 C367.8750417 720.12300583 371.90092213 716.5701646 376 713 C380.18542471 709.23877317 380.18542471 709.23877317 382 704 C379.39442559 703.77052456 379.39442559 703.77052456 376.3125 707.5 Z M381 713 C377.80931825 716.16351417 374.62240294 719.3306766 371.4375 722.5 C370.54224609 723.386875 369.64699219 724.27375 368.72460938 725.1875 C363.60035203 730.29298717 358.69936051 735.4936786 354 741 C351.66666667 743.66666667 349.33333333 746.33333333 347 749 C347.33 749.66 347.66 750.32 348 751 C368.38145315 734.91902198 368.38145315 734.91902198 383 715 C382.34 714.34 381.68 713.68 381 713 Z M50.734375 731.12109375 C48.31738281 731.19360352 48.31738281 731.19360352 45.8515625 731.26757812 C44.16804688 731.32365234 42.48453125 731.37972656 40.75 731.4375 C39.05101563 731.48970703 37.35203125 731.54191406 35.6015625 731.59570312 C31.40086028 731.7255001 27.20038845 731.86047218 23 732 C23 734.97 23 737.94 23 741 C35.08241321 744.98546355 48.51166078 743.05164962 61 742 C63.30949223 737.12379689 63.30949223 737.12379689 63 732 C58.65720497 730.91430124 55.2054268 730.97940549 50.734375 731.12109375 Z M382 723 C381.15179688 723.90878906 380.30359375 724.81757812 379.4296875 725.75390625 C376.95870445 728.40138809 374.48732104 731.0484963 372.015625 733.6953125 C369.41888138 736.47898124 366.82493694 739.26526499 364.234375 742.0546875 C363.04328125 743.33601562 361.8521875 744.61734375 360.625 745.9375 C359.00464844 747.68353516 359.00464844 747.68353516 357.3515625 749.46484375 C354 753 354 753 349.6796875 756.15234375 C343.78948967 763.9121479 344.64121801 772.1331321 344.5 781.625 C344.44215332 783.55190674 344.38430664 785.47881348 344.32470703 787.46411133 C344.17155749 792.976331 344.07237762 798.48618923 344 804 C343.9803418 805.3730127 343.96068359 806.74602539 343.94042969 808.16064453 C343.87029987 814.1094472 343.87329892 820.05208806 344 826 C345.02480469 824.97326172 345.02480469 824.97326172 346.0703125 823.92578125 C348.14331886 821.8555389 350.22201426 819.79098589 352.3046875 817.73046875 C358.43123552 811.65084177 364.34567122 805.52422551 370 799 C372.49709743 796.47026078 375.02581785 793.97449797 377.5546875 791.4765625 C380.86619322 788.12273722 383.94460906 784.58676328 387 781 C386.67 780.34 386.34 779.68 386 779 C385.11957031 779.74765625 384.23914063 780.4953125 383.33203125 781.265625 C382.17058594 782.25046875 381.00914062 783.2353125 379.8125 784.25 C378.66394531 785.22453125 377.51539063 786.1990625 376.33203125 787.203125 C368.38918919 793.87027027 368.38918919 793.87027027 365 795 C367.85887065 786.42338806 373.68410809 781.98970995 380.4375 776.1875 C384.19916526 773.2156101 384.19916526 773.2156101 386 769 C386.00862359 764.99865319 385.88494523 760.99648171 385.6875 757 C385.53861328 753.7825 385.53861328 753.7825 385.38671875 750.5 C385.01917672 744.32232389 384.54310701 738.16449664 384 732 C374.97708209 739.17732106 367.36566018 747.95559701 360.1875 756.9375 C352.47368421 766.26315789 352.47368421 766.26315789 347 769 C349.56972699 763.45638707 352.34607722 759.02384908 356.375 754.4375 C357.426875 753.23996094 358.47875 752.04242187 359.5625 750.80859375 C367.18989244 742.35778963 374.9128424 734.0138601 383 726 C382.505 724.515 382.505 724.515 382 723 Z M23 784 C23 786.64 23 789.28 23 792 C26.55343796 793.18447932 29.40277884 793.12955787 33.15234375 793.1328125 C34.56837891 793.13410156 35.98441406 793.13539063 37.44335938 793.13671875 C38.92642578 793.13285156 40.40949219 793.12898437 41.9375 793.125 C43.41669922 793.12886719 44.89589844 793.13273438 46.41992188 793.13671875 C47.83724609 793.13542969 49.25457031 793.13414062 50.71484375 793.1328125 C52.66571899 793.13112061 52.66571899 793.13112061 54.65600586 793.12939453 C58.14557396 793.10870367 58.14557396 793.10870367 62 792 C62.33 789.36 62.66 786.72 63 784 C49.8 784 36.6 784 23 784 Z M383.6484375 791.21875 C381.53308594 793.33796875 381.53308594 793.33796875 379.375 795.5 C377.98023438 796.8921875 376.58546875 798.284375 375.1484375 799.71875 C371.28514082 803.70573038 367.63877773 807.80901818 364 812 C360.22889305 816.05364566 356.42545504 820.07523536 352.62109375 824.09765625 C345.60660849 830.78223673 345.60660849 830.78223673 342.625 839.4375 C342.74875 840.613125 342.8725 841.78875 343 843 C347.33436253 839.53250997 350.31506534 836.17750579 353.69921875 831.84375 C357.04512883 827.70822787 360.65654892 823.84003266 364.27734375 819.9453125 C366.72791414 817.29433679 369.11803849 814.58778949 371.5 811.875 C374.88642409 808.20637391 378.22367774 804.92832175 381.9375 801.625 C387.039191 797.5194612 387.039191 797.5194612 389 793 C388.505 790.525 388.505 790.525 388 788 C386.34573189 787.8845547 386.34573189 787.8845547 383.6484375 791.21875 Z M388 801 C382.56948076 806.5742875 377.29948263 812.30130964 372 818 C371.04351562 819.01835938 370.08703125 820.03671875 369.1015625 821.0859375 C362.63112569 828.05893251 356.82153456 835.48304081 351 843 C348.34499893 846.34286865 345.67293846 849.67143512 343 853 C343.33 853.66 343.66 854.32 344 855 C346.02409387 853.00329988 348.04410778 851.00246353 350.0625 849 C351.18785156 847.88625 352.31320312 846.7725 353.47265625 845.625 C355.85173911 843.18005106 358.16173927 840.66620061 360.40234375 838.09375 C365.59968958 832.17972347 371.23861885 826.74323178 376.84375 821.21875 C381.57504154 816.41631122 386.25204094 811.62193859 390 806 C389.505 803.525 389.505 803.525 389 801 C388.67 801 388.34 801 388 801 Z M389 814 C380.5694967 822.91667957 372.17520415 831.84865208 364 841 C358.2465374 847.18282548 358.2465374 847.18282548 355.3828125 850.23828125 C352.67792593 853.21450732 352.67792593 853.21450732 350 858 C350.33 858.99 350.66 859.98 351 861 C356.70035518 854.81792467 362.16254222 848.5804289 367.44140625 842.03125 C371.65807346 837.03562595 376.17180231 832.32155536 380.66796875 827.578125 C383.87928962 824.12962568 386.95923556 820.59908386 390 817 C389.505 815.515 389.505 815.515 389 814 Z M391 831 C388.69 833.97 386.38 836.94 384 840 C384.33 840.66 384.66 841.32 385 842 C387.72988057 839.39808258 390.39508501 836.72702038 393 834 C393 833.01 393 832.02 393 831 C392.34 831 391.68 831 391 831 Z M24 837 C23.67 838.98 23.34 840.96 23 843 C36.36256683 844.18308892 49.58030794 845.28251983 63 845 C63 843.02 63 841.04 63 839 C49.95668465 836.82611411 37.20409999 836.8034129 24 837 Z M393 841 C387.51651712 846.82092799 382.40992523 852.87485792 377.375 859.08984375 C372.99399874 864.45801142 368.48630009 869.71982788 364 875 C362.02005801 877.33267547 360.04087317 879.66599384 358.0625 882 C357.18722656 883.03125 356.31195313 884.0625 355.41015625 885.125 C350.7173429 889.90938779 350.7173429 889.90938779 349 896 C353.7458812 893.6270594 356.05967757 890.41481472 359.3203125 886.3203125 C363.30404939 881.38419536 367.49110432 876.63076163 371.65625 871.84765625 C375.8854276 866.98113763 380.07312551 862.07998944 384.25390625 857.171875 C386.69352318 854.35399598 389.21636718 851.60865646 391.75 848.875 C395.42840817 845.33211932 395.42840817 845.33211932 395 841 C394.34 841 393.68 841 393 841 Z M395 852 C393.80375 853.464375 392.6075 854.92875 391.375 856.4375 C387.26051851 861.46703179 383.13213745 866.48496551 379 871.5 C370.93917624 881.28566669 362.90259263 891.08583834 355 901 C357.38871837 905.77743673 359.2140065 906.80979959 364 909 C369.09788327 908.54730896 369.09788327 908.54730896 371.32421875 905.0078125 C372.10410156 903.72648438 372.88398438 902.44515625 373.6875 901.125 C384.42590973 884.28704514 384.42590973 884.28704514 393 880 C389.50515425 887.95378687 384.91870283 894.16319131 379.42578125 900.80078125 C376.70623458 904.09389272 376.70623458 904.09389272 375 909 C380.0798651 908.53843601 380.0798651 908.53843601 382.359375 905.078125 C383.54273438 903.18320312 383.54273438 903.18320312 384.75 901.25 C388.70595714 895.00468835 392.85129751 889.01206536 397.28515625 883.09765625 C401.18846925 876.046797 399.82506918 869.17642061 398.5625 861.5 C398.27503906 859.7159375 397.98757813 857.931875 397.69140625 856.09375 C397.46324219 854.7428125 397.23507812 853.391875 397 852 C396.34 852 395.68 852 395 852 Z M24 891 C23.67 892.65 23.34 894.3 23 896 C27.79140541 896.3375078 32.58306725 896.67013672 37.375 897 C39.39560547 897.14308594 39.39560547 897.14308594 41.45703125 897.2890625 C48.6548539 897.78062112 55.77985362 898.11215761 63 898 C63 896.68 63 895.36 63 894 C58.235921 891.6179605 51.63114834 892.27224011 46.3125 891.9375 C44.94931641 891.84662109 43.58613281 891.75574219 42.18164062 891.66210938 C36.09168086 891.26719731 30.11008618 891 24 891 Z M23 946 C23 946.66 23 947.32 23 948 C30.31202361 949.024762 37.31539627 948.98203247 44.6875 948.6875 C47.94173828 948.56955078 47.94173828 948.56955078 51.26171875 948.44921875 C57.14079947 948.22109183 57.14079947 948.22109183 63 946 C63 945.67 63 945.34 63 945 C58.2082948 944.97287714 53.41674523 944.95310103 48.625 944.9375 C47.27792969 944.92912109 45.93085937 944.92074219 44.54296875 944.91210938 C37.28688181 944.8944116 30.2157641 945.11028928 23 946 Z M23 995 C23.33 996.65 23.66 998.3 24 1000 C28.8431589 1000.7667198 33.56474477 1001.17407972 38.46484375 1001.31640625 C39.84091797 1001.35830078 41.21699219 1001.40019531 42.63476562 1001.44335938 C44.05466797 1001.48267578 45.47457031 1001.52199219 46.9375 1001.5625 C48.38447266 1001.60568359 49.83144531 1001.64886719 51.32226562 1001.69335938 C54.88140808 1001.79907648 58.44069212 1001.90000749 62 1002 C62.33 1000.68 62.66 999.36 63 998 C60.2345402 995.2345402 51.04337881 996.18662074 46.9375 995.9375 C45.53048828 995.84662109 44.12347656 995.75574219 42.67382812 995.66210938 C36.10745311 995.25074438 29.58303769 994.87159224 23 995 Z M23 1048 C23 1049.98 23 1051.96 23 1054 C31.56397256 1056.85465752 41.27372991 1056.1096628 50.1875 1056.0625 C52.40855469 1056.05347656 54.62960938 1056.04445313 56.91796875 1056.03515625 C59.43357422 1056.01775391 59.43357422 1056.01775391 62 1056 C62.33 1054.02 62.66 1052.04 63 1050 C58.77124987 1049.66048744 54.54212695 1049.32825631 50.3125 1049 C48.54422852 1048.85691406 48.54422852 1048.85691406 46.74023438 1048.7109375 C38.80117511 1048.10191378 30.96245209 1047.91122005 23 1048 Z M24 1101 C23.67 1103.64 23.34 1106.28 23 1109 C36.2 1109 49.4 1109 63 1109 C63 1106.36 63 1103.72 63 1101 C50.39875848 1098.4797517 36.73961021 1099.77208576 24 1101 Z M24 1152 C23.67 1155.3 23.34 1158.6 23 1162 C28.54165563 1162.02906306 34.08329161 1162.04682015 39.625 1162.0625 C41.98205078 1162.07506836 41.98205078 1162.07506836 44.38671875 1162.08789062 C45.90136719 1162.09111328 47.41601562 1162.09433594 48.9765625 1162.09765625 C51.06605225 1162.10551147 51.06605225 1162.10551147 53.19775391 1162.11352539 C57.38797821 1162.07397151 57.38797821 1162.07397151 63 1161 C63.04224933 1158.00029752 63.04109204 1154.99971856 63 1152 C57.05673058 1146.05673058 31.73145192 1150.06713702 24 1152 Z M638 1163 C638.66 1163.66 639.32 1164.32 640 1165 C640 1164.34 640 1163.68 640 1163 C639.34 1163 638.68 1163 638 1163 Z M640 1165 C640 1170.28 640 1175.56 640 1181 C640.33 1181 640.66 1181 641 1181 C641 1175.72 641 1170.44 641 1165 C640.67 1165 640.34 1165 640 1165 Z M675 1165 C676 1168 676 1168 676 1168 Z M691 1165 C692 1168 692 1168 692 1168 Z M674 1168 C675 1172 675 1172 675 1172 Z M690 1168 C691 1172 691 1172 691 1172 Z M627 1171 C628 1173 628 1173 628 1173 Z M673 1172 C674 1176 674 1176 674 1176 Z M689 1172 C690 1176 690 1176 690 1176 Z M624 1176 C625 1178 625 1178 625 1178 Z M672 1176 C673 1179 673 1179 673 1179 Z M688 1176 C689 1179 689 1179 689 1179 Z M623 1179 C624 1181 624 1181 624 1181 Z M671 1180 C670.67 1180.99 670.34 1181.98 670 1183 C669.34 1183.66 668.68 1184.32 668 1185 C668.66 1185 669.32 1185 670 1185 C669.67 1186.98 669.34 1188.96 669 1191 C671.18490007 1188.32357511 671.18490007 1188.32357511 671 1186 C671.99 1185.67 672.98 1185.34 674 1185 C673.34 1185 672.68 1185 672 1185 C673 1182 673 1182 676 1180 C674.35 1180 672.7 1180 671 1180 Z M687 1180 C686.67 1182.31 686.34 1184.62 686 1187 C686.99 1186.67 687.98 1186.34 689 1186 C688.67 1184.02 688.34 1182.04 688 1180 C687.67 1180 687.34 1180 687 1180 Z M651 1182 C650.67 1183.65 650.34 1185.3 650 1187 C650.99 1186.67 651.98 1186.34 653 1186 C652.34 1184.68 651.68 1183.36 651 1182 Z M657 1182 C657.99 1182.33 658.98 1182.66 660 1183 C660.33 1184.32 660.66 1185.64 661 1187 C662.65 1187 664.3 1187 666 1187 C664.68 1186.34 663.36 1185.68 662 1185 C661.67 1184.01 661.34 1183.02 661 1182 C659.68 1182 658.36 1182 657 1182 Z M695 1181 C694.34 1181.66 693.68 1182.32 693 1183 C693.99 1183 694.98 1183 696 1183 C696.33 1183.99 696.66 1184.98 697 1186 C696.67 1184.35 696.34 1182.7 696 1181 C695.67 1181 695.34 1181 695 1181 Z M622 1181 C621.67 1181.66 621.34 1182.32 621 1183 C617.37 1183.33 613.74 1183.66 610 1184 C610 1184.33 610 1184.66 610 1185 C613.3 1185 616.6 1185 620 1185 C620.33 1185.99 620.66 1186.98 621 1188 C621.33 1187.34 621.66 1186.68 622 1186 C627.28 1186 632.56 1186 638 1186 C638 1187.65 638 1189.3 638 1191 C640.1490712 1187.4472136 640.1490712 1187.4472136 640 1185 C641.65 1185 643.3 1185 645 1185 C645 1184.67 645 1184.34 645 1184 C643.35 1184 641.7 1184 640 1184 C639.67 1183.01 639.34 1182.02 639 1181 C639 1181.99 639 1182.98 639 1184 C633.72 1184 628.44 1184 623 1184 C622.67 1183.01 622.34 1182.02 622 1181 Z M674 1186 C674 1186.33 674 1186.66 674 1187 C675.98 1187 677.96 1187 680 1187 C680 1186.67 680 1186.34 680 1186 C678.02 1186 676.04 1186 674 1186 Z M697 1186 C701 1187 701 1187 701 1187 Z M619 1189 C620 1191 620 1191 620 1191 Z M618 1191 C619 1194 619 1194 619 1194 Z M637 1191 C638 1195 638 1195 638 1195 Z M617 1195 C618 1198 618 1198 618 1198 Z M636 1196 C637 1199 637 1199 637 1199 Z M23 1202 C23 1205.63 23 1209.26 23 1213 C34.84132025 1217.7365281 48.52278383 1215.92900235 61 1215 C63.31622777 1209.10540926 63.31622777 1209.10540926 63 1203 C49.65129181 1202.14568268 36.37464868 1201.88022703 23 1202 Z M75 1243 C70.25949575 1254.85126064 71.53360647 1269.66803237 74 1282 C77.63 1282.33 81.26 1282.66 85 1283 C85.1673223 1276.89585112 85.33374708 1270.79167809 85.5 1264.6875 C85.57154297 1262.07811523 85.57154297 1262.07811523 85.64453125 1259.41601562 C85.68964844 1257.75634766 85.73476562 1256.09667969 85.78125 1254.38671875 C85.82314453 1252.85233154 85.86503906 1251.31794434 85.90820312 1249.73706055 C85.96335449 1247.49184251 86 1245.2458953 86 1243 C82.37 1243 78.74 1243 75 1243 Z M126 1243 C125.97300403 1248.35420049 125.9531622 1253.70826451 125.9375 1259.0625 C125.92912109 1260.57779297 125.92074219 1262.09308594 125.91210938 1263.65429688 C125.90888672 1265.12060547 125.90566406 1266.58691406 125.90234375 1268.09765625 C125.89710693 1269.44351807 125.89187012 1270.78937988 125.88647461 1272.17602539 C125.99584607 1275.86007961 126.40295637 1279.36609085 127 1283 C129.99970248 1283.04224933 133.00028144 1283.04109204 136 1283 C139.56695378 1279.43304622 137.88561466 1266.87924961 138 1262 C137.82251099 1255.89326871 137.48712164 1249.94848654 136 1244 C132.4202491 1242.63106761 132.4202491 1242.63106761 126 1243 Z M179 1243 C179 1256.2 179 1269.4 179 1283 C181.64 1283 184.28 1283 187 1283 C188.18447932 1279.44656204 188.12955787 1276.59722116 188.1328125 1272.84765625 C188.13410156 1271.43162109 188.13539063 1270.01558594 188.13671875 1268.55664062 C188.13285156 1267.07357422 188.12898437 1265.59050781 188.125 1264.0625 C188.12886719 1262.58330078 188.13273438 1261.10410156 188.13671875 1259.58007812 C188.13542969 1258.16275391 188.13414062 1256.74542969 188.1328125 1255.28515625 C188.13168457 1253.98457275 188.13055664 1252.68398926 188.12939453 1251.34399414 C188.10870367 1247.85442604 188.10870367 1247.85442604 187 1244 C184.36 1243.67 181.72 1243.34 179 1243 Z M234 1243 C231.60930169 1255.99942208 231.81369115 1268.81347354 232 1282 C233.98 1282.33 235.96 1282.66 238 1283 C239.79866727 1269.74427567 240.15722043 1256.36373654 240 1243 C238.02 1243 236.04 1243 234 1243 Z M289 1243 C286.36300297 1245.63699703 287.1983951 1253.59364555 286.9375 1257.4375 C286.84662109 1258.68466797 286.75574219 1259.93183594 286.66210938 1261.21679688 C286.17683912 1268.16017504 285.90020923 1275.03460424 286 1282 C287.32 1282.33 288.64 1282.66 290 1283 C292.67804858 1280.32195142 291.80565642 1271.98745036 292.0625 1268.0625 C292.15337891 1266.76763672 292.24425781 1265.47277344 292.33789062 1264.13867188 C292.81388138 1257.07754591 293.10224227 1250.0819811 293 1243 C291.68 1243 290.36 1243 289 1243 Z M340 1243 C339.97300403 1248.35420049 339.9531622 1253.70826451 339.9375 1259.0625 C339.92912109 1260.57779297 339.92074219 1262.09308594 339.91210938 1263.65429688 C339.90888672 1265.12060547 339.90566406 1266.58691406 339.90234375 1268.09765625 C339.89710693 1269.44351807 339.89187012 1270.78937988 339.88647461 1272.17602539 C339.99584607 1275.86007961 340.40295637 1279.36609085 341 1283 C341.66 1283 342.32 1283 343 1283 C343.02901404 1277.27084395 343.04680354 1271.5417068 343.0625 1265.8125 C343.07087891 1264.18505859 343.07925781 1262.55761719 343.08789062 1260.88085938 C343.09111328 1259.31787109 343.09433594 1257.75488281 343.09765625 1256.14453125 C343.10289307 1254.70440674 343.10812988 1253.26428223 343.11352539 1251.78051758 C343.09811749 1247.76867525 343.09811749 1247.76867525 342 1243 C341.34 1243 340.68 1243 340 1243 Z M393 1243 C390.82281257 1245.17718743 391.61169032 1250.78819212 391.5 1253.5625 C391.20512624 1260.44288763 390.88028477 1267.31498151 390.4375 1274.1875 C390.12450458 1278.59072688 390.12450458 1278.59072688 390 1283 C392.475 1282.505 392.475 1282.505 395 1282 C396.1672031 1269.30666628 397.28982965 1256.75250444 397 1244 C395.68 1243.67 394.36 1243.34 393 1243 Z M445 1243 C444.66048744 1247.22875013 444.32825631 1251.45787305 444 1255.6875 C443.90460938 1256.86634766 443.80921875 1258.04519531 443.7109375 1259.25976562 C443.10191378 1267.19882489 442.91122005 1275.03754791 443 1283 C444.98 1283 446.96 1283 449 1283 C451.85465752 1274.43602744 451.1096628 1264.72627009 451.0625 1255.8125 C451.05347656 1253.59144531 451.04445313 1251.37039063 451.03515625 1249.08203125 C451.02355469 1247.40496094 451.01195312 1245.72789063 451 1244 C448.03 1243.505 448.03 1243.505 445 1243 Z M496 1243 C493.4797517 1255.60124152 494.77208576 1269.26038979 496 1282 C498.64 1282.33 501.28 1282.66 504 1283 C504 1269.8 504 1256.6 504 1243 C501.36 1243 498.72 1243 496 1243 Z M547 1243 C542.13535273 1252.72929454 544.43110068 1271.72440273 547 1282 C550.3 1282.33 553.6 1282.66 557 1283 C557.02906306 1277.45834437 557.04682015 1271.91670839 557.0625 1266.375 C557.07087891 1264.80363281 557.07925781 1263.23226563 557.08789062 1261.61328125 C557.09111328 1260.09863281 557.09433594 1258.58398438 557.09765625 1257.0234375 C557.10289307 1255.63044434 557.10812988 1254.23745117 557.11352539 1252.80224609 C557.07397151 1248.61202179 557.07397151 1248.61202179 556 1243 C553.03 1243 550.06 1243 547 1243 Z M598 1243 C597.8037597 1249.1039189 597.61948495 1255.20814076 597.4375 1261.3125 C597.38142578 1263.05208984 597.32535156 1264.79167969 597.26757812 1266.58398438 C597.21923828 1268.24365234 597.17089844 1269.90332031 597.12109375 1271.61328125 C597.0739624 1273.14766846 597.02683105 1274.68205566 596.97827148 1276.26293945 C596.80610066 1279.93614623 596.80610066 1279.93614623 598 1283 C601.3 1283 604.6 1283 608 1283 C613.47996994 1272.04006011 610.96610282 1256.87563316 610 1245 C604.81430466 1242.56671088 604.81430466 1242.56671088 598 1243 Z " fill="#000000" transform="translate(0,0)"/>
<path d="M0 0 C11.19720421 10.72813214 16.60430219 22.3749577 18.890625 37.76953125 C19.03644634 53.3724148 14.10562831 66.28704707 7.953125 80.45703125 C7.46457031 81.6059082 6.97601563 82.75478516 6.47265625 83.93847656 C0.39334924 98.20983741 -5.53848726 112.07790024 -15.046875 124.45703125 C-15.89507812 125.57980469 -16.74328125 126.70257812 -17.6171875 127.859375 C-20.37675829 131.43555348 -23.19815046 134.95147644 -26.046875 138.45703125 C-27.87992188 140.72707031 -27.87992188 140.72707031 -29.75 143.04296875 C-39.62929258 155.17864297 -39.62929258 155.17864297 -43.046875 157.45703125 C-49.92693656 156.08101894 -51.59973664 152.81975692 -56.046875 147.45703125 C-57.408125 145.82765625 -58.769375 144.19828125 -60.171875 142.51953125 C-61.80242281 140.50317161 -63.42665587 138.4816997 -65.046875 136.45703125 C-66.14644531 135.090625 -67.24601562 133.72421875 -68.37890625 132.31640625 C-75.9855703 122.72360348 -82.77521644 112.96409559 -89.046875 102.45703125 C-90.09875 100.82765625 -91.150625 99.19828125 -92.234375 97.51953125 C-99.73361622 84.02089705 -104.97909256 69.76020341 -106.234375 54.33203125 C-106.39292969 52.47320312 -106.55148437 50.614375 -106.71484375 48.69921875 C-107.74396491 32.45121175 -103.80321213 18.71027558 -94.171875 5.51953125 C-85.20483102 -3.26817185 -76.10846791 -8.15316933 -64.171875 -11.73046875 C-62.50382812 -12.23964844 -60.83578125 -12.74882812 -59.1171875 -13.2734375 C-38.41433939 -18.45712443 -16.49099979 -13.76364214 0 0 Z " fill="CurrentColor" transform="translate(412.046875,428.54296875)"/>
<path d="M0 0 C0.99 0 1.98 0 3 0 C1.76839723 6.15801383 -0.51880599 8.17270949 -4.8125 12.6875 C-6.05644531 14.01136719 -7.30039063 15.33523438 -8.58203125 16.69921875 C-12 20 -12 20 -16 22 C-13.62625223 14.87875669 -10.10016751 11.44017868 -5 6 C-3.31988083 4.01128751 -1.64568919 2.01729643 0 0 Z " fill="#000000" transform="translate(254,618)"/>
</svg>
