<?xml version="1.0" encoding="UTF-8"?>
<svg version="1.1" xmlns="http://www.w3.org/2000/svg" width="641" height="641">
<path d="M0 0 C211.53 0 423.06 0 641 0 C641 1.32 641 2.64 641 4 C429.47 4 217.94 4 0 4 C0 2.68 0 1.36 0 0 Z " fill="CurrentColor" transform="translate(0,0)"/>
<path d="M0 0 C0.66 0 1.32 0 2 0 C20.80859375 32.6015625 20.80859375 32.6015625 22.66088867 35.81225586 C23.88885968 37.94070633 25.1168872 40.0691242 26.3449707 42.19750977 C29.621945 47.87699577 32.89772792 53.55716485 36.171875 59.23828125 C36.85443359 60.42228516 37.53699219 61.60628906 38.24023438 62.82617188 C39.54918457 65.09679977 40.85779559 67.36762323 42.16601562 69.63867188 C44.74560554 74.11278028 47.34281113 78.57135189 50 83 C50 83.66 50 84.32 50 85 C52.206875 85.474375 54.41375 85.94875 56.6875 86.4375 C91.86023793 95.26175581 126.83749542 118.11920745 150 146 C150.75667969 146.86882812 151.51335937 147.73765625 152.29296875 148.6328125 C170 169.22238372 170 169.22238372 170 176 C148.83034862 173.61841422 126.25116595 161.58721275 112 146 C100.13777451 135.87370995 86.70358964 128.32109583 73 121 C74.71885609 125.29714022 76.66263244 129.02647514 79 133 C78.67 133.66 78.34 134.32 78 135 C75.95232422 134.40251953 75.95232422 134.40251953 73.86328125 133.79296875 C72.03152344 133.26316406 70.19976562 132.73335937 68.3125 132.1875 C66.39695312 131.62546875 64.48140625 131.0634375 62.5078125 130.484375 C58.16750863 129.31464772 54.11774983 128.54495742 49.6875 127.9375 C42.57544356 125.51471154 40.93764595 122.65257382 37.48828125 116.2265625 C36.24072946 113.52189642 35.10619597 110.76548993 34 108 C12.06731429 104.97480197 -10.06731429 104.97480197 -32 108 C-32.66 109.65 -33.32 111.3 -34 113 C-39.88906804 124.55562722 -39.88906804 124.55562722 -46 127 C-49.40717159 127.87134224 -52.82538726 128.69994802 -56.25 129.5 C-58.04953125 129.9228125 -59.8490625 130.345625 -61.703125 130.78125 C-66.464045 131.87668292 -71.22921151 132.94847927 -76 134 C-74.36362487 129.0908746 -72.62780667 125.37967778 -70 121 C-85.42036341 128.65093772 -99.92329433 136.91066045 -112.3125 149 C-126.34027274 162.41174758 -149.12046323 176 -169 176 C-162.04701892 162.09403784 -151.74534235 150.11689637 -141 139 C-139.52466797 137.42992187 -139.52466797 137.42992187 -138.01953125 135.828125 C-126.22883708 123.58337925 -112.79815281 113.35110204 -98 105 C-95.94652344 103.81664062 -95.94652344 103.81664062 -93.8515625 102.609375 C-79.7241634 94.79013543 -64.01097168 87.66849528 -48 85 C-47.34 83.35 -46.68 81.7 -46 80 C-43.63689741 75.74874639 -41.24303184 71.52489078 -38.8125 67.3125 C-38.09779541 66.06807129 -37.38309082 64.82364258 -36.64672852 63.54150391 C-34.43468513 59.69229022 -32.21789699 55.8458433 -30 52 C-28.7109075 49.76173603 -27.42184354 47.52345562 -26.1328125 45.28515625 C-23.06715693 39.9653185 -19.99672443 34.64825368 -16.92480469 29.33203125 C-13.46798298 23.34792386 -10.01555524 17.36128128 -6.5625 11.375 C-5.29298671 9.17446881 -4.0234572 6.97394697 -2.75390625 4.7734375 C-1.39072266 2.41058594 -1.39072266 2.41058594 0 0 Z M0 53 C-2.33858686 56.95531401 -4.67106369 60.91400986 -7 64.875 C-7.66773438 66.00292969 -8.33546875 67.13085938 -9.0234375 68.29296875 C-12.51151899 73.32112978 -12.51151899 73.32112978 -14 79 C-3.77 79 6.46 79 17 79 C12.32616294 70.06231159 7.54042364 61.42606095 2 53 C1.34 53 0.68 53 0 53 Z " fill="CurrentColor" transform="translate(308,105)"/>
<path d="M0 0 C3.16597532 1.64716284 6.33267768 3.29292879 9.5 4.9375 C15.51756909 8.11208466 21.46694732 11.37639986 27.375 14.75 C46.2979736 25.43902501 63.94843688 31.06605915 85.75 26.625 C87.4825 26.08875 89.215 25.5525 91 25 C92.4025 24.608125 93.805 24.21625 95.25 23.8125 C96.1575 23.544375 97.065 23.27625 98 23 C97.5359375 24.7634375 97.5359375 24.7634375 97.0625 26.5625 C94.92902188 37.48088802 94.7703857 47.93347132 96 59 C73.96721677 65.64245416 56.82937136 63.14715179 36 54 C32.36337809 52.03817283 28.75900471 50.01551319 25.1875 47.9375 C-3.50783799 31.540164 -32.06411037 18.01402697 -65 13 C-66.34449219 12.79375 -67.68898438 12.5875 -69.07421875 12.375 C-124.41465652 5.43938378 -178.14314463 15.57422782 -226.125 44.0625 C-248.49820439 57.34524642 -270.11150763 67.83194678 -296.5625 61.125 C-299.7490625 60.073125 -299.7490625 60.073125 -303 59 C-304 57 -304 57 -303.0625 53.3125 C-300.94140914 42.70704568 -301.68952971 32.54152071 -304 22 C-301.9375 22.78375 -299.875 23.5675 -297.75 24.375 C-279.11444636 30.96105912 -262.14367066 29.61262524 -244.390625 21.3125 C-240.53884201 19.29409843 -236.76730238 17.17220289 -233 15 C-231.34613281 14.05382812 -229.69226563 13.10765625 -227.98828125 12.1328125 C-226.21839844 11.11960937 -224.44851562 10.10640625 -222.625 9.0625 C-155.53900965 -29.30682542 -69.78177342 -38.32277721 0 0 Z " fill="CurrentColor" transform="translate(412,260)"/>
<path d="M0 0 C0 4.19843567 -1.34029546 5.7736088 -4 9 C-7.73046875 10.984375 -7.73046875 10.984375 -12.1875 12.75 C-21.66500349 16.72443695 -30.2396886 21.66211077 -39 27 C-41.32882842 28.3411862 -43.66071527 29.677136 -46 31 C-42.14616493 19.43849479 -34.19849338 16.28715863 -24 11 C-16.09437133 7.10771881 -8.18369069 3.27347628 0 0 Z " fill="CurrentColor" transform="translate(230,291)"/>
<path d="M0 0 C38.77372263 13.54744526 38.77372263 13.54744526 46 28 C45.67 28.66 45.34 29.32 45 30 C43.185 28.845 41.37 27.69 39.5 26.5 C29.84931557 20.56677182 19.87085076 15.39606313 9.25 11.4375 C3.75594546 8.88668896 2.10445833 7.57681458 0 2 C0 1.34 0 0.68 0 0 Z " fill="CurrentColor" transform="translate(388,292)"/>
<path d="M0 0 C21.69583392 13.82764782 42.10637741 17.02742478 66.99609375 11.546875 C69.67044053 10.91171764 72.34294023 10.26543741 74.99609375 9.546875 C74.31546875 11.774375 74.31546875 11.774375 73.62109375 14.046875 C72.81671875 16.769375 72.81671875 16.769375 71.99609375 19.546875 C71.60421875 20.743125 71.21234375 21.939375 70.80859375 23.171875 C68.28390863 36.76633336 70.67213709 48.57500501 74.99609375 61.546875 C73.16046875 61.0725 71.32484375 60.598125 69.43359375 60.109375 C50.399112 55.48935516 31.83755406 56.172312 13.99609375 64.546875 C9.90879269 67.13989395 5.94922674 69.76702409 1.99609375 72.546875 C-27.96488376 93.44431479 -60.82367934 105.0471493 -97.00390625 109.546875 C-99.22947266 109.82724609 -99.22947266 109.82724609 -101.5 110.11328125 C-109.15118031 110.7160357 -116.76920678 110.73794734 -124.44140625 110.734375 C-126.04185791 110.73429443 -127.64230957 110.73421387 -129.29125977 110.73413086 C-142.02746743 110.67267204 -154.4917418 110.04930789 -167.00390625 107.546875 C-162.54675387 115.92546433 -156.30076523 122.51210286 -150.00390625 129.546875 C-148.99328125 130.68253906 -147.98265625 131.81820312 -146.94140625 132.98828125 C-115.68598053 167.52718919 -75.01828789 191.42348251 -28.00390625 195.546875 C0.97377531 196.86733626 0.97377531 196.86733626 26.99609375 185.546875 C34.75032397 177.79264478 38.11143769 169.77583483 38.30859375 158.921875 C38.24751636 150.49319459 36.47386464 144.45124125 31.93359375 137.296875 C24.57098306 130.40421819 16.99620621 127.546875 6.99609375 127.546875 C-1.45307622 128.89384413 -5.69266795 131.90782712 -11.00390625 138.546875 C-14.38360045 144.58204321 -14.54242862 149.69994776 -14.00390625 156.546875 C-11.69405964 163.01444551 -8.818034 165.96895023 -3.00390625 169.546875 C-3.66390625 168.433125 -4.32390625 167.319375 -5.00390625 166.171875 C-7.94991178 159.35923722 -7.96614301 154.20264847 -5.44140625 147.234375 C-1.89987991 141.8766813 1.76786921 139.10393113 7.99609375 137.546875 C14.39474692 137.546875 16.69360803 137.55820123 21.99609375 140.546875 C26.39285789 144.94363914 27.99276759 147.53689652 29.99609375 153.546875 C29.99609375 162.34217958 28.39830665 168.57943553 22.80859375 175.484375 C14.89493492 181.84124849 7.00812255 184.06031237 -3.00390625 183.546875 C-13.52508836 181.20883453 -20.64619651 176.21647919 -27.00390625 167.546875 C-32.23133175 156.80946046 -32.98426916 147.07958364 -30.00390625 135.546875 C-24.2386221 122.60701502 -17.97832316 114.39305368 -4.62890625 108.671875 C10.39010031 104.010804 23.53033728 106.64691977 37.55859375 113.109375 C50.51412322 121.29965225 59.10280502 130.57767994 63.87109375 145.359375 C67.57742154 162.44966424 65.72916308 177.73704436 57.99609375 193.546875 C45.30638154 212.89348542 28.09416689 220.70113939 6.37109375 226.234375 C-45.0228278 236.5365734 -98.84359479 221.90700756 -142.12890625 193.609375 C-159.4524951 181.83025482 -175.19805598 168.35272527 -190.00390625 153.546875 C-190.00390625 152.886875 -190.00390625 152.226875 -190.00390625 151.546875 C-190.66390625 151.546875 -191.32390625 151.546875 -192.00390625 151.546875 C-193.26203125 150 -194.52015625 148.453125 -195.81640625 146.859375 C-205.04699378 135.37872528 -205.04699378 135.37872528 -215.00390625 124.546875 C-215.56078125 126.465 -215.56078125 126.465 -216.12890625 128.421875 C-218.13283276 134.96803494 -220.34758868 141.423033 -222.6015625 147.88671875 C-230.07711851 172.72888677 -226.28615023 198.56897649 -217.078125 222.3359375 C-216.72363281 223.39554688 -216.36914062 224.45515625 -216.00390625 225.546875 C-216.33390625 226.206875 -216.66390625 226.866875 -217.00390625 227.546875 C-239.94196884 207.15748603 -266.98292883 177.53630518 -269.2421875 145.12890625 C-269.45958676 134.08731238 -268.00501253 127.1134071 -260.69140625 118.421875 C-259.14453125 116.813125 -257.59765625 115.204375 -256.00390625 113.546875 C-249.30452311 106.30721903 -246.32523612 102.15291022 -245.44140625 92.234375 C-246.20592365 83.14511259 -249.31680144 78.42940562 -255.44140625 71.859375 C-270.91948801 60.62186358 -289.02615997 55.82906176 -308.00390625 57.546875 C-312.36078535 58.43973883 -316.58175789 59.50245252 -320.84375 60.76953125 C-324.00390625 61.546875 -324.00390625 61.546875 -327.00390625 60.546875 C-326.36453125 58.835 -325.72515625 57.123125 -325.06640625 55.359375 C-320.04061289 41.19577552 -320.88642532 27.50364117 -326.00390625 13.546875 C-326.33390625 12.226875 -326.66390625 10.906875 -327.00390625 9.546875 C-325.94171875 9.82402344 -324.87953125 10.10117187 -323.78515625 10.38671875 C-322.37234375 10.74894531 -320.95953125 11.11117187 -319.50390625 11.484375 C-318.11171875 11.84402344 -316.71953125 12.20367187 -315.28515625 12.57421875 C-293.32171633 17.56408785 -273.35773362 13.11152386 -254.296875 1.73828125 C-249.50656484 -1.28697496 -244.75241059 -4.36276449 -240.00390625 -7.453125 C-167.96449219 -53.0043105 -69.83494912 -46.42246378 0 0 Z M-245.00390625 29.546875 C-247.06940871 31.82242856 -249.10296032 34.1321599 -251.00390625 36.546875 C-220.93773051 68.21658012 -176.25478113 81.54080443 -133.43359375 82.83203125 C-88.23657116 83.61572993 -38.99714949 74.05328525 -5.12890625 41.921875 C-4.09765625 40.808125 -3.06640625 39.694375 -2.00390625 38.546875 C-9.14379774 20.69714628 -35.79528744 10.56402095 -52.00390625 3.546875 C-63.68915014 -1.01089976 -63.68915014 -1.01089976 -76.00390625 -2.453125 C-75.68164062 -1.34453125 -75.359375 -0.2359375 -75.02734375 0.90625 C-71.57012152 16.58250959 -73.9838599 30.58718323 -81.12890625 44.734375 C-89.20134072 56.8430267 -99.78276522 63.51707152 -113.37890625 67.984375 C-132.38532122 70.29596601 -146.81992763 67.06005275 -162.19140625 55.359375 C-173.08195156 44.46882969 -178.13083379 31.53883236 -178.19140625 16.359375 C-178.16510732 9.5006134 -177.75397271 3.21900336 -176.00390625 -3.453125 C-199.59233746 -3.453125 -227.84987106 14.34709699 -245.00390625 29.546875 Z " fill="CurrentColor" transform="translate(435.00390625,332.453125)"/>
<path d="M0 0 C8.91 0 17.82 0 27 0 C26 7 26 7 25 8 C15.69350805 8.40463008 7.99818704 7.37314823 -1 5 C-0.67 3.35 -0.34 1.7 0 0 Z " fill="CurrentColor" transform="translate(118,331)"/>
<path d="M0 0 C0.33 1.98 0.66 3.96 1 6 C-7.91119191 8.9703973 -15.58214365 9.0970913 -25 9 C-25.66 6.36 -26.32 3.72 -27 1 C-25.28103516 1.01740234 -25.28103516 1.01740234 -23.52734375 1.03515625 C-22.01269531 1.04417969 -20.49804688 1.05320312 -18.9375 1.0625 C-17.44089844 1.07410156 -15.94429688 1.08570313 -14.40234375 1.09765625 C-9.54620313 0.98993352 -4.83524704 0 0 0 Z " fill="CurrentColor" transform="translate(500,330)"/>
<path d="M0 0 C-1.81259378 5.43778135 -3.86444394 9.38813843 -6.8125 14.25 C-7.69292969 15.76335937 -8.57335937 17.27671875 -9.48046875 18.8359375 C-12 23 -12 23 -15.625 27.875 C-17.9956296 36.71098306 -12.97771828 44.13246882 -9 52 C-6.61245119 56.77509762 -6.92505991 59.44724121 -7.125 64.75 C-7.30410027 86.25831404 1.69810375 104.16299367 13 122 C12.01 122 11.02 122 10 122 C9.34 121.34 8.68 120.68 8 120 C4.71682669 119.78369141 1.42448424 119.70470991 -1.86572266 119.68115234 C-5.0187645 119.65134781 -5.0187645 119.65134781 -8.23550415 119.62094116 C-10.52192841 119.60938995 -12.80835266 119.59783875 -15.1640625 119.5859375 C-17.51533701 119.56723761 -19.86660473 119.54766511 -22.21786499 119.5272522 C-28.41564947 119.47580042 -34.61345574 119.43624462 -40.81134033 119.39910889 C-47.1320948 119.35915085 -53.45275761 119.30802121 -59.7734375 119.2578125 C-72.18222464 119.16089883 -84.59106916 119.07654362 -97 119 C-95.83359439 113.16797193 -93.55604145 109.39050175 -90.5625 104.25 C-89.46679688 102.36152344 -88.37109375 100.47304688 -87.2421875 98.52734375 C-83.75256862 92.57817422 -80.2609595 86.63031666 -76.75390625 80.69140625 C-74.64639087 77.10115665 -72.55016141 73.50546644 -70.46484375 69.90234375 C-69.52330444 68.27655396 -69.52330444 68.27655396 -68.56274414 66.61791992 C-67.26934832 64.36991748 -65.98598151 62.11611541 -64.71264648 59.85668945 C-61.72314998 54.57275917 -58.68904134 49.55686795 -55.1953125 44.578125 C-49.05750847 35.53147507 -46.09265255 29.69413268 -47.97753906 18.57421875 C-49.13057866 13.33233457 -50.58282484 8.17561136 -52 3 C-52 1.02 -52 -0.96 -52 -3 C-36.54656306 -10.10858099 -14.44763552 -9.63175701 0 0 Z M-35 62 C-39.20003634 68.18788737 -43.12426285 74.46773253 -46.875 80.9375 C-48.32519531 83.42603516 -48.32519531 83.42603516 -49.8046875 85.96484375 C-52.15929953 89.52719191 -52.15929953 89.52719191 -52 92 C-40.12 92 -28.24 92 -16 92 C-18.31 88.37 -20.62 84.74 -23 81 C-24.65066915 78.18154402 -26.27893005 75.34973043 -27.875 72.5 C-29.01582031 70.47359375 -29.01582031 70.47359375 -30.1796875 68.40625 C-32 65 -32 65 -33 62 C-33.66 62 -34.32 62 -35 62 Z " fill="CurrentColor" transform="translate(165,405)"/>
<path d="M0 0 C1 1 1 1 1.1875 4.4296875 C0.97872204 9.51865033 0.08062712 14.14961262 -1 19.125 C-3.45972857 30.4841632 -3.10282752 35.55805907 3 45.625 C4.29317433 47.7829514 5.58477869 49.94184422 6.875 52.1015625 C7.89207031 53.79394043 7.89207031 53.79394043 8.9296875 55.52050781 C12.36859561 61.30014442 15.67991122 67.1515733 19 73 C25.22601127 83.93364895 31.54002884 94.81218684 37.9140625 105.66015625 C41.03589326 111.06210897 44.03506549 116.51086449 47 122 C46 123 46 123 41.66381836 123.11352539 C39.74190674 123.10828857 37.81999512 123.10305176 35.83984375 123.09765625 C33.76767578 123.09443359 31.69550781 123.09121094 29.56054688 123.08789062 C27.37494141 123.07951172 25.18933594 123.07113281 22.9375 123.0625 C19.65329102 123.05573242 19.65329102 123.05573242 16.30273438 123.04882812 C10.86846294 123.03698875 5.43424457 123.02049944 0 123 C1.02055039 118.39037115 2.05029278 113.78485864 3.125 109.1875 C5.79485542 90.3078081 3.9575988 73.4609143 -6 57 C-12.6371502 48.75097047 -19.47149023 41.84299816 -29.375 37.8125 C-36.81007963 32.77316825 -39.49707805 26.8520515 -43.4921875 18.9453125 C-45.9017542 13.99779057 -45.9017542 13.99779057 -48.8203125 9.5546875 C-51 6 -51 6 -51 3 C-35.55325687 -5.27504096 -16.52829166 -5.58388232 0 0 Z " fill="CurrentColor" transform="translate(504,401)"/>
<path d="M0 0 C1.75280273 -0.08121094 1.75280273 -0.08121094 3.54101562 -0.1640625 C9.6230348 -0.26011244 12.90845738 0.12250846 17.91015625 3.69140625 C19.65619141 5.57666016 19.65619141 5.57666016 21.4375 7.5 C22.44554687 8.42683594 23.45359375 9.35367187 24.4921875 10.30859375 C25.88824219 11.60990234 25.88824219 11.60990234 27.3125 12.9375 C32.50621186 17.72152975 37.86904519 22.15988081 43.4375 26.5 C43.4375 26.83 43.4375 27.16 43.4375 27.5 C24.9575 27.5 6.4775 27.5 -12.5625 27.5 C-14.61397598 23.39704805 -13.69274067 17.89992895 -13.6875 13.4375 C-13.69007813 11.23964844 -13.69265625 9.04179687 -13.6953125 6.77734375 C-13.46087762 -2.53799526 -7.82300095 0.15182104 0 0 Z " fill="CurrentColor" transform="translate(230.5625,496.5)"/>
<path d="M0 0 C18.48 0 36.96 0 56 0 C58.475 3.96 58.475 3.96 61 8 C65.23877905 14.35816858 69.46190326 18.03751713 76 22 C76 22.33 76 22.66 76 23 C49.40672911 24.03610146 22.76872515 15.39336774 0 2 C0 1.34 0 0.68 0 0 Z " fill="CurrentColor" transform="translate(341,497)"/>
<path d="M0 0 C5.38663387 2.15465355 10.4834575 4.68477501 15.6875 7.25 C41.47602013 19.58784734 68.22819987 25.5779422 96.875 24.75 C105.04034658 24.66532233 110.69777363 25.85564713 118.05078125 29.27734375 C129.71388442 34.36481012 142.6430421 37.0343301 155 40 C154.67 40.66 154.34 41.32 154 42 C109.50265019 56.70952908 60.56939243 55.40439537 17 38 C9.58401896 34.25325 8.34295832 28.39847132 5.61328125 20.9296875 C3.35686455 14.03477738 1.55382053 7.08387745 0 0 Z " fill="CurrentColor" transform="translate(218,527)"/>
</svg>
